<svg width="40" height="13" viewBox="0 0 40 13" fill="none" xmlns="http://www.w3.org/2000/svg">
<path d="M39.0391 6.67852H34.2478C34.1489 10.1509 31.2967 12.9453 27.8012 12.9453C26.2409 12.9453 24.8091 12.3893 23.6931 11.4634C22.5797 12.3751 21.1581 12.9235 19.6107 12.9235C18.0504 12.9235 16.6186 12.3674 15.5026 11.4415C14.3892 12.3533 12.9677 12.9017 11.4202 12.9017C7.93881 12.9017 5.09562 10.1304 4.97491 6.67852H0V6.02231H4.98518C5.20606 2.66418 8.00687 -0.000494957 11.4202 -0.000494957C12.9805 -0.000494957 14.4124 0.555544 15.5283 1.48144C16.6417 0.569671 18.0633 0.0213261 19.6107 0.0213261C21.171 0.0213261 22.6028 0.577381 23.7188 1.50327C24.8322 0.591507 26.2538 0.0431633 27.8012 0.0431633C31.1991 0.0431633 33.9909 2.68473 34.2337 6.02231H39.0391V6.67852ZM33.5916 6.67852H26.056C26.0021 8.36722 25.2983 9.89538 24.1837 11.0165C25.1763 11.8114 26.4336 12.2891 27.7999 12.2891C30.9346 12.2891 33.494 9.78881 33.5916 6.67852ZM22.0275 6.02231H25.3869C25.2778 4.60843 24.6614 3.3358 23.7175 2.38679C22.7659 3.33323 22.1418 4.60715 22.0275 6.02231ZM22.0108 6.67852C22.0584 8.19771 22.6927 9.5705 23.6944 10.5786C24.705 9.57435 25.3459 8.20028 25.3998 6.67852H22.0108ZM23.2038 11.0139C22.0982 9.89026 21.4021 8.36465 21.3546 6.67852H17.8642C17.8051 8.35952 17.1027 9.8787 15.9932 10.9947C16.9858 11.7896 18.243 12.2673 19.6094 12.2673C20.9681 12.2673 22.2163 11.7973 23.2038 11.0139ZM13.8358 6.02231H17.1977C17.0937 4.60072 16.4747 3.3191 15.527 2.36624C14.5703 3.31653 13.9449 4.59816 13.8358 6.02231ZM13.8216 6.67852C13.8743 8.18872 14.5074 9.5538 15.5052 10.5567C16.5107 9.55637 17.1515 8.19129 17.2093 6.67852H13.8216ZM11.4202 12.2454C12.7763 12.2454 14.0258 11.7754 15.0133 10.9921C13.9128 9.87356 13.2181 8.35566 13.1654 6.67852H5.63112C5.75055 9.76826 8.30094 12.2454 11.4202 12.2454ZM5.64268 6.02231H13.177C13.2874 4.42993 13.9757 2.9955 15.0365 1.92835C14.0438 1.13344 12.7866 0.655719 11.4202 0.655719C8.36901 0.655719 5.86356 3.02632 5.64268 6.02231ZM16.0176 1.9309C17.0693 3.00062 17.7512 4.43378 17.8552 6.02231H21.37C21.4856 4.43892 22.1726 3.01218 23.2282 1.94888C22.2356 1.15397 20.9784 0.67627 19.612 0.67627C18.2546 0.677554 17.0064 1.14755 16.0176 1.9309ZM27.8012 0.699377C26.4451 0.699377 25.1969 1.16939 24.2081 1.95274C25.2547 3.01732 25.9353 4.44277 26.0445 6.02231H33.5762C33.3347 3.04687 30.8383 0.699377 27.8012 0.699377Z" fill="#C69930"/>
</svg>
