<svg width="156" height="192" viewBox="0 0 156 192" fill="none" xmlns="http://www.w3.org/2000/svg">
<path d="M214.808 194.489C196.433 194.199 196.589 183.007 178.214 182.717C159.839 182.426 159.682 193.618 141.313 193.328C122.943 193.038 123.094 181.846 104.719 181.555C86.3442 181.265 86.1873 192.457 67.8122 192.166C49.4371 191.876 49.594 180.684 31.2137 180.394C12.8333 180.103 12.6817 191.295 -5.69343 191.005" stroke="#3F71FA" stroke-opacity="0.2" stroke-miterlimit="10"/>
<path d="M216.333 54.8282C197.958 54.5378 198.115 43.346 179.74 43.0556C161.365 42.7653 161.208 53.957 142.838 53.6667C124.468 53.3764 124.62 42.1846 106.245 41.8942C87.8696 41.6038 87.7127 52.7956 69.3376 52.5052C50.9625 52.2148 51.1194 41.0231 32.7391 40.7326C14.3587 40.4421 14.2071 51.634 -4.16802 51.3436" stroke="#3F71FA" stroke-opacity="0.2" stroke-miterlimit="10"/>
<path d="M215.417 125.772C197.042 125.482 197.199 114.29 178.824 114C160.449 113.71 160.292 124.901 141.922 124.611C123.552 124.321 123.704 113.129 105.329 112.839C86.9536 112.548 86.7967 123.74 68.4216 123.45C50.0465 123.159 50.2034 111.967 31.8231 111.677C13.4427 111.386 13.291 122.578 -5.08404 122.288" stroke="#3F71FA" stroke-opacity="0.2" stroke-miterlimit="10"/>
<path d="M216.331 159.352C197.956 159.061 198.113 147.869 179.738 147.579C161.363 147.289 161.206 158.48 142.836 158.19C124.466 157.9 124.618 146.708 106.243 146.418C87.8676 146.127 87.7107 157.319 69.3356 157.029C50.9606 156.738 51.1175 145.546 32.7371 145.256C14.3567 144.966 14.2051 156.157 -4.16999 155.867" stroke="#3F71FA" stroke-opacity="0.2" stroke-miterlimit="10"/>
<path d="M218.2 19.9482C199.825 19.6579 199.982 8.46612 181.607 8.17574C163.232 7.88536 163.075 19.0771 144.705 18.7868C126.335 18.4965 126.487 7.30468 108.112 7.0143C89.7368 6.72392 89.5799 17.9157 71.2048 17.6253C52.8297 17.3349 52.9866 6.14316 34.6062 5.85269C16.2259 5.56223 16.0742 16.7541 -2.30085 16.4637" stroke="#3F71FA" stroke-opacity="0.2" stroke-miterlimit="10"/>
<path d="M217.237 90.6357C198.862 90.3454 199.019 79.1536 180.644 78.8632C162.269 78.5729 162.112 89.7646 143.742 89.4743C125.372 89.184 125.524 77.9922 107.149 77.7018C88.7739 77.4114 88.617 88.6032 70.2419 88.3128C51.8668 88.0224 52.0237 76.8307 33.6434 76.5402C15.263 76.2497 15.1114 87.4416 -3.26373 87.1512" stroke="#3F71FA" stroke-opacity="0.2" stroke-miterlimit="10"/>
<path d="M213.895 200.034C195.519 199.744 195.676 188.552 177.301 188.262C158.926 187.971 158.769 199.163 140.399 198.873C122.03 198.582 122.181 187.391 103.806 187.1C85.4311 186.81 85.2742 198.002 66.8991 197.711C48.524 197.421 48.681 186.229 30.3006 185.939C11.9202 185.648 11.7686 196.84 -6.60652 196.55" stroke="#3F71FA" stroke-opacity="0.2" stroke-miterlimit="10"/>
<path d="M215.417 60.3741C197.042 60.0837 197.199 48.8919 178.824 48.6015C160.449 48.3112 160.292 59.5029 141.922 59.2126C123.552 58.9223 123.704 47.7305 105.329 47.4401C86.9536 47.1497 86.7967 58.3415 68.4216 58.0511C50.0465 57.7607 50.2034 46.569 31.8231 46.2785C13.4427 45.988 13.291 57.1799 -5.08404 56.8895" stroke="#3F71FA" stroke-opacity="0.2" stroke-miterlimit="10"/>
<path d="M214.503 131.319C196.128 131.029 196.285 119.837 177.91 119.547C159.535 119.256 159.378 130.448 141.008 130.158C122.638 129.868 122.79 118.676 104.415 118.385C86.0395 118.095 85.8826 129.287 67.5075 128.996C49.1324 128.706 49.2894 117.514 30.909 117.224C12.5286 116.933 12.377 128.125 -5.9981 127.835" stroke="#3F71FA" stroke-opacity="0.2" stroke-miterlimit="10"/>
<path d="M215.417 164.897C197.042 164.607 197.199 153.415 178.824 153.125C160.449 152.835 160.292 164.026 141.922 163.736C123.552 163.446 123.704 152.254 105.329 151.964C86.9536 151.673 86.7967 162.865 68.4216 162.575C50.0465 162.284 50.2034 151.092 31.8231 150.802C13.4427 150.511 13.291 161.703 -5.08404 161.413" stroke="#3F71FA" stroke-opacity="0.2" stroke-miterlimit="10"/>
<path d="M217.283 25.4942C198.908 25.2038 199.065 14.0121 180.69 13.7217C162.315 13.4313 162.158 24.623 143.788 24.3327C125.418 24.0424 125.57 12.8506 107.195 12.5602C88.8198 12.2699 88.6629 23.4616 70.2878 23.1712C51.9127 22.8808 52.0696 11.6891 33.6892 11.3986C15.3089 11.1082 15.1572 22.3 -3.21785 22.0096" stroke="#3F71FA" stroke-opacity="0.2" stroke-miterlimit="10"/>
<path d="M216.319 96.1816C197.944 95.8913 198.101 84.6995 179.726 84.4091C161.351 84.1188 161.194 95.3105 142.824 95.0202C124.454 94.7299 124.606 83.5381 106.231 83.2477C87.8559 82.9573 87.699 94.1491 69.3239 93.8587C50.9489 93.5683 51.1058 82.3766 32.7254 82.0861C14.345 81.7956 14.1934 92.9875 -4.1817 92.6971" stroke="#3F71FA" stroke-opacity="0.2" stroke-miterlimit="10"/>
<path d="M216.026 72.9346C197.651 72.6442 197.808 61.4524 179.433 61.1621C161.058 60.8717 160.901 72.0634 142.531 71.7731C124.162 71.4828 124.313 60.291 105.938 60.0006C87.563 59.7102 87.4061 70.902 69.031 70.6116C50.6559 70.3212 50.8128 59.1295 32.4324 58.839C14.0521 58.5486 13.9004 69.7404 -4.47467 69.45" stroke="#3F71FA" stroke-opacity="0.2" stroke-miterlimit="10"/>
<path d="M216.026 142.749C197.651 142.459 197.808 131.267 179.433 130.977C161.058 130.686 160.901 141.878 142.531 141.588C124.162 141.297 124.313 130.105 105.938 129.815C87.563 129.525 87.4061 140.716 69.031 140.426C50.6559 140.136 50.8128 128.944 32.4324 128.653C14.0521 128.363 13.9004 139.555 -4.47467 139.264" stroke="#3F71FA" stroke-opacity="0.2" stroke-miterlimit="10"/>
<path d="M217.849 3.34568C199.474 3.0553 199.63 -8.13645 181.255 -8.42683C162.88 -8.71721 162.723 2.47454 144.354 2.18424C125.984 1.89395 126.135 -9.29788 107.76 -9.58826C89.3852 -9.87864 89.2283 1.3131 70.8532 1.02272C52.4781 0.73234 52.6351 -10.4594 34.2547 -10.7499C15.8743 -11.0403 15.7227 0.151495 -2.65242 -0.138885" stroke="#3F71FA" stroke-opacity="0.2" stroke-miterlimit="10"/>
<path d="M216.026 177.458C197.651 177.168 197.808 165.976 179.433 165.686C161.058 165.395 160.901 176.587 142.531 176.297C124.162 176.006 124.313 164.814 105.938 164.524C87.563 164.234 87.4061 175.425 69.031 175.135C50.6559 174.845 50.8128 163.653 32.4324 163.362C14.0521 163.072 13.9004 174.264 -4.47467 173.973" stroke="#3F71FA" stroke-opacity="0.2" stroke-miterlimit="10"/>
<path d="M217.55 37.7969C199.175 37.5065 199.332 26.3147 180.957 26.0244C162.581 25.734 162.425 36.9257 144.055 36.6354C125.685 36.3451 125.837 25.1533 107.461 24.8629C89.0864 24.5725 88.9295 35.7643 70.5544 35.4739C52.1793 35.1835 52.3362 23.9918 33.9559 23.7013C15.5755 23.4109 15.4239 34.6027 -2.95123 34.3123" stroke="#3F71FA" stroke-opacity="0.2" stroke-miterlimit="10"/>
<path d="M216.636 108.742C198.261 108.452 198.418 97.2601 180.042 96.9697C161.667 96.6793 161.51 107.871 143.141 107.581C124.771 107.29 124.923 96.0986 106.547 95.8083C88.1723 95.5179 88.0154 106.71 69.6403 106.419C51.2652 106.129 51.4222 94.9371 33.0418 94.6466C14.6614 94.3562 14.5098 105.548 -3.86531 105.258" stroke="#3F71FA" stroke-opacity="0.2" stroke-miterlimit="10"/>
<path d="M214.776 188.893C196.401 188.602 196.558 177.41 178.183 177.12C159.808 176.83 159.651 188.021 141.281 187.731C122.912 187.441 123.063 176.249 104.688 175.959C86.313 175.668 86.1561 186.86 67.781 186.57C49.4059 186.279 49.5628 175.087 31.1824 174.797C12.8021 174.507 12.6504 185.698 -5.72467 185.408" stroke="#3F71FA" stroke-opacity="0.2" stroke-miterlimit="10"/>
<path d="M216.634 49.2314C198.259 48.9411 198.416 37.7493 180.041 37.4589C161.665 37.1686 161.509 48.3603 143.139 48.07C124.769 47.7797 124.921 36.5879 106.545 36.2975C88.1704 36.0071 88.0135 47.1989 69.6384 46.9085C51.2633 46.6181 51.4202 35.4264 33.0399 35.1359C14.6595 34.8454 14.5078 46.0373 -3.86724 45.7469" stroke="#3F71FA" stroke-opacity="0.2" stroke-miterlimit="10"/>
<path d="M215.722 120.177C197.347 119.886 197.504 108.695 179.128 108.404C160.753 108.114 160.596 119.306 142.227 119.015C123.857 118.725 124.008 107.533 105.633 107.243C87.2583 106.952 87.1014 118.144 68.7263 117.854C50.3512 117.563 50.5081 106.372 32.1277 106.081C13.7474 105.791 13.5957 116.983 -4.77935 116.692" stroke="#3F71FA" stroke-opacity="0.2" stroke-miterlimit="10"/>
<path d="M216.637 153.756C198.262 153.465 198.419 142.274 180.043 141.983C161.668 141.693 161.511 152.885 143.142 152.594C124.772 152.304 124.923 141.112 106.548 140.822C88.1733 140.531 88.0164 151.723 69.6413 151.433C51.2662 151.142 51.4232 139.951 33.0428 139.66C14.6624 139.37 14.5108 150.562 -3.86431 150.271" stroke="#3F71FA" stroke-opacity="0.2" stroke-miterlimit="10"/>
<path d="M218.162 14.3515C199.787 14.0612 199.944 2.86941 181.569 2.57903C163.194 2.28865 163.037 13.4804 144.667 13.1901C126.297 12.8998 126.449 1.70797 108.074 1.41759C89.6989 1.12721 89.542 12.319 71.1669 12.0286C52.7918 11.7382 52.9487 0.546446 34.5683 0.255982C16.188 -0.034482 16.0363 11.1573 -2.33876 10.867" stroke="#3F71FA" stroke-opacity="0.2" stroke-miterlimit="10"/>
<path d="M217.245 85.04C198.87 84.7497 199.027 73.5579 180.652 73.2675C162.277 72.9772 162.12 84.1689 143.75 83.8786C125.38 83.5883 125.532 72.3965 107.157 72.1061C88.7817 71.8157 88.6248 83.0075 70.2497 82.7171C51.8746 82.4267 52.0316 71.235 33.6512 70.9445C15.2708 70.654 15.1192 81.8459 -3.25592 81.5555" stroke="#3F71FA" stroke-opacity="0.2" stroke-miterlimit="10"/>
<path d="M216.632 114.338C198.257 114.048 198.414 102.856 180.039 102.565C161.664 102.275 161.507 113.467 143.137 113.176C124.767 112.886 124.919 101.694 106.544 101.404C88.1684 101.114 88.0115 112.305 69.6364 112.015C51.2614 111.725 51.4183 100.533 33.0379 100.242C14.6575 99.9519 14.5059 111.144 -3.8692 110.853" stroke="#3F71FA" stroke-opacity="0.2" stroke-miterlimit="10"/>
<path d="M215.722 78.5303C197.347 78.2399 197.504 67.0482 179.128 66.7578C160.753 66.4674 160.596 77.6591 142.227 77.3688C123.857 77.0785 124.008 65.8867 105.633 65.5963C87.2583 65.306 87.1014 76.4977 68.7263 76.2073C50.3512 75.9169 50.5081 64.7252 32.1277 64.4347C13.7474 64.1443 13.5957 75.3361 -4.77935 75.0457" stroke="#3F71FA" stroke-opacity="0.2" stroke-miterlimit="10"/>
<path d="M216.005 148.345C197.63 148.054 197.787 136.863 179.412 136.572C161.037 136.282 160.88 147.474 142.51 147.183C124.14 146.893 124.292 135.701 105.917 135.411C87.5415 135.12 87.3846 146.312 69.0095 146.022C50.6344 145.731 50.7913 134.54 32.4109 134.249C14.0306 133.959 13.8789 145.151 -4.49615 144.86" stroke="#3F71FA" stroke-opacity="0.2" stroke-miterlimit="10"/>
<path d="M217.853 8.9414C199.477 8.65102 199.634 -2.54073 181.259 -2.83111C162.884 -3.12149 162.727 8.07026 144.357 7.77996C125.988 7.48966 126.139 -3.70217 107.764 -3.99255C89.3891 -4.28293 89.2322 6.90882 70.8571 6.61844C52.482 6.32806 52.639 -4.86369 34.2586 -5.15415C15.8782 -5.44462 15.7266 5.74721 -2.64851 5.45683" stroke="#3F71FA" stroke-opacity="0.2" stroke-miterlimit="10"/>
<path d="M215.722 183.054C197.347 182.763 197.504 171.572 179.128 171.281C160.753 170.991 160.596 182.183 142.227 181.892C123.857 181.602 124.008 170.41 105.633 170.12C87.2583 169.829 87.1014 181.021 68.7263 180.731C50.3512 180.44 50.5081 169.249 32.1277 168.958C13.7474 168.668 13.5957 179.86 -4.77937 179.569" stroke="#3F71FA" stroke-opacity="0.2" stroke-miterlimit="10"/>
<path d="M217.585 43.3936C199.21 43.1032 199.367 31.9115 180.992 31.6211C162.617 31.3307 162.46 42.5224 144.09 42.2321C125.72 41.9419 125.872 30.75 107.497 30.4596C89.1216 30.1693 88.9647 41.361 70.5896 41.0706C52.2145 40.7802 52.3714 29.5885 33.991 29.298C15.6106 29.0076 15.459 40.1994 -2.91607 39.909" stroke="#3F71FA" stroke-opacity="0.2" stroke-miterlimit="10"/>
<path d="M213.589 205.631C195.214 205.34 195.371 194.149 176.996 193.858C158.621 193.568 158.464 204.76 140.094 204.469C121.724 204.179 121.876 192.987 103.501 192.697C85.1255 192.407 84.9686 203.598 66.5935 203.308C48.2184 203.018 48.3753 191.826 29.9949 191.535C11.6146 191.245 11.4629 202.437 -6.91217 202.146" stroke="#3F71FA" stroke-opacity="0.2" stroke-miterlimit="10"/>
<path d="M215.452 65.9698C197.077 65.6794 197.234 54.4876 178.859 54.1972C160.484 53.9069 160.327 65.0986 141.957 64.8083C123.587 64.518 123.739 53.3262 105.364 53.0358C86.9888 52.7454 86.8318 63.9372 68.4568 63.6468C50.0817 63.3564 50.2386 52.1647 31.8582 51.8742C13.4778 51.5837 13.3262 62.7756 -5.04888 62.4852" stroke="#3F71FA" stroke-opacity="0.2" stroke-miterlimit="10"/>
<path d="M214.502 136.915C196.127 136.625 196.284 125.433 177.909 125.143C159.534 124.852 159.377 136.044 141.007 135.754C122.637 135.463 122.789 124.271 104.414 123.981C86.0386 123.691 85.8816 134.882 67.5066 134.592C49.1315 134.302 49.2884 123.11 30.908 122.819C12.5276 122.529 12.376 133.721 -5.99908 133.43" stroke="#3F71FA" stroke-opacity="0.2" stroke-miterlimit="10"/>
<path d="M215.44 170.493C197.065 170.203 197.222 159.011 178.847 158.721C160.472 158.43 160.315 169.622 141.945 169.332C123.576 169.041 123.727 157.85 105.352 157.559C86.977 157.269 86.8201 168.461 68.445 168.17C50.0699 167.88 50.2269 156.688 31.8465 156.398C13.4661 156.107 13.3145 167.299 -5.0606 167.009" stroke="#3F71FA" stroke-opacity="0.2" stroke-miterlimit="10"/>
<path d="M217.206 31.0898C198.831 30.7995 198.988 19.6077 180.613 19.3173C162.238 19.0269 162.081 30.2187 143.711 29.9284C125.341 29.6381 125.493 18.4463 107.118 18.1559C88.7427 17.8655 88.5857 29.0573 70.2107 28.7669C51.8356 28.4765 51.9925 17.2848 33.6121 16.9943C15.2317 16.7038 15.0801 27.8957 -3.29498 27.6053" stroke="#3F71FA" stroke-opacity="0.2" stroke-miterlimit="10"/>
<path d="M216.331 101.777C197.956 101.487 198.113 90.2952 179.738 90.0048C161.363 89.7145 161.206 100.906 142.836 100.616C124.466 100.326 124.618 89.1338 106.243 88.8434C87.8677 88.553 87.7107 99.7448 69.3357 99.4544C50.9606 99.164 51.1175 87.9723 32.7371 87.6818C14.3567 87.3913 14.2051 98.5832 -4.16998 98.2928" stroke="#3F71FA" stroke-opacity="0.2" stroke-miterlimit="10"/>
</svg>
