<svg width="303" height="406" viewBox="0 0 303 406" fill="none" xmlns="http://www.w3.org/2000/svg">
<g clip-path="url(#clip0_195_10615)">
<g opacity="0.4">
<path d="M352.177 332.346C333.485 342.869 323.321 325.704 304.626 336.229C285.93 346.754 296.094 363.919 277.402 374.442C258.71 384.965 248.543 367.802 229.847 378.327C211.152 388.852 221.319 406.015 202.623 416.54C183.928 427.065 173.764 409.9 155.072 420.423C136.38 430.946 146.54 448.113 127.845 458.639C109.149 469.164 98.986 451.998 80.2905 462.523C61.595 473.048 71.7584 490.214 53.063 500.739" stroke="white" stroke-width="0.4" stroke-miterlimit="10"/>
<path d="M321.714 280.897C303.022 291.42 292.859 274.255 274.163 284.78C255.468 295.305 265.631 312.47 246.939 322.993C228.247 333.516 218.08 316.353 199.385 326.878C180.69 337.403 190.856 354.566 172.161 365.091C153.465 375.616 143.302 358.451 124.61 368.974C105.918 379.497 116.078 396.664 97.3824 407.189C78.687 417.714 68.5235 400.549 49.8281 411.074C31.1326 421.599 41.296 438.764 22.6006 449.289" stroke="white" stroke-width="0.4" stroke-miterlimit="10"/>
<path d="M382.672 383.847C363.98 394.37 353.816 377.205 335.121 387.73C316.426 398.255 326.589 415.42 307.897 425.943C289.205 436.466 279.038 419.303 260.343 429.828C241.647 440.353 251.814 457.516 233.118 468.041C214.423 478.566 204.26 461.401 185.567 471.924C166.875 482.447 177.035 499.614 158.34 510.139C139.644 520.665 129.481 503.499 110.786 514.024C92.0902 524.549 102.254 541.715 83.5581 552.24" stroke="white" stroke-width="0.4" stroke-miterlimit="10"/>
<path d="M306.455 255.123C287.763 265.646 277.599 248.481 258.904 259.006C240.208 269.531 250.372 286.696 231.68 297.219C212.988 307.743 202.821 290.579 184.125 301.104C165.43 311.629 175.597 328.793 156.901 339.318C138.206 349.843 128.042 332.678 109.35 343.201C90.6583 353.724 100.818 370.891 82.1229 381.416C63.4274 391.941 53.264 374.776 34.5686 385.301C15.8731 395.826 26.0365 412.991 7.34105 423.516" stroke="white" stroke-width="0.4" stroke-miterlimit="10"/>
<path d="M367.424 358.099C348.732 368.622 338.568 351.457 319.873 361.982C301.177 372.507 311.341 389.672 292.649 400.195C273.956 410.718 263.79 393.555 245.094 404.08C226.399 414.605 236.566 431.768 217.87 442.293C199.175 452.818 189.011 435.653 170.319 446.176C151.627 456.699 161.787 473.866 143.092 484.391C124.396 494.916 114.233 477.751 95.5373 488.276C76.8419 498.801 87.0053 515.967 68.3098 526.492" stroke="white" stroke-width="0.4" stroke-miterlimit="10"/>
<path d="M336.939 306.609C318.247 317.132 308.083 299.966 289.388 310.492C270.692 321.017 280.856 338.182 262.164 348.705C243.472 359.228 233.305 342.065 214.609 352.59C195.914 363.115 206.081 380.278 187.385 390.803C168.69 401.328 158.526 384.163 139.834 394.686C121.142 405.209 131.302 422.376 112.607 432.901C93.9113 443.426 83.7479 426.261 65.0525 436.786C46.357 447.311 56.5204 464.476 37.825 475.001" stroke="white" stroke-width="0.4" stroke-miterlimit="10"/>
<path d="M397.898 409.562C379.205 420.085 369.042 402.92 350.347 413.445C331.651 423.97 341.815 441.135 323.122 451.658C304.43 462.181 294.264 445.018 275.568 455.543C256.873 466.068 267.039 483.231 248.344 493.756C229.649 504.281 219.485 487.116 200.793 497.639C182.101 508.162 192.261 525.329 173.566 535.854C154.87 546.379 144.707 529.214 126.011 539.739C107.316 550.264 117.479 567.429 98.7837 577.954" stroke="white" stroke-width="0.4" stroke-miterlimit="10"/>
<path d="M357.255 340.922C338.563 351.445 328.399 334.28 309.704 344.805C291.008 355.33 301.172 372.495 282.48 383.018C263.788 393.541 253.621 376.378 234.925 386.903C216.23 397.428 226.397 414.591 207.701 425.116C189.006 435.642 178.842 418.476 160.15 428.999C141.458 439.523 151.618 456.69 132.923 467.215C114.227 477.74 104.064 460.575 85.3684 471.1C66.6729 481.625 76.8363 498.79 58.1409 509.315" stroke="white" stroke-width="0.4" stroke-miterlimit="10"/>
<path d="M326.793 289.476C308.101 299.999 297.937 282.834 279.242 293.359C260.546 303.884 270.71 321.049 252.018 331.572C233.326 342.095 223.159 324.932 204.463 335.457C185.768 345.982 195.935 363.145 177.239 373.67C158.544 384.195 148.38 367.03 129.688 377.553C110.996 388.076 121.156 405.243 102.461 415.768C83.7653 426.293 73.6019 409.128 54.9064 419.653C36.211 430.178 46.3744 447.343 27.6789 457.868" stroke="white" stroke-width="0.4" stroke-miterlimit="10"/>
<path d="M387.728 392.388C369.036 402.911 358.872 385.746 340.177 396.271C321.481 406.796 331.645 423.961 312.953 434.484C294.261 445.007 284.094 427.844 265.398 438.369C246.703 448.894 256.87 466.057 238.174 476.582C219.479 487.107 209.315 469.942 190.623 480.465C171.931 490.988 182.091 508.155 163.396 518.68C144.7 529.206 134.537 512.04 115.842 522.565C97.1461 533.09 107.309 550.256 88.614 560.781" stroke="white" stroke-width="0.4" stroke-miterlimit="10"/>
<path d="M311.535 263.704C292.843 274.227 282.679 257.062 263.984 267.587C245.289 278.112 255.452 295.277 236.76 305.801C218.068 316.324 207.901 299.16 189.206 309.685C170.51 320.21 180.677 337.374 161.981 347.899C143.286 358.424 133.123 341.259 114.43 351.782C95.7384 362.305 105.898 379.472 87.203 389.997C68.5075 400.522 58.3441 383.357 39.6486 393.882C20.9532 404.407 31.1166 421.572 12.4211 432.097" stroke="white" stroke-width="0.4" stroke-miterlimit="10"/>
<path d="M372.502 366.673C353.81 377.196 343.647 360.031 324.951 370.556C306.256 381.081 316.419 398.246 297.727 408.769C279.035 419.292 268.868 402.129 250.173 412.654C231.477 423.179 241.644 440.342 222.949 450.867C204.253 461.392 194.09 444.227 175.398 454.75C156.706 465.274 166.866 482.441 148.17 492.966C129.475 503.491 119.311 486.326 100.616 496.851C81.9205 507.376 92.0839 524.541 73.3884 535.066" stroke="white" stroke-width="0.4" stroke-miterlimit="10"/>
<path d="M342.008 315.171C323.316 325.694 313.153 308.529 294.457 319.054C275.762 329.579 285.925 346.744 267.233 357.267C248.541 367.79 238.374 350.627 219.679 361.152C200.983 371.677 211.15 388.84 192.455 399.366C173.759 409.891 163.596 392.725 144.904 403.248C126.212 413.772 136.372 430.939 117.676 441.464C98.9807 451.989 88.8173 434.824 70.1218 445.349C51.4263 455.874 61.5897 473.039 42.8943 483.564" stroke="white" stroke-width="0.4" stroke-miterlimit="10"/>
<path d="M402.964 418.118C384.272 428.641 374.109 411.476 355.413 422.001C336.718 432.526 346.881 449.691 328.189 460.215C309.497 470.738 299.33 453.574 280.635 464.099C261.939 474.624 272.106 491.788 253.411 502.313C234.715 512.838 224.552 495.673 205.86 506.196C187.168 516.719 197.328 533.886 178.632 544.411C159.937 554.936 149.773 537.771 131.078 548.296C112.382 558.821 122.546 575.986 103.85 586.511" stroke="white" stroke-width="0.4" stroke-miterlimit="10"/>
<path d="M296.286 237.951C277.594 248.474 267.43 231.309 248.735 241.834C230.04 252.359 240.203 269.524 221.511 280.048C202.819 290.571 192.652 273.407 173.957 283.932C155.261 294.457 165.428 311.621 146.732 322.146C128.037 332.671 117.874 315.506 99.1815 326.029C80.4894 336.552 90.6494 353.719 71.9539 364.244C53.2585 374.769 43.0951 357.604 24.3996 368.129C5.70415 378.654 15.8676 395.819 -2.8279 406.344" stroke="white" stroke-width="0.4" stroke-miterlimit="10"/>
<path d="M357.255 340.922C338.563 351.445 328.399 334.28 309.704 344.805C291.008 355.33 301.172 372.495 282.48 383.018C263.788 393.541 253.621 376.378 234.925 386.903C216.23 397.428 226.397 414.591 207.701 425.116C189.006 435.642 178.842 418.476 160.15 428.999C141.458 439.523 151.618 456.69 132.923 467.215C114.227 477.74 104.064 460.575 85.3684 471.1C66.6729 481.625 76.8363 498.79 58.1409 509.315" stroke="white" stroke-width="0.4" stroke-miterlimit="10"/>
<path d="M326.793 289.476C308.101 299.999 297.937 282.834 279.242 293.359C260.546 303.884 270.71 321.049 252.018 331.572C233.326 342.095 223.159 324.932 204.463 335.457C185.768 345.982 195.935 363.145 177.239 373.67C158.544 384.195 148.38 367.03 129.688 377.553C110.996 388.076 121.156 405.243 102.461 415.768C83.7653 426.293 73.6019 409.128 54.9064 419.653C36.211 430.178 46.3744 447.343 27.6789 457.868" stroke="white" stroke-width="0.4" stroke-miterlimit="10"/>
<path d="M387.728 392.388C369.036 402.911 358.872 385.746 340.177 396.271C321.481 406.796 331.645 423.961 312.953 434.484C294.261 445.007 284.094 427.844 265.398 438.369C246.703 448.894 256.87 466.057 238.174 476.582C219.479 487.107 209.315 469.942 190.623 480.465C171.931 490.988 182.091 508.155 163.396 518.68C144.7 529.206 134.537 512.04 115.842 522.565C97.1461 533.09 107.309 550.256 88.614 560.781" stroke="white" stroke-width="0.4" stroke-miterlimit="10"/>
<path d="M311.535 263.704C292.843 274.227 282.679 257.062 263.984 267.587C245.289 278.112 255.452 295.277 236.76 305.801C218.068 316.324 207.901 299.16 189.206 309.685C170.51 320.21 180.677 337.374 161.981 347.899C143.286 358.424 133.123 341.259 114.43 351.782C95.7384 362.305 105.898 379.472 87.203 389.997C68.5075 400.522 58.3441 383.357 39.6486 393.882C20.9532 404.407 31.1166 421.572 12.4211 432.097" stroke="white" stroke-width="0.4" stroke-miterlimit="10"/>
<path d="M372.502 366.673C353.81 377.196 343.647 360.031 324.951 370.556C306.256 381.081 316.419 398.246 297.727 408.769C279.035 419.292 268.868 402.129 250.173 412.654C231.477 423.179 241.644 440.342 222.949 450.867C204.253 461.392 194.09 444.227 175.398 454.75C156.706 465.274 166.866 482.441 148.17 492.966C129.475 503.491 119.311 486.326 100.616 496.851C81.9205 507.376 92.0839 524.541 73.3884 535.066" stroke="white" stroke-width="0.4" stroke-miterlimit="10"/>
<path d="M342.008 315.171C323.316 325.694 313.153 308.529 294.457 319.054C275.762 329.579 285.925 346.744 267.233 357.267C248.541 367.79 238.374 350.627 219.679 361.152C200.983 371.677 211.15 388.84 192.455 399.366C173.759 409.891 163.596 392.725 144.904 403.248C126.212 413.772 136.372 430.939 117.676 441.464C98.9807 451.989 88.8173 434.824 70.1218 445.349C51.4263 455.874 61.5897 473.039 42.8943 483.564" stroke="white" stroke-width="0.4" stroke-miterlimit="10"/>
<path d="M402.964 418.118C384.272 428.641 374.109 411.476 355.413 422.001C336.718 432.526 346.881 449.691 328.189 460.215C309.497 470.738 299.33 453.574 280.635 464.099C261.939 474.624 272.106 491.788 253.411 502.313C234.715 512.838 224.552 495.673 205.86 506.196C187.168 516.719 197.328 533.886 178.632 544.411C159.937 554.936 149.773 537.771 131.078 548.296C112.382 558.821 122.546 575.986 103.85 586.511" stroke="white" stroke-width="0.4" stroke-miterlimit="10"/>
<path d="M301.389 246.567C282.697 257.09 272.533 239.924 253.838 250.45C235.143 260.975 245.306 278.14 226.614 288.663C207.922 299.186 197.755 282.023 179.06 292.548C160.364 303.073 170.531 320.236 151.835 330.761C133.14 341.286 122.977 324.121 104.284 334.644C85.5924 345.167 95.7524 362.334 77.057 372.859C58.3615 383.384 48.1981 366.219 29.5026 376.744C10.8072 387.269 20.9706 404.434 2.27513 414.959" stroke="white" stroke-width="0.4" stroke-miterlimit="10"/>
<path d="M362.333 349.501C343.641 360.024 333.478 342.859 314.782 353.384C296.087 363.909 306.25 381.074 287.558 391.597C268.866 402.121 258.699 384.957 240.004 395.482C221.308 406.007 231.475 423.171 212.78 433.696C194.084 444.221 183.921 427.055 165.229 437.579C146.536 448.102 156.697 465.269 138.001 475.794C119.306 486.319 109.142 469.154 90.4467 479.679C71.7513 490.204 81.9147 507.369 63.2192 517.894" stroke="white" stroke-width="0.4" stroke-miterlimit="10"/>
<path d="M331.849 298.016C313.157 308.539 302.994 291.374 284.298 301.899C265.603 312.424 275.766 329.589 257.074 340.112C238.382 350.635 228.215 333.472 209.52 343.997C190.824 354.522 200.991 371.685 182.296 382.21C163.6 392.735 153.437 375.57 134.745 386.093C116.053 396.616 126.213 413.783 107.517 424.308C88.8217 434.833 78.6583 417.668 59.9629 428.193C41.2674 438.718 51.4308 455.883 32.7354 466.409" stroke="white" stroke-width="0.4" stroke-miterlimit="10"/>
<path d="M392.808 400.966C374.116 411.489 363.952 394.324 345.257 404.849C326.561 415.374 336.725 432.539 318.033 443.062C299.341 453.585 289.174 436.422 270.478 446.947C251.783 457.472 261.95 474.635 243.254 485.16C224.559 495.685 214.395 478.52 195.703 489.043C177.011 499.567 187.171 516.734 168.476 527.259C149.78 537.784 139.617 520.618 120.921 531.144C102.226 541.669 112.389 558.834 93.6938 569.359" stroke="white" stroke-width="0.4" stroke-miterlimit="10"/>
<path d="M316.624 272.3C297.932 282.823 287.769 265.658 269.073 276.183C250.378 286.708 260.541 303.873 241.849 314.396C223.157 324.919 212.99 307.756 194.295 318.281C175.599 328.806 185.766 345.969 167.071 356.494C148.375 367.019 138.212 349.854 119.52 360.377C100.828 370.901 110.988 388.068 92.2921 398.593C73.5966 409.118 63.4332 391.952 44.7377 402.477C26.0423 413.002 36.2057 430.168 17.5102 440.693" stroke="white" stroke-width="0.4" stroke-miterlimit="10"/>
<path d="M377.559 375.213C358.867 385.736 348.703 368.571 330.008 379.096C311.312 389.621 321.476 406.786 302.784 417.309C284.092 427.832 273.925 410.669 255.229 421.194C236.534 431.719 246.701 448.882 228.005 459.407C209.31 469.933 199.146 452.767 180.454 463.29C161.762 473.814 171.922 490.981 153.227 501.506C134.531 512.031 124.368 494.866 105.672 505.391C86.9769 515.916 97.1403 533.081 78.4448 543.606" stroke="white" stroke-width="0.4" stroke-miterlimit="10"/>
<path d="M347.087 323.746C328.395 334.269 318.231 317.104 299.536 327.629C280.841 338.154 291.004 355.319 272.312 365.843C253.62 376.366 243.453 359.202 224.758 369.727C206.062 380.252 216.229 397.416 197.533 407.941C178.838 418.466 168.675 401.301 149.982 411.824C131.29 422.347 141.45 439.514 122.755 450.039C104.06 460.564 93.8961 443.399 75.2007 453.924C56.5052 464.449 66.6686 481.614 47.9731 492.139" stroke="white" stroke-width="0.4" stroke-miterlimit="10"/>
<path d="M291.235 229.428C272.543 239.951 262.38 222.786 243.684 233.311C224.989 243.836 235.152 261.001 216.46 271.524C197.768 282.047 187.601 264.884 168.906 275.409C150.21 285.934 160.377 303.097 141.682 313.622C122.986 324.147 112.823 306.982 94.1307 317.505C75.4386 328.028 85.5986 345.195 66.9032 355.721C48.2077 366.246 38.0443 349.08 19.3488 359.605C0.65337 370.13 10.8168 387.296 -7.87868 397.821" stroke="white" stroke-width="0.4" stroke-miterlimit="10"/>
<path d="M285.633 219.963C266.941 230.486 256.778 213.321 238.082 223.846C219.387 234.371 229.55 251.536 210.858 262.059C192.166 272.582 181.999 255.419 163.304 265.944C144.608 276.469 154.775 293.632 136.08 304.157C117.384 314.683 107.221 297.517 88.5289 308.04C69.8368 318.564 79.9968 335.731 61.3014 346.256C42.6059 356.781 32.4425 339.616 13.747 350.141C-4.94844 360.666 5.21497 377.831 -13.4805 388.356" stroke="white" stroke-width="0.4" stroke-miterlimit="10"/>
<path d="M296.286 237.951C277.594 248.474 267.43 231.309 248.735 241.834C230.04 252.359 240.203 269.524 221.511 280.048C202.819 290.571 192.652 273.407 173.957 283.932C155.261 294.457 165.428 311.621 146.732 322.146C128.037 332.671 117.874 315.506 99.1815 326.029C80.4894 336.552 90.6494 353.719 71.9539 364.244C53.2585 374.769 43.0951 357.604 24.3996 368.129C5.70415 378.654 15.8676 395.819 -2.8279 406.344" stroke="white" stroke-width="0.4" stroke-miterlimit="10"/>
</g>
<g opacity="0.4">
<path d="M178.148 25.5275C159.364 35.8855 149.353 18.6314 130.565 28.9913C111.778 39.3512 121.789 56.6053 103.005 66.9633C84.2213 77.3213 74.2061 60.0691 55.4187 70.429C36.6312 80.7889 46.6463 98.041 27.8589 108.401C9.07139 118.761 -0.940375 101.507 -19.7245 111.865C-38.5085 122.223 -28.5002 139.479 -47.2876 149.839C-66.0751 160.198 -76.0869 142.944 -94.8744 153.304C-113.662 163.664 -103.65 180.918 -122.438 191.278" stroke="white" stroke-width="0.4" stroke-miterlimit="10"/>
<path d="M148.14 -26.1874C129.356 -15.8293 119.345 -33.0834 100.557 -22.7235C81.7696 -12.3636 91.7814 4.89041 72.9973 15.2484C54.2132 25.6064 44.1981 8.35425 25.4106 18.7141C6.62312 29.074 16.6383 46.3262 -2.14919 56.6861C-20.9367 67.0459 -30.9484 49.7919 -49.7325 60.1499C-68.5166 70.5079 -58.5082 87.7638 -77.2957 98.1237C-96.0832 108.484 -106.095 91.2295 -124.882 101.589C-143.67 111.949 -133.658 129.203 -152.446 139.563" stroke="white" stroke-width="0.4" stroke-miterlimit="10"/>
<path d="M208.189 77.296C189.404 87.6541 179.393 70.4 160.605 80.7599C141.818 91.1198 151.829 108.374 133.045 118.732C114.261 129.09 104.246 111.838 85.4587 122.198C66.6712 132.557 76.6864 149.81 57.8989 160.169C39.1114 170.529 29.0997 153.275 10.3156 163.633C-8.46851 173.991 1.53987 191.247 -17.2476 201.607C-36.0351 211.967 -46.0468 194.713 -64.8343 205.073C-83.6218 215.433 -73.61 232.687 -92.3975 243.047" stroke="white" stroke-width="0.4" stroke-miterlimit="10"/>
<path d="M253.205 154.877C234.421 165.235 224.41 147.981 205.622 158.341C186.835 168.701 196.846 185.955 178.062 196.313C159.278 206.671 149.263 189.419 130.476 199.779C111.688 210.138 121.703 227.391 102.916 237.751C84.1283 248.11 74.1165 230.856 55.3324 241.214C36.5483 251.572 46.5567 268.828 27.7692 279.188C8.98177 289.548 -1.03 272.294 -19.8175 282.654C-38.6049 293.014 -28.5932 310.268 -47.3807 320.628" stroke="white" stroke-width="0.4" stroke-miterlimit="10"/>
<path d="M133.109 -52.0936C114.325 -41.7356 104.313 -58.9896 85.5254 -48.6298C66.7379 -38.2699 76.7497 -21.0158 57.9656 -10.6578C39.1815 -0.299818 29.1663 -17.552 10.3789 -7.19212C-8.40861 3.16776 1.60654 20.4199 -17.1809 30.7798C-35.9684 41.1397 -45.9802 23.8856 -64.7643 34.2437C-83.5483 44.6017 -73.54 61.8576 -92.3274 72.2175C-111.115 82.5773 -121.127 65.3233 -139.914 75.6832C-158.702 86.0431 -148.69 103.297 -167.477 113.657" stroke="white" stroke-width="0.4" stroke-miterlimit="10"/>
<path d="M193.168 51.4142C174.384 61.7722 164.372 44.5182 145.584 54.878C126.797 65.2379 136.809 82.492 118.025 92.85C99.2406 103.208 89.2254 85.9558 70.4379 96.3157C51.6505 106.676 61.6656 123.928 42.8782 134.288C24.0907 144.648 14.0789 127.393 -4.70517 137.751C-23.4893 148.109 -13.4809 165.365 -32.2684 175.725C-51.0558 186.085 -61.0676 168.831 -79.8551 179.191C-98.6425 189.551 -88.6308 206.805 -107.418 217.165" stroke="white" stroke-width="0.4" stroke-miterlimit="10"/>
<path d="M238.195 129.012C219.411 139.37 209.399 122.116 190.612 132.476C171.824 142.836 181.836 160.09 163.052 170.448C144.268 180.806 134.253 163.553 115.465 173.913C96.6776 184.273 106.693 201.525 87.9053 211.885C69.1178 222.245 59.106 204.991 40.3219 215.349C21.5378 225.707 31.5462 242.963 12.7587 253.323C-6.02873 263.683 -16.0405 246.429 -34.828 256.789C-53.6154 267.149 -43.6037 284.403 -62.3912 294.762" stroke="white" stroke-width="0.4" stroke-miterlimit="10"/>
<path d="M163.138 -0.341654C144.354 10.0164 134.342 -7.23769 115.554 3.12219C96.7669 13.4821 106.779 30.7361 87.9946 41.0941C69.2105 51.4521 59.1954 34.2 40.4079 44.5598C21.6204 54.9197 31.6356 72.1719 12.8481 82.5318C-5.93935 92.8917 -15.9511 75.6376 -34.7352 85.9956C-53.5193 96.3536 -43.5109 113.61 -62.2984 123.969C-81.0859 134.329 -91.0976 117.075 -109.885 127.435C-128.673 137.795 -118.661 155.049 -137.448 165.409" stroke="white" stroke-width="0.4" stroke-miterlimit="10"/>
<path d="M223.187 103.144C204.403 113.502 194.391 96.2477 175.603 106.608C156.816 116.967 166.828 134.221 148.044 144.579C129.26 154.937 119.244 137.685 100.457 148.045C81.6695 158.405 91.6847 175.657 72.8972 186.017C54.1097 196.377 44.098 179.123 25.3139 189.481C6.52978 199.839 16.5382 217.095 -2.24931 227.455C-21.0368 237.815 -31.0486 220.561 -49.836 230.92C-68.6235 241.28 -58.6117 258.534 -77.3992 268.894" stroke="white" stroke-width="0.4" stroke-miterlimit="10"/>
<path d="M268.203 180.727C249.419 191.085 239.407 173.831 220.62 184.191C201.832 194.55 211.844 211.804 193.06 222.162C174.276 232.52 164.261 215.268 145.473 225.628C126.686 235.988 136.701 253.24 117.914 263.6C99.1261 273.96 89.1143 256.706 70.3302 267.064C51.5461 277.422 61.5545 294.678 42.767 305.038C23.9796 315.398 13.9678 298.144 -4.81967 308.503C-23.6071 318.863 -13.5954 336.117 -32.3829 346.477" stroke="white" stroke-width="0.4" stroke-miterlimit="10"/>
<path d="M183.15 34.1496C164.366 44.5076 154.355 27.2535 135.567 37.6134C116.78 47.9733 126.791 65.2273 108.007 75.5853C89.2232 85.9433 79.2081 68.6912 60.4206 79.051C41.6331 89.4109 51.6483 106.663 32.8608 117.023C14.0733 127.383 4.06158 110.129 -14.7225 120.487C-33.5066 130.845 -23.4982 148.101 -42.2857 158.461C-61.0732 168.821 -71.0849 151.566 -89.8724 161.926C-108.66 172.286 -98.6481 189.54 -117.436 199.9" stroke="white" stroke-width="0.4" stroke-miterlimit="10"/>
<path d="M153.143 -17.5643C134.359 -7.2063 124.347 -24.4603 105.56 -14.1005C86.7723 -3.74059 96.7841 13.5135 78 23.8715C59.2159 34.2295 49.2008 16.9773 30.4133 27.3372C11.6258 37.6971 21.641 54.9492 2.85349 65.3091C-15.934 75.669 -25.9457 58.4149 -44.7298 68.773C-63.5139 79.131 -53.5055 96.3869 -72.293 106.747C-91.0805 117.107 -101.092 99.8526 -119.88 110.212C-138.667 120.572 -128.655 137.826 -147.443 148.186" stroke="white" stroke-width="0.4" stroke-miterlimit="10"/>
<path d="M213.169 85.881C194.385 96.239 184.373 78.985 165.586 89.3448C146.798 99.7047 156.81 116.959 138.026 127.317C119.242 137.675 109.227 120.423 90.4392 130.782C71.6517 141.142 81.6668 158.395 62.8794 168.754C44.0919 179.114 34.0801 161.86 15.296 172.218C-3.48804 182.576 6.52034 199.832 -12.2671 210.192C-31.0546 220.552 -41.0664 203.298 -59.8539 213.658C-78.6413 224.018 -68.6296 241.272 -87.417 251.632" stroke="white" stroke-width="0.4" stroke-miterlimit="10"/>
<path d="M258.206 163.496C239.422 173.854 229.41 156.6 210.623 166.96C191.836 177.32 201.847 194.574 183.063 204.932C164.279 215.29 154.264 198.038 135.477 208.398C116.689 218.758 126.704 236.01 107.917 246.37C89.1293 256.73 79.1175 239.475 60.3334 249.834C41.5493 260.192 51.5577 277.447 32.7702 287.807C13.9827 298.167 3.97098 280.913 -14.8165 291.273C-33.604 301.633 -23.5922 318.887 -42.3797 329.247" stroke="white" stroke-width="0.4" stroke-miterlimit="10"/>
<path d="M138.113 -43.4686C119.329 -33.1106 109.317 -50.3646 90.5298 -40.0048C71.7423 -29.6449 81.7541 -12.3908 62.97 -2.03283C44.1859 8.32518 34.1707 -8.927 15.3833 1.43288C-3.40422 11.7928 6.61094 29.0449 -12.1765 39.4048C-30.964 49.7647 -40.9758 32.5106 -59.7599 42.8687C-78.5439 53.2267 -68.5356 70.4826 -87.323 80.8425C-106.111 91.2023 -116.122 73.9483 -134.91 84.3082C-153.697 94.6681 -143.685 111.922 -162.473 122.282" stroke="white" stroke-width="0.4" stroke-miterlimit="10"/>
<path d="M198.17 60.0333C179.386 70.3914 169.375 53.1373 150.587 63.4972C131.8 73.8571 141.811 91.1111 123.027 101.469C104.243 111.827 94.2281 94.575 75.4406 104.935C56.6532 115.295 66.6683 132.547 47.8808 142.907C29.0934 153.267 19.0816 136.013 0.297513 146.371C-18.4866 156.729 -8.4782 173.985 -27.2657 184.344C-46.0531 194.704 -56.0649 177.45 -74.8524 187.81C-93.6399 198.17 -83.6281 215.424 -102.416 225.784" stroke="white" stroke-width="0.4" stroke-miterlimit="10"/>
<path d="M243.175 137.594C224.391 147.952 214.379 130.698 195.592 141.058C176.805 151.418 186.816 168.672 168.032 179.03C149.248 189.388 139.233 172.136 120.446 182.495C101.658 192.855 111.673 210.107 92.8857 220.467C74.0982 230.827 64.0865 213.573 45.3024 223.931C26.5183 234.289 36.5267 251.545 17.7392 261.905C-1.04826 272.265 -11.06 255.011 -29.8475 265.371C-48.635 275.731 -38.6232 292.985 -57.4107 303.344" stroke="white" stroke-width="0.4" stroke-miterlimit="10"/>
<path d="M168.131 8.26479C149.347 18.6228 139.336 1.36875 120.548 11.7286C101.761 22.0885 111.772 39.3426 92.9883 49.7006C74.2042 60.0586 64.189 42.8064 45.4016 53.1663C26.6141 63.5262 36.6292 80.7783 17.8418 91.1382C-0.945698 101.498 -10.9575 84.2441 -29.7415 94.6021C-48.5256 104.96 -38.5173 122.216 -57.3047 132.576C-76.0922 142.936 -86.104 125.682 -104.891 136.042C-123.679 146.401 -113.667 163.656 -132.455 174.015" stroke="white" stroke-width="0.4" stroke-miterlimit="10"/>
<path d="M228.178 111.744C209.394 122.102 199.382 104.848 180.595 115.208C161.807 125.568 171.819 142.822 153.035 153.18C134.251 163.538 124.236 146.286 105.448 156.646C86.6607 167.006 96.6759 184.258 77.8884 194.618C59.1009 204.978 49.0892 187.724 30.3051 198.082C11.521 208.44 21.5294 225.695 2.7419 236.055C-16.0456 246.415 -26.0573 229.161 -44.8448 239.521C-63.6323 249.881 -53.6205 267.135 -72.408 277.495" stroke="white" stroke-width="0.4" stroke-miterlimit="10"/>
<path d="M273.218 189.364C254.433 199.722 244.422 182.468 225.634 192.828C206.847 203.188 216.859 220.442 198.074 230.8C179.29 241.158 169.275 223.906 150.488 234.266C131.7 244.626 141.715 261.878 122.928 272.238C104.14 282.598 94.1287 265.344 75.3446 275.702C56.5605 286.06 66.5689 303.316 47.7815 313.675C28.994 324.035 18.9822 306.781 0.194733 317.141C-18.5927 327.501 -8.58098 344.755 -27.3684 355.115" stroke="white" stroke-width="0.4" stroke-miterlimit="10"/>
<path d="M123.091 -69.3553C104.307 -58.9973 94.2955 -76.2514 75.508 -65.8915C56.7206 -55.5316 66.7323 -38.2776 47.9482 -27.9195C29.1642 -17.5615 19.149 -34.8137 0.361526 -24.4538C-18.4259 -14.094 -8.41079 3.15822 -27.1983 13.5181C-45.9857 23.878 -55.9975 6.62393 -74.7816 16.9819C-93.5657 27.34 -83.5573 44.5959 -102.345 54.9557C-121.132 65.3156 -131.144 48.0616 -149.931 58.4215C-168.719 68.7813 -158.707 86.0354 -177.495 96.3953" stroke="white" stroke-width="0.4" stroke-miterlimit="10"/>
<path d="M183.15 34.1496C164.366 44.5076 154.355 27.2535 135.567 37.6134C116.78 47.9733 126.791 65.2273 108.007 75.5853C89.2232 85.9433 79.2081 68.6912 60.4206 79.051C41.6331 89.4109 51.6483 106.663 32.8608 117.023C14.0733 127.383 4.06158 110.129 -14.7225 120.487C-33.5066 130.845 -23.4982 148.101 -42.2857 158.461C-61.0732 168.821 -71.0849 151.566 -89.8724 161.926C-108.66 172.286 -98.6481 189.54 -117.436 199.9" stroke="white" stroke-width="0.4" stroke-miterlimit="10"/>
<path d="M153.143 -17.5643C134.359 -7.2063 124.347 -24.4603 105.56 -14.1005C86.7723 -3.74059 96.7841 13.5135 78 23.8715C59.2159 34.2295 49.2008 16.9773 30.4133 27.3372C11.6258 37.6971 21.641 54.9492 2.85349 65.3091C-15.934 75.669 -25.9457 58.4149 -44.7298 68.773C-63.5139 79.131 -53.5055 96.3869 -72.293 106.747C-91.0805 117.107 -101.092 99.8526 -119.88 110.212C-138.667 120.572 -128.655 137.826 -147.443 148.186" stroke="white" stroke-width="0.4" stroke-miterlimit="10"/>
<path d="M213.169 85.881C194.385 96.239 184.373 78.985 165.586 89.3448C146.798 99.7047 156.81 116.959 138.026 127.317C119.242 137.675 109.227 120.423 90.4392 130.782C71.6517 141.142 81.6668 158.395 62.8794 168.754C44.0919 179.114 34.0801 161.86 15.296 172.218C-3.48804 182.576 6.52034 199.832 -12.2671 210.192C-31.0546 220.552 -41.0664 203.298 -59.8539 213.658C-78.6413 224.018 -68.6296 241.272 -87.417 251.632" stroke="white" stroke-width="0.4" stroke-miterlimit="10"/>
<path d="M258.206 163.496C239.422 173.854 229.41 156.6 210.623 166.96C191.836 177.32 201.847 194.574 183.063 204.932C164.279 215.29 154.264 198.038 135.477 208.398C116.689 218.758 126.704 236.01 107.917 246.37C89.1293 256.73 79.1175 239.475 60.3334 249.834C41.5493 260.192 51.5577 277.447 32.7702 287.807C13.9827 298.167 3.97098 280.913 -14.8165 291.273C-33.604 301.633 -23.5922 318.887 -42.3797 329.247" stroke="white" stroke-width="0.4" stroke-miterlimit="10"/>
<path d="M138.113 -43.4686C119.329 -33.1106 109.317 -50.3646 90.5298 -40.0048C71.7423 -29.6449 81.7541 -12.3908 62.97 -2.03283C44.1859 8.32518 34.1707 -8.927 15.3833 1.43288C-3.40422 11.7928 6.61094 29.0449 -12.1765 39.4048C-30.964 49.7647 -40.9758 32.5106 -59.7599 42.8687C-78.5439 53.2267 -68.5356 70.4826 -87.323 80.8425C-106.111 91.2023 -116.122 73.9483 -134.91 84.3082C-153.697 94.6681 -143.685 111.922 -162.473 122.282" stroke="white" stroke-width="0.4" stroke-miterlimit="10"/>
<path d="M198.17 60.0333C179.386 70.3914 169.375 53.1373 150.587 63.4972C131.8 73.8571 141.811 91.1111 123.027 101.469C104.243 111.827 94.2281 94.575 75.4406 104.935C56.6532 115.295 66.6683 132.547 47.8808 142.907C29.0934 153.267 19.0816 136.013 0.297513 146.371C-18.4866 156.729 -8.4782 173.985 -27.2657 184.344C-46.0531 194.704 -56.0649 177.45 -74.8524 187.81C-93.6399 198.17 -83.6281 215.424 -102.416 225.784" stroke="white" stroke-width="0.4" stroke-miterlimit="10"/>
<path d="M243.175 137.594C224.391 147.952 214.379 130.698 195.592 141.058C176.805 151.418 186.816 168.672 168.032 179.03C149.248 189.388 139.233 172.136 120.446 182.495C101.658 192.855 111.673 210.107 92.8857 220.467C74.0982 230.827 64.0865 213.573 45.3024 223.931C26.5183 234.289 36.5267 251.545 17.7392 261.905C-1.04826 272.265 -11.06 255.011 -29.8475 265.371C-48.635 275.731 -38.6232 292.985 -57.4107 303.344" stroke="white" stroke-width="0.4" stroke-miterlimit="10"/>
<path d="M168.131 8.26479C149.347 18.6228 139.336 1.36875 120.548 11.7286C101.761 22.0885 111.772 39.3426 92.9883 49.7006C74.2042 60.0586 64.189 42.8064 45.4016 53.1663C26.6141 63.5262 36.6292 80.7783 17.8418 91.1382C-0.945698 101.498 -10.9575 84.2441 -29.7415 94.6021C-48.5256 104.96 -38.5173 122.216 -57.3047 132.576C-76.0922 142.936 -86.104 125.682 -104.891 136.042C-123.679 146.401 -113.667 163.656 -132.455 174.015" stroke="white" stroke-width="0.4" stroke-miterlimit="10"/>
<path d="M228.178 111.744C209.394 122.102 199.382 104.848 180.595 115.208C161.807 125.568 171.819 142.822 153.035 153.18C134.251 163.538 124.236 146.286 105.448 156.646C86.6607 167.006 96.6759 184.258 77.8884 194.618C59.1009 204.978 49.0892 187.724 30.3051 198.082C11.521 208.44 21.5294 225.695 2.7419 236.055C-16.0456 246.415 -26.0573 229.161 -44.8448 239.521C-63.6323 249.881 -53.6205 267.135 -72.408 277.495" stroke="white" stroke-width="0.4" stroke-miterlimit="10"/>
<path d="M273.218 189.364C254.433 199.722 244.422 182.468 225.634 192.828C206.847 203.188 216.859 220.442 198.074 230.8C179.29 241.158 169.275 223.906 150.488 234.266C131.7 244.626 141.715 261.878 122.928 272.238C104.14 282.598 94.1287 265.344 75.3446 275.702C56.5605 286.06 66.5689 303.316 47.7815 313.675C28.994 324.035 18.9822 306.781 0.194733 317.141C-18.5927 327.501 -8.58098 344.755 -27.3684 355.115" stroke="white" stroke-width="0.4" stroke-miterlimit="10"/>
<path d="M128.118 -60.6952C109.334 -50.3372 99.3224 -67.5912 80.5349 -57.2313C61.7474 -46.8715 71.7592 -29.6174 52.9751 -19.2594C34.191 -8.90138 24.1759 -26.1536 5.38838 -15.7937C-13.3991 -5.4338 -3.38393 11.8184 -22.1714 22.1783C-40.9589 32.5381 -50.9706 15.2841 -69.7547 25.6421C-88.5388 36.0001 -78.5304 53.256 -97.3179 63.6159C-116.105 73.9758 -126.117 56.7217 -144.905 67.0816C-163.692 77.4415 -153.68 94.6955 -172.468 105.055" stroke="white" stroke-width="0.4" stroke-miterlimit="10"/>
<path d="M188.153 42.7726C169.369 53.1306 159.357 35.8766 140.57 46.2364C121.782 56.5963 131.794 73.8504 113.01 84.2084C94.2259 94.5664 84.2108 77.3142 65.4233 87.6741C46.6358 98.034 56.651 115.286 37.8635 125.646C19.076 136.006 9.06426 118.752 -9.71982 129.11C-28.5039 139.468 -18.4955 156.724 -37.283 167.084C-56.0705 177.444 -66.0822 160.19 -84.8697 170.549C-103.657 180.909 -93.6454 198.163 -112.433 208.523" stroke="white" stroke-width="0.4" stroke-miterlimit="10"/>
<path d="M158.124 -8.97935C139.34 1.37866 129.328 -15.8754 110.541 -5.51551C91.7533 4.84437 101.765 22.0984 82.981 32.4564C64.1969 42.8144 54.1817 25.5623 35.3942 35.9221C16.6068 46.282 26.6219 63.5342 7.83445 73.8941C-10.953 84.254 -20.9648 66.9999 -39.7489 77.3579C-58.533 87.7159 -48.5246 104.972 -67.3121 115.332C-86.0995 125.692 -96.1113 108.438 -114.899 118.797C-133.686 129.157 -123.674 146.411 -142.462 156.771" stroke="white" stroke-width="0.4" stroke-miterlimit="10"/>
<path d="M218.173 94.504C199.389 104.862 189.377 87.608 170.59 97.9679C151.802 108.328 161.814 125.582 143.03 135.94C124.246 146.298 114.231 129.046 95.4433 139.406C76.6558 149.765 86.671 167.018 67.8835 177.377C49.096 187.737 39.0843 170.483 20.3002 180.841C1.51611 191.199 11.5245 208.455 -7.26298 218.815C-26.0505 229.175 -36.0622 211.921 -54.8497 222.281C-73.6372 232.641 -63.6254 249.895 -82.4129 260.255" stroke="white" stroke-width="0.4" stroke-miterlimit="10"/>
<path d="M263.2 172.102C244.415 182.46 234.404 165.206 215.616 175.566C196.829 185.925 206.84 203.179 188.056 213.537C169.272 223.895 159.257 206.643 140.47 217.003C121.682 227.363 131.697 244.615 112.91 254.975C94.1224 265.335 84.1107 248.081 65.3266 258.439C46.5425 268.797 56.5509 286.053 37.7634 296.413C18.9759 306.773 8.96414 289.519 -9.82333 299.878C-28.6108 310.238 -18.599 327.492 -37.3865 337.852" stroke="white" stroke-width="0.4" stroke-miterlimit="10"/>
<path d="M143.126 -34.829C124.342 -24.4709 114.33 -41.725 95.5429 -31.3651C76.7555 -21.0052 86.7672 -3.75119 67.9832 6.60682C49.1991 16.9648 39.1839 -0.28735 20.3964 10.0725C1.60896 20.4324 11.6241 37.6846 -7.16335 48.0445C-25.9508 58.4043 -35.9626 41.1503 -54.7467 51.5083C-73.5308 61.8663 -63.5224 79.1222 -82.3099 89.4821C-101.097 99.842 -111.109 82.5879 -129.897 92.9478C-148.684 103.308 -138.672 120.562 -157.46 130.922" stroke="white" stroke-width="0.4" stroke-miterlimit="10"/>
<path d="M203.152 68.6173C184.368 78.9753 174.356 61.7213 155.568 72.0812C136.781 82.4411 146.793 99.6951 128.009 110.053C109.224 120.411 99.2093 103.159 80.4218 113.519C61.6344 123.879 71.6495 141.131 52.862 151.491C34.0746 161.851 24.0628 144.597 5.27871 154.955C-13.5054 165.313 -3.49699 182.569 -22.2845 192.928C-41.0719 203.288 -51.0837 186.034 -69.8712 196.394C-88.6587 206.754 -78.6469 224.008 -97.4344 234.368" stroke="white" stroke-width="0.4" stroke-miterlimit="10"/>
<path d="M248.179 146.217C229.395 156.575 219.383 139.321 200.596 149.681C181.808 160.041 191.82 177.295 173.036 187.653C154.252 198.011 144.237 180.759 125.449 191.118C106.662 201.478 116.677 218.73 97.8894 229.09C79.1019 239.45 69.0901 222.196 50.3061 232.554C31.522 242.912 41.5303 260.168 22.7429 270.528C3.9554 280.888 -6.05637 263.634 -24.8438 273.994C-43.6313 284.354 -33.6195 301.608 -52.407 311.968" stroke="white" stroke-width="0.4" stroke-miterlimit="10"/>
<path d="M173.135 16.8839C154.35 27.2419 144.339 9.98789 125.551 20.3478C106.764 30.7077 116.776 47.9617 97.9915 58.3197C79.2074 68.6777 69.1922 51.4255 50.4047 61.7854C31.6173 72.1453 41.6324 89.3975 22.8449 99.7574C4.05748 110.117 -5.95429 92.8632 -24.7384 103.221C-43.5225 113.579 -33.5141 130.835 -52.3016 141.195C-71.089 151.555 -81.1008 134.301 -99.8883 144.661C-118.676 155.021 -108.664 172.275 -127.451 182.635" stroke="white" stroke-width="0.4" stroke-miterlimit="10"/>
<path d="M233.181 120.37C214.397 130.728 204.385 113.474 185.598 123.834C166.81 134.194 176.822 151.448 158.038 161.806C139.254 172.164 129.239 154.912 110.451 165.272C91.6639 175.632 101.679 192.884 82.8916 203.244C64.1041 213.604 54.0923 196.35 35.3083 206.708C16.5242 217.066 26.5325 234.321 7.74507 244.681C-11.0424 255.041 -21.0542 237.787 -39.8416 248.147C-58.6291 258.507 -48.6174 275.761 -67.4048 286.121" stroke="white" stroke-width="0.4" stroke-miterlimit="10"/>
<path d="M278.209 197.97C259.424 208.328 249.413 191.074 230.625 201.434C211.838 211.794 221.85 229.048 203.065 239.406C184.281 249.764 174.266 232.511 155.479 242.871C136.691 253.231 146.706 270.483 127.919 280.843C109.131 291.203 99.1197 273.949 80.3356 284.307C61.5515 294.665 71.5599 311.921 52.7724 322.281C33.9849 332.641 23.9732 315.387 5.1857 325.747C-13.6018 336.107 -3.59001 353.361 -22.3775 363.72" stroke="white" stroke-width="0.4" stroke-miterlimit="10"/>
<path d="M284.831 209.38C266.047 219.738 256.035 202.484 237.248 212.844C218.46 223.204 228.472 240.458 209.688 250.816C190.904 261.174 180.889 243.922 162.101 254.282C143.314 264.641 153.329 281.894 134.541 292.253C115.754 302.613 105.742 285.359 86.9579 295.717C68.1738 306.075 78.1822 323.331 59.3947 333.691C40.6073 344.051 30.5955 326.797 11.808 337.157C-6.97946 347.517 3.03231 364.771 -15.7552 375.131" stroke="white" stroke-width="0.4" stroke-miterlimit="10"/>
<path d="M118.116 -77.9237C99.3319 -67.5657 89.3202 -84.8197 70.5327 -74.4598C51.7452 -64.1 61.757 -46.8459 42.9729 -36.4879C24.1888 -26.1299 14.1737 -43.3821 -4.61382 -33.0222C-23.4013 -22.6623 -13.3861 -5.41014 -32.1736 4.94974C-50.9611 15.3096 -60.9728 -1.94443 -79.7569 8.41358C-98.541 18.7716 -88.5326 36.0275 -107.32 46.3874C-126.108 56.7473 -136.119 39.4932 -154.907 49.8531C-173.694 60.213 -163.683 77.467 -182.47 87.8269" stroke="white" stroke-width="0.4" stroke-miterlimit="10"/>
<path d="M112.598 -87.4364C93.8139 -77.0784 83.8021 -94.3324 65.0146 -83.9725C46.2272 -73.6127 56.2389 -56.3586 37.4548 -46.0006C18.6707 -35.6426 8.65559 -52.8948 -10.1319 -42.5349C-28.9194 -32.175 -18.9042 -14.9228 -37.6917 -4.56295C-56.4791 5.79692 -66.4909 -11.4571 -85.275 -1.09911C-104.059 9.2589 -94.0507 26.5148 -112.838 36.8747C-131.626 47.2346 -141.637 29.9805 -160.425 40.3404C-179.212 50.7003 -169.201 67.9543 -187.988 78.3142" stroke="white" stroke-width="0.4" stroke-miterlimit="10"/>
<path d="M123.091 -69.3553C104.307 -58.9973 94.2955 -76.2514 75.508 -65.8915C56.7206 -55.5316 66.7323 -38.2776 47.9482 -27.9195C29.1642 -17.5615 19.149 -34.8137 0.361526 -24.4538C-18.4259 -14.094 -8.41079 3.15822 -27.1983 13.5181C-45.9857 23.878 -55.9975 6.62393 -74.7816 16.9819C-93.5657 27.34 -83.5573 44.5959 -102.345 54.9557C-121.132 65.3156 -131.144 48.0616 -149.931 58.4215C-168.719 68.7813 -158.707 86.0354 -177.495 96.3953" stroke="white" stroke-width="0.4" stroke-miterlimit="10"/>
</g>
<g opacity="0.4">
</g>
<g opacity="0.4">
<path d="M542.821 -31.1151C524.129 -20.592 513.966 -37.7571 495.27 -27.2321C476.575 -16.7071 486.738 0.458056 468.046 10.9812C449.354 21.5043 439.187 4.34104 420.492 14.8661C401.796 25.3911 411.963 42.5544 393.268 53.0794C374.572 63.6044 364.409 46.4392 345.717 56.9624C327.025 67.4855 337.185 84.6525 318.489 95.1776C299.794 105.703 289.63 88.5374 270.935 99.0624C252.239 109.587 262.403 126.753 243.707 137.278" stroke="white" stroke-width="0.4" stroke-miterlimit="10"/>
<path d="M512.359 -82.5663C493.667 -72.0432 483.503 -89.2083 464.808 -78.6833C446.112 -68.1583 456.276 -50.9931 437.584 -40.47C418.892 -29.9469 408.725 -47.1101 390.029 -36.5851C371.334 -26.0601 381.501 -8.89683 362.805 1.62819C344.11 12.1532 333.946 -5.01195 315.254 5.51117C296.562 16.0343 306.722 33.2014 288.027 43.7264C269.331 54.2514 259.168 37.0862 240.472 47.6113C221.777 58.1363 231.94 75.3014 213.245 85.8265" stroke="white" stroke-width="0.4" stroke-miterlimit="10"/>
<path d="M573.316 20.3859C554.624 30.909 544.46 13.7438 525.765 24.2688C507.069 34.7939 517.233 51.959 498.541 62.4822C479.849 73.0053 469.682 55.842 450.986 66.367C432.291 76.8921 442.458 94.0553 423.762 104.58C405.067 115.105 394.903 97.9402 376.211 108.463C357.519 118.986 367.679 136.154 348.984 146.679C330.288 157.204 320.125 140.038 301.429 150.563C282.734 161.088 292.897 178.254 274.202 188.779" stroke="white" stroke-width="0.4" stroke-miterlimit="10"/>
<path d="M497.099 -108.338C478.407 -97.8146 468.243 -114.98 449.548 -104.455C430.852 -93.9298 441.016 -76.7646 422.324 -66.2415C403.632 -55.7184 393.465 -72.8816 374.769 -62.3566C356.074 -51.8316 366.241 -34.6683 347.545 -24.1433C328.85 -13.6183 318.686 -30.7834 299.994 -20.2603C281.302 -9.73719 291.462 7.42987 272.767 17.9549C254.071 28.4799 243.908 11.3148 225.212 21.8398C206.517 32.3648 216.68 49.53 197.985 60.055" stroke="white" stroke-width="0.4" stroke-miterlimit="10"/>
<path d="M558.067 -5.36218C539.375 5.16094 529.212 -12.0042 510.517 -1.4792C491.821 9.04582 501.984 26.211 483.292 36.7341C464.6 47.2572 454.434 30.094 435.738 40.619C417.043 51.144 427.209 68.3073 408.514 78.8323C389.818 89.3573 379.655 72.1922 360.963 82.7153C342.271 93.2384 352.431 110.405 333.735 120.93C315.04 131.456 304.877 114.29 286.181 124.815C267.486 135.34 277.649 152.506 258.954 163.031" stroke="white" stroke-width="0.4" stroke-miterlimit="10"/>
<path d="M603.776 71.8351C585.084 82.3582 574.921 65.193 556.225 75.7181C537.53 86.2431 547.693 103.408 529.001 113.931C510.309 124.455 500.142 107.291 481.447 117.816C462.752 128.341 472.918 145.505 454.223 156.03C435.527 166.555 425.364 149.389 406.672 159.913C387.98 170.436 398.14 187.603 379.444 198.128C360.749 208.653 350.586 191.488 331.89 202.013C313.195 212.538 323.358 229.703 304.663 240.228" stroke="white" stroke-width="0.4" stroke-miterlimit="10"/>
<path d="M527.583 -56.8524C508.891 -46.3293 498.728 -63.4945 480.032 -52.9694C461.337 -42.4444 471.5 -25.2792 452.808 -14.7561C434.116 -4.233 423.949 -21.3963 405.254 -10.8712C386.558 -0.346217 396.725 16.817 378.03 27.3421C359.334 37.8671 349.171 20.7019 330.479 31.2251C311.786 41.7482 321.947 58.9152 303.251 69.4403C284.556 79.9653 274.392 62.8001 255.697 73.3251C237.001 83.8502 247.165 101.015 228.469 111.54" stroke="white" stroke-width="0.4" stroke-miterlimit="10"/>
<path d="M588.541 46.1027C569.849 56.6258 559.686 39.4606 540.99 49.9856C522.295 60.5107 532.458 77.6758 513.766 88.199C495.074 98.7221 484.907 81.5588 466.212 92.0838C447.516 102.609 457.683 119.772 438.988 130.297C420.292 140.822 410.129 123.657 391.437 134.18C372.745 144.703 382.905 161.87 364.209 172.395C345.514 182.92 335.35 165.755 316.655 176.28C297.96 186.805 308.123 203.97 289.427 214.495" stroke="white" stroke-width="0.4" stroke-miterlimit="10"/>
<path d="M547.898 -22.5389C529.206 -12.0158 519.042 -29.181 500.347 -18.656C481.651 -8.13093 491.815 9.03423 473.123 19.5574C454.431 30.0805 444.264 12.9172 425.568 23.4422C406.873 33.9673 417.04 51.1305 398.344 61.6555C379.649 72.1806 369.485 55.0154 350.793 65.5385C332.101 76.0617 342.261 93.2287 323.566 103.754C304.87 114.279 294.707 97.1136 276.011 107.639C257.316 118.164 267.479 135.329 248.784 145.854" stroke="white" stroke-width="0.4" stroke-miterlimit="10"/>
<path d="M517.438 -73.9852C498.745 -63.4621 488.582 -80.6273 469.887 -70.1022C451.191 -59.5772 461.355 -42.4121 442.662 -31.8889C423.97 -21.3658 413.804 -38.5291 395.108 -28.0041C376.413 -17.479 386.579 -0.315776 367.884 10.2092C349.189 20.7343 339.025 3.5691 320.333 14.0922C301.641 24.6154 311.801 41.7824 293.106 52.3074C274.41 62.8325 264.247 45.6673 245.551 56.1923C226.856 66.7173 237.019 83.8825 218.324 94.4075" stroke="white" stroke-width="0.4" stroke-miterlimit="10"/>
<path d="M578.372 28.9269C559.68 39.45 549.517 22.2848 530.821 32.8099C512.126 43.3349 522.289 60.5 503.597 71.0232C484.905 81.5463 474.738 64.383 456.043 74.9081C437.347 85.4331 447.514 102.596 428.819 113.121C410.123 123.646 399.96 106.481 381.268 117.004C362.576 127.527 372.736 144.695 354.04 155.22C335.345 165.745 325.181 148.579 306.486 159.104C287.79 169.629 297.954 186.795 279.258 197.32" stroke="white" stroke-width="0.4" stroke-miterlimit="10"/>
<path d="M502.179 -99.7567C483.487 -89.2336 473.323 -106.399 454.628 -95.8737C435.932 -85.3487 446.096 -68.1835 427.404 -57.6604C408.712 -47.1373 398.545 -64.3006 379.849 -53.7755C361.154 -43.2505 371.321 -26.0873 352.625 -15.5622C333.93 -5.03722 323.766 -22.2024 305.074 -11.6793C286.382 -1.15613 296.542 16.0109 277.847 26.5359C259.151 37.061 248.988 19.8958 230.292 30.4208C211.597 40.9459 221.76 58.111 203.065 68.636" stroke="white" stroke-width="0.4" stroke-miterlimit="10"/>
<path d="M563.147 3.21204C544.454 13.7352 534.291 -3.43 515.596 7.09502C496.9 17.62 507.064 34.7852 488.371 45.3083C469.679 55.8315 459.513 38.6682 440.817 49.1932C422.122 59.7182 432.288 76.8815 413.593 87.4065C394.898 97.9315 384.734 80.7664 366.042 91.2895C347.35 101.813 357.51 118.98 338.815 129.505C320.119 140.03 309.956 122.865 291.26 133.39C272.565 143.915 282.728 161.08 264.033 171.605" stroke="white" stroke-width="0.4" stroke-miterlimit="10"/>
<path d="M608.833 80.3732C590.141 90.8963 579.978 73.7311 561.282 84.2562C542.587 94.7812 552.75 111.946 534.058 122.469C515.366 132.993 505.199 115.829 486.504 126.354C467.808 136.879 477.975 154.043 459.28 164.568C440.584 175.093 430.421 157.928 411.729 168.451C393.036 178.974 403.197 196.141 384.501 206.666C365.806 217.191 355.642 200.026 336.947 210.551C318.251 221.076 328.415 238.241 309.719 248.766" stroke="white" stroke-width="0.4" stroke-miterlimit="10"/>
<path d="M532.652 -48.2919C513.96 -37.7687 503.796 -54.9339 485.101 -44.4089C466.406 -33.8839 476.569 -16.7187 457.877 -6.19558C439.185 4.32755 429.018 -12.8357 410.323 -2.31069C391.627 8.21433 401.794 25.3776 383.098 35.9026C364.403 46.4276 354.24 29.2625 335.547 39.7856C316.855 50.3087 327.015 67.4758 308.32 78.0008C289.624 88.5258 279.461 71.3607 260.766 81.8857C242.07 92.4107 252.234 109.576 233.538 120.101" stroke="white" stroke-width="0.4" stroke-miterlimit="10"/>
<path d="M593.607 54.6573C574.915 65.1805 564.752 48.0153 546.056 58.5403C527.361 69.0654 537.524 86.2305 518.832 96.7536C500.14 107.277 489.973 90.1135 471.278 100.639C452.582 111.164 462.749 128.327 444.054 138.852C425.358 149.377 415.195 132.212 396.503 142.735C377.811 153.258 387.971 170.425 369.275 180.95C350.58 191.475 340.416 174.31 321.721 184.835C303.025 195.36 313.189 212.525 294.493 223.05" stroke="white" stroke-width="0.4" stroke-miterlimit="10"/>
<path d="M486.929 -125.51C468.237 -114.987 458.074 -132.152 439.378 -121.627C420.683 -111.102 430.846 -93.9365 412.154 -83.4134C393.462 -72.8902 383.295 -90.0535 364.6 -79.5285C345.904 -69.0035 356.071 -51.8402 337.375 -41.3152C318.68 -30.7901 308.517 -47.9553 289.825 -37.4322C271.132 -26.9091 281.292 -9.742 262.597 0.783019C243.902 11.308 233.738 -5.85712 215.043 4.6679C196.347 15.1929 206.511 32.3581 187.815 42.8831" stroke="white" stroke-width="0.4" stroke-miterlimit="10"/>
<path d="M547.898 -22.5389C529.206 -12.0158 519.042 -29.181 500.347 -18.656C481.651 -8.13093 491.815 9.03423 473.123 19.5574C454.431 30.0805 444.264 12.9172 425.568 23.4422C406.873 33.9673 417.04 51.1305 398.344 61.6555C379.649 72.1806 369.485 55.0154 350.793 65.5385C332.101 76.0617 342.261 93.2287 323.566 103.754C304.87 114.279 294.707 97.1136 276.011 107.639C257.316 118.164 267.479 135.329 248.784 145.854" stroke="white" stroke-width="0.4" stroke-miterlimit="10"/>
<path d="M517.438 -73.9852C498.745 -63.4621 488.582 -80.6273 469.887 -70.1022C451.191 -59.5772 461.355 -42.4121 442.662 -31.8889C423.97 -21.3658 413.804 -38.5291 395.108 -28.0041C376.413 -17.479 386.579 -0.315776 367.884 10.2092C349.189 20.7343 339.025 3.5691 320.333 14.0922C301.641 24.6154 311.801 41.7824 293.106 52.3074C274.41 62.8325 264.247 45.6673 245.551 56.1923C226.856 66.7173 237.019 83.8825 218.324 94.4075" stroke="white" stroke-width="0.4" stroke-miterlimit="10"/>
<path d="M578.372 28.9269C559.68 39.45 549.517 22.2848 530.821 32.8099C512.126 43.3349 522.289 60.5 503.597 71.0232C484.905 81.5463 474.738 64.383 456.043 74.9081C437.347 85.4331 447.514 102.596 428.819 113.121C410.123 123.646 399.96 106.481 381.268 117.004C362.576 127.527 372.736 144.695 354.04 155.22C335.345 165.745 325.181 148.579 306.486 159.104C287.79 169.629 297.954 186.795 279.258 197.32" stroke="white" stroke-width="0.4" stroke-miterlimit="10"/>
<path d="M502.179 -99.7567C483.487 -89.2336 473.323 -106.399 454.628 -95.8737C435.932 -85.3487 446.096 -68.1835 427.404 -57.6604C408.712 -47.1373 398.545 -64.3006 379.849 -53.7755C361.154 -43.2505 371.321 -26.0873 352.625 -15.5622C333.93 -5.03722 323.766 -22.2024 305.074 -11.6793C286.382 -1.15613 296.542 16.0109 277.847 26.5359C259.151 37.061 248.988 19.8958 230.292 30.4208C211.597 40.9459 221.76 58.111 203.065 68.636" stroke="white" stroke-width="0.4" stroke-miterlimit="10"/>
<path d="M563.147 3.21204C544.454 13.7352 534.291 -3.43 515.596 7.09502C496.9 17.62 507.064 34.7852 488.371 45.3083C469.679 55.8315 459.513 38.6682 440.817 49.1932C422.122 59.7182 432.288 76.8815 413.593 87.4065C394.898 97.9315 384.734 80.7664 366.042 91.2895C347.35 101.813 357.51 118.98 338.815 129.505C320.119 140.03 309.956 122.865 291.26 133.39C272.565 143.915 282.728 161.08 264.033 171.605" stroke="white" stroke-width="0.4" stroke-miterlimit="10"/>
<path d="M608.833 80.3732C590.141 90.8963 579.978 73.7311 561.282 84.2562C542.587 94.7812 552.75 111.946 534.058 122.469C515.366 132.993 505.199 115.829 486.504 126.354C467.808 136.879 477.975 154.043 459.28 164.568C440.584 175.093 430.421 157.928 411.729 168.451C393.036 178.974 403.197 196.141 384.501 206.666C365.806 217.191 355.642 200.026 336.947 210.551C318.251 221.076 328.415 238.241 309.719 248.766" stroke="white" stroke-width="0.4" stroke-miterlimit="10"/>
<path d="M532.652 -48.2919C513.96 -37.7687 503.796 -54.9339 485.101 -44.4089C466.406 -33.8839 476.569 -16.7187 457.877 -6.19558C439.185 4.32755 429.018 -12.8357 410.323 -2.31069C391.627 8.21433 401.794 25.3776 383.098 35.9026C364.403 46.4276 354.24 29.2625 335.547 39.7856C316.855 50.3087 327.015 67.4758 308.32 78.0008C289.624 88.5258 279.461 71.3607 260.766 81.8857C242.07 92.4107 252.234 109.576 233.538 120.101" stroke="white" stroke-width="0.4" stroke-miterlimit="10"/>
<path d="M593.607 54.6573C574.915 65.1805 564.752 48.0153 546.056 58.5403C527.361 69.0654 537.524 86.2305 518.832 96.7536C500.14 107.277 489.973 90.1135 471.278 100.639C452.582 111.164 462.749 128.327 444.054 138.852C425.358 149.377 415.195 132.212 396.503 142.735C377.811 153.258 387.971 170.425 369.275 180.95C350.58 191.475 340.416 174.31 321.721 184.835C303.025 195.36 313.189 212.525 294.493 223.05" stroke="white" stroke-width="0.4" stroke-miterlimit="10"/>
<path d="M492.032 -116.894C473.34 -106.371 463.177 -123.536 444.481 -113.011C425.786 -102.486 435.949 -85.3212 417.257 -74.7981C398.565 -64.275 388.398 -81.4383 369.703 -70.9132C351.007 -60.3882 361.174 -43.225 342.479 -32.6999C323.783 -22.1749 313.62 -39.3401 294.928 -28.817C276.235 -18.2938 286.396 -1.12677 267.7 9.39825C249.005 19.9233 238.841 2.75811 220.146 13.2831C201.45 23.8082 211.614 40.9733 192.918 51.4983" stroke="white" stroke-width="0.4" stroke-miterlimit="10"/>
<path d="M552.977 -13.9598C534.285 -3.43671 524.122 -20.6019 505.426 -10.0769C486.731 0.448168 496.894 17.6133 478.202 28.1365C459.51 38.6596 449.343 21.4963 430.648 32.0213C411.953 42.5464 422.119 59.7096 403.424 70.2346C384.728 80.7597 374.565 63.5945 355.873 74.1176C337.181 84.6408 347.341 101.808 328.645 112.333C309.95 122.858 299.786 105.693 281.091 116.218C262.396 126.743 272.559 143.908 253.864 154.433" stroke="white" stroke-width="0.4" stroke-miterlimit="10"/>
<path d="M522.493 -65.4471C503.801 -54.924 493.638 -72.0892 474.943 -61.5642C456.247 -51.0391 466.41 -33.874 447.718 -23.3509C429.026 -12.8277 418.86 -29.991 400.164 -19.466C381.469 -8.94094 391.635 8.22232 372.94 18.7473C354.244 29.2724 344.081 12.1072 325.389 22.6303C306.697 33.1535 316.857 50.3205 298.161 60.8455C279.466 71.3706 269.303 54.2054 250.607 64.7304C231.912 75.2554 242.075 92.4206 223.38 102.946" stroke="white" stroke-width="0.4" stroke-miterlimit="10"/>
<path d="M583.451 37.505C564.759 48.0281 554.596 30.863 535.9 41.388C517.205 51.913 527.368 69.0782 508.676 79.6013C489.984 90.1244 479.817 72.9612 461.122 83.4862C442.426 94.0112 452.593 111.174 433.897 121.699C415.202 132.225 405.039 115.059 386.347 125.582C367.654 136.106 377.814 153.273 359.119 163.798C340.424 174.323 330.26 157.158 311.565 167.683C292.869 178.208 303.033 195.373 284.337 205.898" stroke="white" stroke-width="0.4" stroke-miterlimit="10"/>
<path d="M507.268 -91.1591C488.576 -80.6359 478.413 -97.8011 459.717 -87.2761C441.022 -76.7511 451.185 -59.5859 432.493 -49.0628C413.801 -38.5396 403.634 -55.7029 384.939 -45.1779C366.244 -34.6529 376.41 -17.4896 357.715 -6.96458C339.019 3.56044 328.856 -13.6047 310.164 -3.0816C291.472 7.44152 301.632 24.6086 282.936 35.1336C264.241 45.6586 254.077 28.4935 235.382 39.0185C216.687 49.5435 226.85 66.7087 208.155 77.2337" stroke="white" stroke-width="0.4" stroke-miterlimit="10"/>
<path d="M568.202 11.7501C549.51 22.2732 539.347 5.10808 520.652 15.6331C501.956 26.1581 512.119 43.3233 493.427 53.8464C474.735 64.3695 464.569 47.2063 445.873 57.7313C427.178 68.2563 437.344 85.4196 418.649 95.9446C399.953 106.47 389.79 89.3045 371.098 99.8276C352.406 110.351 362.566 127.518 343.87 138.043C325.175 148.568 315.012 131.403 296.316 141.928C277.621 152.453 287.784 169.618 269.089 180.143" stroke="white" stroke-width="0.4" stroke-miterlimit="10"/>
<path d="M537.73 -39.7147C519.038 -29.1916 508.875 -46.3568 490.179 -35.8317C471.484 -25.3067 481.647 -8.14155 462.955 2.38157C444.263 12.9047 434.096 -4.25857 415.401 6.26646C396.705 16.7915 406.872 33.9547 388.177 44.4798C369.481 55.0048 359.318 37.8396 340.626 48.3627C321.934 58.8859 332.094 76.0529 313.398 86.578C294.703 97.103 284.539 79.9378 265.844 90.4628C247.149 100.988 257.312 118.153 238.616 128.678" stroke="white" stroke-width="0.4" stroke-miterlimit="10"/>
<path d="M598.687 63.2384C579.995 73.7615 569.832 56.5964 551.136 67.1214C532.441 77.6464 542.604 94.8116 523.912 105.335C505.22 115.858 495.053 98.6946 476.358 109.22C457.662 119.745 467.829 136.908 449.134 147.433C430.438 157.958 420.275 140.793 401.583 151.316C382.891 161.839 393.051 179.006 374.355 189.531C355.66 200.056 345.496 182.891 326.801 193.416C308.106 203.941 318.269 221.106 299.573 231.631" stroke="white" stroke-width="0.4" stroke-miterlimit="10"/>
<path d="M481.88 -134.033C463.188 -123.51 453.025 -140.675 434.329 -130.15C415.634 -119.625 425.797 -102.46 407.105 -91.9368C388.413 -81.4137 378.246 -98.5769 359.551 -88.0519C340.855 -77.5269 351.022 -60.3636 332.327 -49.8386C313.631 -39.3136 303.468 -56.4787 284.776 -45.9556C266.084 -35.4325 276.244 -18.2654 257.548 -7.74042C238.853 2.7846 228.689 -14.3806 209.994 -3.85554C191.298 6.66948 201.462 23.8346 182.766 34.3597" stroke="white" stroke-width="0.4" stroke-miterlimit="10"/>
<path d="M476.277 -143.498C457.585 -132.975 447.422 -150.14 428.726 -139.615C410.031 -129.09 420.194 -111.925 401.502 -101.402C382.81 -90.8785 372.643 -108.042 353.948 -97.5168C335.252 -86.9917 345.419 -69.8285 326.724 -59.3034C308.028 -48.7784 297.865 -65.9436 279.173 -55.4205C260.481 -44.8973 270.641 -27.7303 251.945 -17.2053C233.25 -6.68024 223.086 -23.8454 204.391 -13.3204C185.695 -2.79536 195.859 14.3698 177.163 24.8948" stroke="white" stroke-width="0.4" stroke-miterlimit="10"/>
<path d="M486.929 -125.51C468.237 -114.987 458.074 -132.152 439.378 -121.627C420.683 -111.102 430.846 -93.9365 412.154 -83.4134C393.462 -72.8902 383.295 -90.0535 364.6 -79.5285C345.904 -69.0035 356.071 -51.8402 337.375 -41.3152C318.68 -30.7901 308.517 -47.9553 289.825 -37.4322C271.132 -26.9091 281.292 -9.742 262.597 0.783019C243.902 11.308 233.738 -5.85712 215.043 4.6679C196.347 15.1929 206.511 32.3581 187.815 42.8831" stroke="white" stroke-width="0.4" stroke-miterlimit="10"/>
</g>
</g>
<defs>
<clipPath id="clip0_195_10615">
<rect width="303" height="406" fill="white"/>
</clipPath>
</defs>
</svg>
