<svg width="11" height="12" viewBox="0 0 11 12" fill="none" xmlns="http://www.w3.org/2000/svg">
<path d="M5.64936 1.0893L5.64918 1.08898C5.58439 0.970339 5.4143 0.970339 5.34951 1.08898L5.34942 1.08915C4.25075 3.09904 2.59791 4.75092 0.588327 5.85031L0.588006 5.85049C0.469363 5.91528 0.469363 6.08537 0.588006 6.15016L0.588327 6.15034C2.598 7.24979 4.24989 8.90168 5.34934 10.9114L5.34951 10.9117C5.41431 11.0303 5.58439 11.0303 5.64918 10.9117L5.64927 10.9115C6.74794 8.90161 8.40078 7.24974 10.4104 6.15034L5.64936 1.0893ZM5.64936 1.0893C6.74872 3.09883 8.40053 4.75163 10.4103 5.8503L5.64936 1.0893Z" stroke="#F4B348"/>
</svg>
