<svg width="343" height="277" viewBox="0 0 343 277" fill="none" xmlns="http://www.w3.org/2000/svg">
<rect width="314" height="71" rx="35.5" fill="#141414"/>
<rect width="314" height="71" rx="35.5" fill="url(#paint0_linear_77_4340)"/>
<rect x="16" y="12" width="47" height="47" rx="23.5" fill="white" fill-opacity="0.08"/>
<path d="M48.5 28.75H30.5C30.0858 28.75 29.75 29.0858 29.75 29.5V41.5C29.75 41.9142 30.0858 42.25 30.5 42.25H48.5C48.9142 42.25 49.25 41.9142 49.25 41.5V29.5C49.25 29.0858 48.9142 28.75 48.5 28.75Z" stroke="url(#paint1_linear_77_4340)" stroke-linecap="round" stroke-linejoin="round"/>
<path d="M43.25 39.25H46.25" stroke="url(#paint2_linear_77_4340)" stroke-linecap="round" stroke-linejoin="round"/>
<path d="M38.75 39.25H40.25" stroke="url(#paint3_linear_77_4340)" stroke-linecap="round" stroke-linejoin="round"/>
<path d="M29.75 32.584H49.25" stroke="url(#paint4_linear_77_4340)" stroke-linecap="round" stroke-linejoin="round"/>
<path d="M78.85 40.64C78.0847 40.64 77.4313 40.5 76.89 40.22C76.3487 39.94 75.868 39.534 75.448 39.002L76.344 38.106C76.652 38.5353 77.0067 38.862 77.408 39.086C77.8093 39.3007 78.304 39.408 78.892 39.408C79.4707 39.408 79.9327 39.282 80.278 39.03C80.6327 38.778 80.81 38.4327 80.81 37.994C80.81 37.63 80.726 37.336 80.558 37.112C80.39 36.888 80.1613 36.706 79.872 36.566C79.592 36.4167 79.284 36.286 78.948 36.174C78.612 36.0527 78.276 35.9267 77.94 35.796C77.604 35.656 77.296 35.488 77.016 35.292C76.736 35.0867 76.5073 34.8207 76.33 34.494C76.162 34.1673 76.078 33.7567 76.078 33.262C76.078 32.7113 76.2087 32.2447 76.47 31.862C76.7407 31.47 77.1047 31.1713 77.562 30.966C78.0287 30.7513 78.5513 30.644 79.13 30.644C79.7647 30.644 80.334 30.77 80.838 31.022C81.342 31.2647 81.7527 31.5867 82.07 31.988L81.174 32.884C80.8847 32.548 80.572 32.296 80.236 32.128C79.9093 31.96 79.5313 31.876 79.102 31.876C78.5793 31.876 78.164 31.9927 77.856 32.226C77.548 32.45 77.394 32.7673 77.394 33.178C77.394 33.5047 77.478 33.7707 77.646 33.976C77.8233 34.172 78.052 34.34 78.332 34.48C78.612 34.62 78.92 34.7507 79.256 34.872C79.6013 34.984 79.942 35.11 80.278 35.25C80.614 35.39 80.922 35.5673 81.202 35.782C81.482 35.9967 81.706 36.2767 81.874 36.622C82.0513 36.958 82.14 37.3827 82.14 37.896C82.14 38.7547 81.8413 39.4267 81.244 39.912C80.656 40.3973 79.858 40.64 78.85 40.64ZM83.7036 40.5V33.85H84.9636V40.5H83.7036ZM84.3336 32.52C84.1003 32.52 83.909 32.4453 83.7596 32.296C83.6103 32.1373 83.5356 31.9413 83.5356 31.708C83.5356 31.484 83.6103 31.2973 83.7596 31.148C83.909 30.9893 84.1003 30.91 84.3336 30.91C84.567 30.91 84.7583 30.9893 84.9076 31.148C85.057 31.2973 85.1316 31.484 85.1316 31.708C85.1316 31.9413 85.057 32.1373 84.9076 32.296C84.7583 32.4453 84.567 32.52 84.3336 32.52ZM86.8205 40.5V33.85H88.0805V40.5H86.8205ZM91.3145 40.5V36.482C91.3145 35.9873 91.1605 35.6 90.8525 35.32C90.5538 35.0307 90.1758 34.886 89.7185 34.886C89.4105 34.886 89.1352 34.9513 88.8925 35.082C88.6498 35.2127 88.4538 35.3947 88.3045 35.628C88.1552 35.8613 88.0805 36.1413 88.0805 36.468L87.5625 36.216C87.5625 35.712 87.6698 35.2733 87.8845 34.9C88.1085 34.5267 88.4118 34.2373 88.7945 34.032C89.1772 33.8173 89.6065 33.71 90.0825 33.71C90.5492 33.71 90.9692 33.8127 91.3425 34.018C91.7252 34.2233 92.0238 34.5127 92.2385 34.886C92.4625 35.2593 92.5745 35.7027 92.5745 36.216V40.5H91.3145ZM95.8085 40.5V36.482C95.8085 35.9873 95.6545 35.6 95.3465 35.32C95.0478 35.0307 94.6745 34.886 94.2265 34.886C93.9185 34.886 93.6385 34.9513 93.3865 35.082C93.1438 35.2127 92.9478 35.3947 92.7985 35.628C92.6492 35.8613 92.5745 36.1413 92.5745 36.468L91.8605 36.216C91.8885 35.7027 92.0238 35.264 92.2665 34.9C92.5185 34.5267 92.8405 34.2373 93.2325 34.032C93.6245 33.8173 94.0538 33.71 94.5205 33.71C95.0058 33.71 95.4398 33.8127 95.8225 34.018C96.2052 34.2233 96.5085 34.5127 96.7325 34.886C96.9658 35.2593 97.0825 35.7073 97.0825 36.23V40.5H95.8085ZM102.297 40.64C101.793 40.64 101.336 40.5373 100.925 40.332C100.524 40.1173 100.202 39.8233 99.959 39.45C99.7164 39.0767 99.581 38.652 99.553 38.176V36.174C99.581 35.6887 99.7164 35.264 99.959 34.9C100.211 34.5267 100.538 34.2373 100.939 34.032C101.35 33.8173 101.802 33.71 102.297 33.71C102.904 33.71 103.45 33.864 103.935 34.172C104.43 34.48 104.817 34.8953 105.097 35.418C105.377 35.9407 105.517 36.5287 105.517 37.182C105.517 37.8353 105.377 38.4233 105.097 38.946C104.817 39.4687 104.43 39.884 103.935 40.192C103.45 40.4907 102.904 40.64 102.297 40.64ZM102.087 39.45C102.507 39.45 102.876 39.352 103.193 39.156C103.51 38.96 103.762 38.694 103.949 38.358C104.136 38.0127 104.229 37.616 104.229 37.168C104.229 36.7293 104.136 36.3373 103.949 35.992C103.762 35.6467 103.51 35.3807 103.193 35.194C102.876 34.998 102.512 34.9 102.101 34.9C101.681 34.9 101.312 34.998 100.995 35.194C100.678 35.3807 100.43 35.6467 100.253 35.992C100.076 36.3373 99.987 36.734 99.987 37.182C99.987 37.6207 100.071 38.0127 100.239 38.358C100.416 38.694 100.664 38.96 100.981 39.156C101.308 39.352 101.676 39.45 102.087 39.45ZM98.797 43.286V33.85H100.057V35.6L99.819 37.21L100.057 38.834V43.286H98.797ZM106.945 40.5V30.504H108.205V40.5H106.945ZM110.063 40.5V33.85H111.323V40.5H110.063ZM110.693 32.52C110.46 32.52 110.268 32.4453 110.119 32.296C109.97 32.1373 109.895 31.9413 109.895 31.708C109.895 31.484 109.97 31.2973 110.119 31.148C110.268 30.9893 110.46 30.91 110.693 30.91C110.926 30.91 111.118 30.9893 111.267 31.148C111.416 31.2973 111.491 31.484 111.491 31.708C111.491 31.9413 111.416 32.1373 111.267 32.296C111.118 32.4453 110.926 32.52 110.693 32.52ZM114.132 40.5V32.646C114.132 32.2073 114.225 31.82 114.412 31.484C114.608 31.1387 114.879 30.868 115.224 30.672C115.569 30.4667 115.966 30.364 116.414 30.364C116.759 30.364 117.063 30.4247 117.324 30.546C117.585 30.658 117.828 30.8167 118.052 31.022L117.226 31.848C117.105 31.7453 116.979 31.6707 116.848 31.624C116.717 31.568 116.573 31.54 116.414 31.54C116.087 31.54 115.835 31.6427 115.658 31.848C115.481 32.044 115.392 32.31 115.392 32.646V40.5H114.132ZM112.494 34.998V33.85H118.808V34.998H112.494ZM118.08 40.5V33.85H119.354V40.5H118.08ZM118.71 33.15C118.486 33.15 118.299 33.0753 118.15 32.926C118.001 32.7673 117.926 32.5713 117.926 32.338C117.926 32.114 118.001 31.9273 118.15 31.778C118.299 31.6193 118.486 31.54 118.71 31.54C118.953 31.54 119.144 31.6193 119.284 31.778C119.433 31.9273 119.508 32.114 119.508 32.338C119.508 32.5713 119.433 32.7673 119.284 32.926C119.144 33.0753 118.953 33.15 118.71 33.15ZM124.285 40.64C123.623 40.64 123.025 40.4907 122.493 40.192C121.961 39.884 121.541 39.4687 121.233 38.946C120.925 38.4233 120.771 37.8307 120.771 37.168C120.771 36.5147 120.921 35.9267 121.219 35.404C121.527 34.8813 121.938 34.4707 122.451 34.172C122.974 33.864 123.557 33.71 124.201 33.71C124.817 33.71 125.359 33.85 125.825 34.13C126.301 34.41 126.67 34.7973 126.931 35.292C127.202 35.7867 127.337 36.3467 127.337 36.972C127.337 37.0653 127.333 37.168 127.323 37.28C127.314 37.3827 127.295 37.504 127.267 37.644H121.653V36.594H126.595L126.133 37C126.133 36.552 126.054 36.174 125.895 35.866C125.737 35.5487 125.513 35.306 125.223 35.138C124.934 34.9607 124.584 34.872 124.173 34.872C123.744 34.872 123.366 34.9653 123.039 35.152C122.713 35.3387 122.461 35.6 122.283 35.936C122.106 36.272 122.017 36.6687 122.017 37.126C122.017 37.5927 122.111 38.0033 122.297 38.358C122.484 38.7033 122.75 38.974 123.095 39.17C123.441 39.3567 123.837 39.45 124.285 39.45C124.659 39.45 124.999 39.3847 125.307 39.254C125.625 39.1233 125.895 38.9273 126.119 38.666L126.931 39.492C126.614 39.8653 126.222 40.15 125.755 40.346C125.298 40.542 124.808 40.64 124.285 40.64ZM131.525 40.64C130.909 40.64 130.358 40.4907 129.873 40.192C129.388 39.884 129 39.4687 128.711 38.946C128.431 38.4233 128.291 37.8353 128.291 37.182C128.291 36.5287 128.431 35.9407 128.711 35.418C129 34.8953 129.388 34.48 129.873 34.172C130.358 33.864 130.909 33.71 131.525 33.71C132.02 33.71 132.468 33.8173 132.869 34.032C133.27 34.2373 133.592 34.5267 133.835 34.9C134.087 35.264 134.227 35.6887 134.255 36.174V38.176C134.227 38.652 134.092 39.0767 133.849 39.45C133.606 39.8233 133.284 40.1173 132.883 40.332C132.482 40.5373 132.029 40.64 131.525 40.64ZM131.735 39.45C132.155 39.45 132.519 39.352 132.827 39.156C133.144 38.96 133.392 38.694 133.569 38.358C133.746 38.0127 133.835 37.6207 133.835 37.182C133.835 36.7247 133.742 36.328 133.555 35.992C133.378 35.656 133.13 35.39 132.813 35.194C132.505 34.998 132.141 34.9 131.721 34.9C131.301 34.9 130.932 34.998 130.615 35.194C130.298 35.39 130.046 35.6607 129.859 36.006C129.682 36.342 129.593 36.7293 129.593 37.168C129.593 37.616 129.682 38.0127 129.859 38.358C130.046 38.694 130.298 38.96 130.615 39.156C130.942 39.352 131.315 39.45 131.735 39.45ZM135.025 40.5H133.751V38.708L133.989 37.084L133.751 35.474V30.504H135.025V40.5ZM140.878 40.5V39.352H143.818C144.378 39.352 144.816 39.1887 145.134 38.862C145.451 38.526 145.61 38.1247 145.61 37.658C145.61 37.3407 145.54 37.056 145.4 36.804C145.26 36.5427 145.054 36.3373 144.784 36.188C144.522 36.0387 144.214 35.964 143.86 35.964H140.878V34.816H143.664C144.13 34.816 144.499 34.6947 144.77 34.452C145.05 34.2 145.19 33.8407 145.19 33.374C145.19 32.9073 145.045 32.5527 144.756 32.31C144.466 32.058 144.084 31.932 143.608 31.932H140.878V30.784H143.636C144.27 30.784 144.798 30.9007 145.218 31.134C145.647 31.358 145.969 31.6567 146.184 32.03C146.408 32.4033 146.52 32.814 146.52 33.262C146.52 33.7847 146.375 34.242 146.086 34.634C145.806 35.026 145.39 35.334 144.84 35.558L144.952 35.138C145.577 35.362 146.062 35.7027 146.408 36.16C146.762 36.608 146.94 37.14 146.94 37.756C146.94 38.2693 146.814 38.7313 146.562 39.142C146.31 39.5527 145.946 39.884 145.47 40.136C145.003 40.3787 144.429 40.5 143.748 40.5H140.878ZM139.996 40.5V30.784H141.312V40.5H139.996ZM148.508 40.5V33.85H149.768V40.5H148.508ZM149.138 32.52C148.905 32.52 148.714 32.4453 148.564 32.296C148.415 32.1373 148.34 31.9413 148.34 31.708C148.34 31.484 148.415 31.2973 148.564 31.148C148.714 30.9893 148.905 30.91 149.138 30.91C149.372 30.91 149.563 30.9893 149.712 31.148C149.862 31.2973 149.936 31.484 149.936 31.708C149.936 31.9413 149.862 32.1373 149.712 32.296C149.563 32.4453 149.372 32.52 149.138 32.52ZM151.625 40.5V30.504H152.885V40.5H151.625ZM154.729 40.5V30.504H155.989V40.5H154.729ZM161.85 36.72V35.572H164.496C164.86 35.572 165.182 35.4973 165.462 35.348C165.752 35.1987 165.976 34.9887 166.134 34.718C166.302 34.4473 166.386 34.1253 166.386 33.752C166.386 33.3787 166.302 33.0567 166.134 32.786C165.976 32.5153 165.752 32.3053 165.462 32.156C165.182 32.0067 164.86 31.932 164.496 31.932H161.85V30.784H164.58C165.178 30.784 165.71 30.9053 166.176 31.148C166.652 31.3907 167.026 31.736 167.296 32.184C167.576 32.6227 167.716 33.1453 167.716 33.752C167.716 34.3493 167.576 34.872 167.296 35.32C167.026 35.7587 166.652 36.104 166.176 36.356C165.71 36.5987 165.178 36.72 164.58 36.72H161.85ZM160.968 40.5V30.784H162.284V40.5H160.968ZM171.68 40.64C171.073 40.64 170.522 40.4907 170.028 40.192C169.533 39.884 169.141 39.4687 168.852 38.946C168.572 38.4233 168.432 37.8353 168.432 37.182C168.432 36.5287 168.572 35.9407 168.852 35.418C169.141 34.8953 169.528 34.48 170.014 34.172C170.508 33.864 171.064 33.71 171.68 33.71C172.184 33.71 172.632 33.8173 173.024 34.032C173.425 34.2373 173.747 34.5267 173.99 34.9C174.232 35.264 174.368 35.6887 174.396 36.174V38.176C174.368 38.652 174.232 39.0767 173.99 39.45C173.756 39.8233 173.439 40.1173 173.038 40.332C172.646 40.5373 172.193 40.64 171.68 40.64ZM171.89 39.45C172.515 39.45 173.019 39.24 173.402 38.82C173.784 38.3907 173.976 37.8447 173.976 37.182C173.976 36.7247 173.887 36.328 173.71 35.992C173.542 35.6467 173.299 35.3807 172.982 35.194C172.664 34.998 172.296 34.9 171.876 34.9C171.456 34.9 171.082 34.998 170.756 35.194C170.438 35.39 170.186 35.6607 170 36.006C169.822 36.342 169.734 36.7293 169.734 37.168C169.734 37.616 169.822 38.0127 170 38.358C170.186 38.694 170.443 38.96 170.77 39.156C171.096 39.352 171.47 39.45 171.89 39.45ZM173.892 40.5V38.708L174.13 37.084L173.892 35.474V33.85H175.166V40.5H173.892ZM179.184 40.556L176.3 33.85H177.7L179.842 39.1H179.394L181.648 33.85H183.048L179.94 40.556H179.184ZM177.28 43.286L179.24 39.268L179.94 40.556L178.68 43.286H177.28ZM184.028 40.5V33.85H185.288V40.5H184.028ZM188.522 40.5V36.482C188.522 35.9873 188.368 35.6 188.06 35.32C187.761 35.0307 187.383 34.886 186.926 34.886C186.618 34.886 186.342 34.9513 186.1 35.082C185.857 35.2127 185.661 35.3947 185.512 35.628C185.362 35.8613 185.288 36.1413 185.288 36.468L184.77 36.216C184.77 35.712 184.877 35.2733 185.092 34.9C185.316 34.5267 185.619 34.2373 186.002 34.032C186.384 33.8173 186.814 33.71 187.29 33.71C187.756 33.71 188.176 33.8127 188.55 34.018C188.932 34.2233 189.231 34.5127 189.446 34.886C189.67 35.2593 189.782 35.7027 189.782 36.216V40.5H188.522ZM193.016 40.5V36.482C193.016 35.9873 192.862 35.6 192.554 35.32C192.255 35.0307 191.882 34.886 191.434 34.886C191.126 34.886 190.846 34.9513 190.594 35.082C190.351 35.2127 190.155 35.3947 190.006 35.628C189.856 35.8613 189.782 36.1413 189.782 36.468L189.068 36.216C189.096 35.7027 189.231 35.264 189.474 34.9C189.726 34.5267 190.048 34.2373 190.44 34.032C190.832 33.8173 191.261 33.71 191.728 33.71C192.213 33.71 192.647 33.8127 193.03 34.018C193.412 34.2233 193.716 34.5127 193.94 34.886C194.173 35.2593 194.29 35.7073 194.29 36.23V40.5H193.016ZM199.084 40.64C198.421 40.64 197.824 40.4907 197.292 40.192C196.76 39.884 196.34 39.4687 196.032 38.946C195.724 38.4233 195.57 37.8307 195.57 37.168C195.57 36.5147 195.719 35.9267 196.018 35.404C196.326 34.8813 196.737 34.4707 197.25 34.172C197.773 33.864 198.356 33.71 199 33.71C199.616 33.71 200.157 33.85 200.624 34.13C201.1 34.41 201.469 34.7973 201.73 35.292C202.001 35.7867 202.136 36.3467 202.136 36.972C202.136 37.0653 202.131 37.168 202.122 37.28C202.113 37.3827 202.094 37.504 202.066 37.644H196.452V36.594H201.394L200.932 37C200.932 36.552 200.853 36.174 200.694 35.866C200.535 35.5487 200.311 35.306 200.022 35.138C199.733 34.9607 199.383 34.872 198.972 34.872C198.543 34.872 198.165 34.9653 197.838 35.152C197.511 35.3387 197.259 35.6 197.082 35.936C196.905 36.272 196.816 36.6687 196.816 37.126C196.816 37.5927 196.909 38.0033 197.096 38.358C197.283 38.7033 197.549 38.974 197.894 39.17C198.239 39.3567 198.636 39.45 199.084 39.45C199.457 39.45 199.798 39.3847 200.106 39.254C200.423 39.1233 200.694 38.9273 200.918 38.666L201.73 39.492C201.413 39.8653 201.021 40.15 200.554 40.346C200.097 40.542 199.607 40.64 199.084 40.64ZM208.214 40.5V36.622C208.214 36.118 208.055 35.7027 207.738 35.376C207.421 35.0493 207.01 34.886 206.506 34.886C206.17 34.886 205.871 34.9607 205.61 35.11C205.349 35.2593 205.143 35.4647 204.994 35.726C204.845 35.9873 204.77 36.286 204.77 36.622L204.252 36.328C204.252 35.824 204.364 35.376 204.588 34.984C204.812 34.592 205.125 34.284 205.526 34.06C205.927 33.8267 206.38 33.71 206.884 33.71C207.388 33.71 207.831 33.836 208.214 34.088C208.606 34.34 208.914 34.6713 209.138 35.082C209.362 35.4833 209.474 35.9127 209.474 36.37V40.5H208.214ZM203.51 40.5V33.85H204.77V40.5H203.51ZM212.12 40.5V31.064H213.38V40.5H212.12ZM210.482 34.998V33.85H215.018V34.998H210.482ZM218.229 40.64C217.856 40.64 217.501 40.5933 217.165 40.5C216.839 40.3973 216.535 40.2573 216.255 40.08C215.975 39.8933 215.733 39.674 215.527 39.422L216.339 38.61C216.582 38.9087 216.862 39.1327 217.179 39.282C217.497 39.422 217.851 39.492 218.243 39.492C218.635 39.492 218.939 39.4267 219.153 39.296C219.368 39.156 219.475 38.9647 219.475 38.722C219.475 38.4793 219.387 38.2927 219.209 38.162C219.041 38.022 218.822 37.91 218.551 37.826C218.281 37.7327 217.991 37.644 217.683 37.56C217.385 37.4667 217.1 37.35 216.829 37.21C216.559 37.07 216.335 36.8787 216.157 36.636C215.989 36.3933 215.905 36.0713 215.905 35.67C215.905 35.2687 216.003 34.9233 216.199 34.634C216.395 34.3353 216.666 34.1067 217.011 33.948C217.366 33.7893 217.791 33.71 218.285 33.71C218.808 33.71 219.27 33.8033 219.671 33.99C220.082 34.1673 220.418 34.438 220.679 34.802L219.867 35.614C219.681 35.3713 219.447 35.1847 219.167 35.054C218.897 34.9233 218.589 34.858 218.243 34.858C217.879 34.858 217.599 34.9233 217.403 35.054C217.217 35.1753 217.123 35.348 217.123 35.572C217.123 35.796 217.207 35.9687 217.375 36.09C217.543 36.2113 217.763 36.314 218.033 36.398C218.313 36.482 218.603 36.5707 218.901 36.664C219.2 36.748 219.485 36.8647 219.755 37.014C220.026 37.1633 220.245 37.364 220.413 37.616C220.591 37.868 220.679 38.1993 220.679 38.61C220.679 39.2353 220.455 39.73 220.007 40.094C219.569 40.458 218.976 40.64 218.229 40.64Z" fill="#F5F5F5"/>
<rect x="29" y="103" width="314" height="71" rx="35.5" fill="#141414"/>
<rect x="29" y="103" width="314" height="71" rx="35.5" fill="url(#paint5_linear_77_4340)"/>
<rect x="45" y="115" width="47" height="47" rx="23.5" fill="white" fill-opacity="0.08"/>
<path d="M77.875 146H59.125" stroke="url(#paint6_linear_77_4340)" stroke-linecap="round" stroke-linejoin="round"/>
<path d="M65.875 146V134.75H71.125" stroke="url(#paint7_linear_77_4340)" stroke-linecap="round" stroke-linejoin="round"/>
<path d="M76.375 130.25H71.125V146H76.375V130.25Z" stroke="url(#paint8_linear_77_4340)" stroke-linecap="round" stroke-linejoin="round"/>
<path d="M60.625 146V139.25H65.875" stroke="url(#paint9_linear_77_4340)" stroke-linecap="round" stroke-linejoin="round"/>
<path d="M106.03 143.5V142.352H108.97C109.53 142.352 109.969 142.189 110.286 141.862C110.603 141.526 110.762 141.125 110.762 140.658C110.762 140.341 110.692 140.056 110.552 139.804C110.412 139.543 110.207 139.337 109.936 139.188C109.675 139.039 109.367 138.964 109.012 138.964H106.03V137.816H108.816C109.283 137.816 109.651 137.695 109.922 137.452C110.202 137.2 110.342 136.841 110.342 136.374C110.342 135.907 110.197 135.553 109.908 135.31C109.619 135.058 109.236 134.932 108.76 134.932H106.03V133.784H108.788C109.423 133.784 109.95 133.901 110.37 134.134C110.799 134.358 111.121 134.657 111.336 135.03C111.56 135.403 111.672 135.814 111.672 136.262C111.672 136.785 111.527 137.242 111.238 137.634C110.958 138.026 110.543 138.334 109.992 138.558L110.104 138.138C110.729 138.362 111.215 138.703 111.56 139.16C111.915 139.608 112.092 140.14 112.092 140.756C112.092 141.269 111.966 141.731 111.714 142.142C111.462 142.553 111.098 142.884 110.622 143.136C110.155 143.379 109.581 143.5 108.9 143.5H106.03ZM105.148 143.5V133.784H106.464V143.5H105.148ZM116.727 143.64C116.064 143.64 115.467 143.491 114.935 143.192C114.403 142.884 113.983 142.469 113.675 141.946C113.367 141.423 113.213 140.831 113.213 140.168C113.213 139.515 113.362 138.927 113.661 138.404C113.969 137.881 114.379 137.471 114.893 137.172C115.415 136.864 115.999 136.71 116.643 136.71C117.259 136.71 117.8 136.85 118.267 137.13C118.743 137.41 119.111 137.797 119.373 138.292C119.643 138.787 119.779 139.347 119.779 139.972C119.779 140.065 119.774 140.168 119.765 140.28C119.755 140.383 119.737 140.504 119.709 140.644H114.095V139.594H119.037L118.575 140C118.575 139.552 118.495 139.174 118.337 138.866C118.178 138.549 117.954 138.306 117.665 138.138C117.375 137.961 117.025 137.872 116.615 137.872C116.185 137.872 115.807 137.965 115.481 138.152C115.154 138.339 114.902 138.6 114.725 138.936C114.547 139.272 114.459 139.669 114.459 140.126C114.459 140.593 114.552 141.003 114.739 141.358C114.925 141.703 115.191 141.974 115.537 142.17C115.882 142.357 116.279 142.45 116.727 142.45C117.1 142.45 117.441 142.385 117.749 142.254C118.066 142.123 118.337 141.927 118.561 141.666L119.373 142.492C119.055 142.865 118.663 143.15 118.197 143.346C117.739 143.542 117.249 143.64 116.727 143.64ZM122.175 143.5V134.064H123.435V143.5H122.175ZM120.537 137.998V136.85H129.035V137.998H120.537ZM126.137 143.5V134.064H127.397V143.5H126.137ZM133.147 143.64C132.484 143.64 131.887 143.491 131.355 143.192C130.823 142.884 130.403 142.469 130.095 141.946C129.787 141.423 129.633 140.831 129.633 140.168C129.633 139.515 129.782 138.927 130.081 138.404C130.389 137.881 130.799 137.471 131.313 137.172C131.835 136.864 132.419 136.71 133.063 136.71C133.679 136.71 134.22 136.85 134.687 137.13C135.163 137.41 135.531 137.797 135.793 138.292C136.063 138.787 136.199 139.347 136.199 139.972C136.199 140.065 136.194 140.168 136.185 140.28C136.175 140.383 136.157 140.504 136.129 140.644H130.515V139.594H135.457L134.995 140C134.995 139.552 134.915 139.174 134.757 138.866C134.598 138.549 134.374 138.306 134.085 138.138C133.795 137.961 133.445 137.872 133.035 137.872C132.605 137.872 132.227 137.965 131.901 138.152C131.574 138.339 131.322 138.6 131.145 138.936C130.967 139.272 130.879 139.669 130.879 140.126C130.879 140.593 130.972 141.003 131.159 141.358C131.345 141.703 131.611 141.974 131.957 142.17C132.302 142.357 132.699 142.45 133.147 142.45C133.52 142.45 133.861 142.385 134.169 142.254C134.486 142.123 134.757 141.927 134.981 141.666L135.793 142.492C135.475 142.865 135.083 143.15 134.617 143.346C134.159 143.542 133.669 143.64 133.147 143.64ZM137.572 143.5V136.85H138.832V143.5H137.572ZM138.832 139.706L138.356 139.496C138.356 138.647 138.552 137.97 138.944 137.466C139.336 136.962 139.901 136.71 140.638 136.71C140.974 136.71 141.278 136.771 141.548 136.892C141.819 137.004 142.071 137.195 142.304 137.466L141.478 138.32C141.338 138.171 141.184 138.063 141.016 137.998C140.848 137.933 140.652 137.9 140.428 137.9C139.962 137.9 139.579 138.049 139.28 138.348C138.982 138.647 138.832 139.099 138.832 139.706ZM146.364 143.5V136.85H147.624V143.5H146.364ZM146.994 135.52C146.76 135.52 146.569 135.445 146.42 135.296C146.27 135.137 146.196 134.941 146.196 134.708C146.196 134.484 146.27 134.297 146.42 134.148C146.569 133.989 146.76 133.91 146.994 133.91C147.227 133.91 147.418 133.989 147.568 134.148C147.717 134.297 147.792 134.484 147.792 134.708C147.792 134.941 147.717 135.137 147.568 135.296C147.418 135.445 147.227 135.52 146.994 135.52ZM154.185 143.5V139.622C154.185 139.118 154.026 138.703 153.709 138.376C153.391 138.049 152.981 137.886 152.477 137.886C152.141 137.886 151.842 137.961 151.581 138.11C151.319 138.259 151.114 138.465 150.965 138.726C150.815 138.987 150.741 139.286 150.741 139.622L150.223 139.328C150.223 138.824 150.335 138.376 150.559 137.984C150.783 137.592 151.095 137.284 151.497 137.06C151.898 136.827 152.351 136.71 152.855 136.71C153.359 136.71 153.802 136.836 154.185 137.088C154.577 137.34 154.885 137.671 155.109 138.082C155.333 138.483 155.445 138.913 155.445 139.37V143.5H154.185ZM149.481 143.5V136.85H150.741V143.5H149.481ZM159.265 143.64C158.891 143.64 158.537 143.593 158.201 143.5C157.874 143.397 157.571 143.257 157.291 143.08C157.011 142.893 156.768 142.674 156.563 142.422L157.375 141.61C157.617 141.909 157.897 142.133 158.215 142.282C158.532 142.422 158.887 142.492 159.279 142.492C159.671 142.492 159.974 142.427 160.189 142.296C160.403 142.156 160.511 141.965 160.511 141.722C160.511 141.479 160.422 141.293 160.245 141.162C160.077 141.022 159.857 140.91 159.587 140.826C159.316 140.733 159.027 140.644 158.719 140.56C158.42 140.467 158.135 140.35 157.865 140.21C157.594 140.07 157.37 139.879 157.193 139.636C157.025 139.393 156.941 139.071 156.941 138.67C156.941 138.269 157.039 137.923 157.235 137.634C157.431 137.335 157.701 137.107 158.047 136.948C158.401 136.789 158.826 136.71 159.321 136.71C159.843 136.71 160.305 136.803 160.707 136.99C161.117 137.167 161.453 137.438 161.715 137.802L160.903 138.614C160.716 138.371 160.483 138.185 160.203 138.054C159.932 137.923 159.624 137.858 159.279 137.858C158.915 137.858 158.635 137.923 158.439 138.054C158.252 138.175 158.159 138.348 158.159 138.572C158.159 138.796 158.243 138.969 158.411 139.09C158.579 139.211 158.798 139.314 159.069 139.398C159.349 139.482 159.638 139.571 159.937 139.664C160.235 139.748 160.52 139.865 160.791 140.014C161.061 140.163 161.281 140.364 161.449 140.616C161.626 140.868 161.715 141.199 161.715 141.61C161.715 142.235 161.491 142.73 161.043 143.094C160.604 143.458 160.011 143.64 159.265 143.64ZM163.139 143.5V136.85H164.399V143.5H163.139ZM163.769 135.52C163.536 135.52 163.345 135.445 163.195 135.296C163.046 135.137 162.971 134.941 162.971 134.708C162.971 134.484 163.046 134.297 163.195 134.148C163.345 133.989 163.536 133.91 163.769 133.91C164.003 133.91 164.194 133.989 164.343 134.148C164.493 134.297 164.567 134.484 164.567 134.708C164.567 134.941 164.493 135.137 164.343 135.296C164.194 135.445 164.003 135.52 163.769 135.52ZM169.014 146.426C168.333 146.426 167.726 146.3 167.194 146.048C166.671 145.796 166.251 145.441 165.934 144.984L166.746 144.158C167.017 144.503 167.339 144.765 167.712 144.942C168.085 145.129 168.529 145.222 169.042 145.222C169.723 145.222 170.26 145.04 170.652 144.676C171.053 144.321 171.254 143.841 171.254 143.234V141.582L171.478 140.084L171.254 138.6V136.85H172.514V143.234C172.514 143.869 172.365 144.424 172.066 144.9C171.777 145.376 171.366 145.749 170.834 146.02C170.311 146.291 169.705 146.426 169.014 146.426ZM169.014 143.388C168.407 143.388 167.861 143.243 167.376 142.954C166.9 142.665 166.522 142.268 166.242 141.764C165.962 141.251 165.822 140.677 165.822 140.042C165.822 139.407 165.962 138.843 166.242 138.348C166.522 137.844 166.9 137.447 167.376 137.158C167.861 136.859 168.407 136.71 169.014 136.71C169.537 136.71 169.999 136.813 170.4 137.018C170.801 137.223 171.119 137.513 171.352 137.886C171.595 138.25 171.725 138.679 171.744 139.174V140.938C171.716 141.423 171.581 141.853 171.338 142.226C171.105 142.59 170.787 142.875 170.386 143.08C169.985 143.285 169.527 143.388 169.014 143.388ZM169.266 142.198C169.677 142.198 170.036 142.109 170.344 141.932C170.661 141.755 170.904 141.507 171.072 141.19C171.24 140.863 171.324 140.485 171.324 140.056C171.324 139.627 171.235 139.253 171.058 138.936C170.89 138.609 170.652 138.357 170.344 138.18C170.036 137.993 169.672 137.9 169.252 137.9C168.832 137.9 168.463 137.993 168.146 138.18C167.829 138.357 167.577 138.609 167.39 138.936C167.213 139.253 167.124 139.622 167.124 140.042C167.124 140.462 167.213 140.835 167.39 141.162C167.577 141.489 167.829 141.745 168.146 141.932C168.473 142.109 168.846 142.198 169.266 142.198ZM179.067 143.5V139.622C179.067 139.118 178.909 138.703 178.591 138.376C178.274 138.049 177.863 137.886 177.359 137.886C177.023 137.886 176.725 137.961 176.463 138.11C176.202 138.259 175.997 138.465 175.847 138.726C175.698 138.987 175.623 139.286 175.623 139.622L175.105 139.328C175.105 138.824 175.217 138.376 175.441 137.984C175.665 137.592 175.978 137.284 176.379 137.06C176.781 136.827 177.233 136.71 177.737 136.71C178.241 136.71 178.685 136.822 179.067 137.046C179.459 137.27 179.767 137.583 179.991 137.984C180.215 138.385 180.327 138.847 180.327 139.37V143.5H179.067ZM174.363 143.5V133.504H175.623V143.5H174.363ZM182.973 143.5V134.064H184.233V143.5H182.973ZM181.335 137.998V136.85H185.871V137.998H181.335ZM189.083 143.64C188.71 143.64 188.355 143.593 188.019 143.5C187.692 143.397 187.389 143.257 187.109 143.08C186.829 142.893 186.586 142.674 186.381 142.422L187.193 141.61C187.436 141.909 187.716 142.133 188.033 142.282C188.35 142.422 188.705 142.492 189.097 142.492C189.489 142.492 189.792 142.427 190.007 142.296C190.222 142.156 190.329 141.965 190.329 141.722C190.329 141.479 190.24 141.293 190.063 141.162C189.895 141.022 189.676 140.91 189.405 140.826C189.134 140.733 188.845 140.644 188.537 140.56C188.238 140.467 187.954 140.35 187.683 140.21C187.412 140.07 187.188 139.879 187.011 139.636C186.843 139.393 186.759 139.071 186.759 138.67C186.759 138.269 186.857 137.923 187.053 137.634C187.249 137.335 187.52 137.107 187.865 136.948C188.22 136.789 188.644 136.71 189.139 136.71C189.662 136.71 190.124 136.803 190.525 136.99C190.936 137.167 191.272 137.438 191.533 137.802L190.721 138.614C190.534 138.371 190.301 138.185 190.021 138.054C189.75 137.923 189.442 137.858 189.097 137.858C188.733 137.858 188.453 137.923 188.257 138.054C188.07 138.175 187.977 138.348 187.977 138.572C187.977 138.796 188.061 138.969 188.229 139.09C188.397 139.211 188.616 139.314 188.887 139.398C189.167 139.482 189.456 139.571 189.755 139.664C190.054 139.748 190.338 139.865 190.609 140.014C190.88 140.163 191.099 140.364 191.267 140.616C191.444 140.868 191.533 141.199 191.533 141.61C191.533 142.235 191.309 142.73 190.861 143.094C190.422 143.458 189.83 143.64 189.083 143.64ZM198.894 143.64C198.24 143.64 197.652 143.486 197.13 143.178C196.607 142.87 196.192 142.455 195.884 141.932C195.576 141.4 195.422 140.807 195.422 140.154C195.422 139.51 195.576 138.931 195.884 138.418C196.192 137.895 196.607 137.48 197.13 137.172C197.652 136.864 198.24 136.71 198.894 136.71C199.538 136.71 200.121 136.864 200.644 137.172C201.176 137.471 201.596 137.881 201.904 138.404C202.212 138.927 202.366 139.51 202.366 140.154C202.366 140.807 202.212 141.4 201.904 141.932C201.596 142.455 201.176 142.87 200.644 143.178C200.121 143.486 199.538 143.64 198.894 143.64ZM198.894 142.422C199.314 142.422 199.687 142.324 200.014 142.128C200.34 141.932 200.597 141.666 200.784 141.33C200.97 140.985 201.064 140.593 201.064 140.154C201.064 139.725 200.966 139.342 200.77 139.006C200.583 138.67 200.326 138.409 200 138.222C199.682 138.026 199.314 137.928 198.894 137.928C198.474 137.928 198.1 138.026 197.774 138.222C197.447 138.409 197.19 138.67 197.004 139.006C196.817 139.342 196.724 139.725 196.724 140.154C196.724 140.593 196.817 140.985 197.004 141.33C197.19 141.666 197.447 141.932 197.774 142.128C198.1 142.324 198.474 142.422 198.894 142.422ZM208.489 143.5V139.622C208.489 139.118 208.331 138.703 208.013 138.376C207.696 138.049 207.285 137.886 206.781 137.886C206.445 137.886 206.147 137.961 205.885 138.11C205.624 138.259 205.419 138.465 205.269 138.726C205.12 138.987 205.045 139.286 205.045 139.622L204.527 139.328C204.527 138.824 204.639 138.376 204.863 137.984C205.087 137.592 205.4 137.284 205.801 137.06C206.203 136.827 206.655 136.71 207.159 136.71C207.663 136.71 208.107 136.836 208.489 137.088C208.881 137.34 209.189 137.671 209.413 138.082C209.637 138.483 209.749 138.913 209.749 139.37V143.5H208.489ZM203.785 143.5V136.85H205.045V143.5H203.785ZM215.389 143.5V134.064H216.649V143.5H215.389ZM213.751 137.998V136.85H218.287V137.998H213.751ZM219.522 143.5V136.85H220.782V143.5H219.522ZM220.782 139.706L220.306 139.496C220.306 138.647 220.502 137.97 220.894 137.466C221.286 136.962 221.85 136.71 222.588 136.71C222.924 136.71 223.227 136.771 223.498 136.892C223.768 137.004 224.02 137.195 224.254 137.466L223.428 138.32C223.288 138.171 223.134 138.063 222.966 137.998C222.798 137.933 222.602 137.9 222.378 137.9C221.911 137.9 221.528 138.049 221.23 138.348C220.931 138.647 220.782 139.099 220.782 139.706ZM227.75 143.64C227.143 143.64 226.593 143.491 226.098 143.192C225.603 142.884 225.211 142.469 224.922 141.946C224.642 141.423 224.502 140.835 224.502 140.182C224.502 139.529 224.642 138.941 224.922 138.418C225.211 137.895 225.599 137.48 226.084 137.172C226.579 136.864 227.134 136.71 227.75 136.71C228.254 136.71 228.702 136.817 229.094 137.032C229.495 137.237 229.817 137.527 230.06 137.9C230.303 138.264 230.438 138.689 230.466 139.174V141.176C230.438 141.652 230.303 142.077 230.06 142.45C229.827 142.823 229.509 143.117 229.108 143.332C228.716 143.537 228.263 143.64 227.75 143.64ZM227.96 142.45C228.585 142.45 229.089 142.24 229.472 141.82C229.855 141.391 230.046 140.845 230.046 140.182C230.046 139.725 229.957 139.328 229.78 138.992C229.612 138.647 229.369 138.381 229.052 138.194C228.735 137.998 228.366 137.9 227.946 137.9C227.526 137.9 227.153 137.998 226.826 138.194C226.509 138.39 226.257 138.661 226.07 139.006C225.893 139.342 225.804 139.729 225.804 140.168C225.804 140.616 225.893 141.013 226.07 141.358C226.257 141.694 226.513 141.96 226.84 142.156C227.167 142.352 227.54 142.45 227.96 142.45ZM229.962 143.5V141.708L230.2 140.084L229.962 138.474V136.85H231.236V143.5H229.962ZM237.774 143.5V139.622C237.774 139.118 237.616 138.703 237.298 138.376C236.981 138.049 236.57 137.886 236.066 137.886C235.73 137.886 235.432 137.961 235.17 138.11C234.909 138.259 234.704 138.465 234.554 138.726C234.405 138.987 234.33 139.286 234.33 139.622L233.812 139.328C233.812 138.824 233.924 138.376 234.148 137.984C234.372 137.592 234.685 137.284 235.086 137.06C235.488 136.827 235.94 136.71 236.444 136.71C236.948 136.71 237.392 136.836 237.774 137.088C238.166 137.34 238.474 137.671 238.698 138.082C238.922 138.483 239.034 138.913 239.034 139.37V143.5H237.774ZM233.07 143.5V136.85H234.33V143.5H233.07ZM242.854 143.64C242.481 143.64 242.126 143.593 241.79 143.5C241.464 143.397 241.16 143.257 240.88 143.08C240.6 142.893 240.358 142.674 240.152 142.422L240.964 141.61C241.207 141.909 241.487 142.133 241.804 142.282C242.122 142.422 242.476 142.492 242.868 142.492C243.26 142.492 243.564 142.427 243.778 142.296C243.993 142.156 244.1 141.965 244.1 141.722C244.1 141.479 244.012 141.293 243.834 141.162C243.666 141.022 243.447 140.91 243.176 140.826C242.906 140.733 242.616 140.644 242.308 140.56C242.01 140.467 241.725 140.35 241.454 140.21C241.184 140.07 240.96 139.879 240.782 139.636C240.614 139.393 240.53 139.071 240.53 138.67C240.53 138.269 240.628 137.923 240.824 137.634C241.02 137.335 241.291 137.107 241.636 136.948C241.991 136.789 242.416 136.71 242.91 136.71C243.433 136.71 243.895 136.803 244.296 136.99C244.707 137.167 245.043 137.438 245.304 137.802L244.492 138.614C244.306 138.371 244.072 138.185 243.792 138.054C243.522 137.923 243.214 137.858 242.868 137.858C242.504 137.858 242.224 137.923 242.028 138.054C241.842 138.175 241.748 138.348 241.748 138.572C241.748 138.796 241.832 138.969 242 139.09C242.168 139.211 242.388 139.314 242.658 139.398C242.938 139.482 243.228 139.571 243.526 139.664C243.825 139.748 244.11 139.865 244.38 140.014C244.651 140.163 244.87 140.364 245.038 140.616C245.216 140.868 245.304 141.199 245.304 141.61C245.304 142.235 245.08 142.73 244.632 143.094C244.194 143.458 243.601 143.64 242.854 143.64ZM249.543 143.64C248.936 143.64 248.386 143.491 247.891 143.192C247.396 142.884 247.004 142.469 246.715 141.946C246.435 141.423 246.295 140.835 246.295 140.182C246.295 139.529 246.435 138.941 246.715 138.418C247.004 137.895 247.392 137.48 247.877 137.172C248.372 136.864 248.927 136.71 249.543 136.71C250.047 136.71 250.495 136.817 250.887 137.032C251.288 137.237 251.61 137.527 251.853 137.9C252.096 138.264 252.231 138.689 252.259 139.174V141.176C252.231 141.652 252.096 142.077 251.853 142.45C251.62 142.823 251.302 143.117 250.901 143.332C250.509 143.537 250.056 143.64 249.543 143.64ZM249.753 142.45C250.378 142.45 250.882 142.24 251.265 141.82C251.648 141.391 251.839 140.845 251.839 140.182C251.839 139.725 251.75 139.328 251.573 138.992C251.405 138.647 251.162 138.381 250.845 138.194C250.528 137.998 250.159 137.9 249.739 137.9C249.319 137.9 248.946 137.998 248.619 138.194C248.302 138.39 248.05 138.661 247.863 139.006C247.686 139.342 247.597 139.729 247.597 140.168C247.597 140.616 247.686 141.013 247.863 141.358C248.05 141.694 248.306 141.96 248.633 142.156C248.96 142.352 249.333 142.45 249.753 142.45ZM251.755 143.5V141.708L251.993 140.084L251.755 138.474V136.85H253.029V143.5H251.755ZM257.901 143.64C257.248 143.64 256.655 143.486 256.123 143.178C255.601 142.87 255.185 142.455 254.877 141.932C254.579 141.4 254.429 140.812 254.429 140.168C254.429 139.515 254.579 138.927 254.877 138.404C255.185 137.881 255.601 137.471 256.123 137.172C256.655 136.864 257.248 136.71 257.901 136.71C258.415 136.71 258.891 136.808 259.329 137.004C259.768 137.191 260.146 137.466 260.463 137.83L259.623 138.67C259.418 138.427 259.166 138.245 258.867 138.124C258.578 137.993 258.256 137.928 257.901 137.928C257.481 137.928 257.108 138.026 256.781 138.222C256.455 138.409 256.198 138.67 256.011 139.006C255.825 139.342 255.731 139.729 255.731 140.168C255.731 140.607 255.825 140.994 256.011 141.33C256.198 141.666 256.455 141.932 256.781 142.128C257.108 142.324 257.481 142.422 257.901 142.422C258.256 142.422 258.578 142.361 258.867 142.24C259.166 142.109 259.423 141.923 259.637 141.68L260.463 142.52C260.155 142.875 259.777 143.15 259.329 143.346C258.891 143.542 258.415 143.64 257.901 143.64ZM262.653 143.5V134.064H263.913V143.5H262.653ZM261.015 137.998V136.85H265.551V137.998H261.015ZM266.799 143.5V136.85H268.059V143.5H266.799ZM267.429 135.52C267.196 135.52 267.005 135.445 266.855 135.296C266.706 135.137 266.631 134.941 266.631 134.708C266.631 134.484 266.706 134.297 266.855 134.148C267.005 133.989 267.196 133.91 267.429 133.91C267.663 133.91 267.854 133.989 268.003 134.148C268.153 134.297 268.227 134.484 268.227 134.708C268.227 134.941 268.153 135.137 268.003 135.296C267.854 135.445 267.663 135.52 267.429 135.52ZM272.954 143.64C272.301 143.64 271.713 143.486 271.19 143.178C270.668 142.87 270.252 142.455 269.944 141.932C269.636 141.4 269.482 140.807 269.482 140.154C269.482 139.51 269.636 138.931 269.944 138.418C270.252 137.895 270.668 137.48 271.19 137.172C271.713 136.864 272.301 136.71 272.954 136.71C273.598 136.71 274.182 136.864 274.704 137.172C275.236 137.471 275.656 137.881 275.964 138.404C276.272 138.927 276.426 139.51 276.426 140.154C276.426 140.807 276.272 141.4 275.964 141.932C275.656 142.455 275.236 142.87 274.704 143.178C274.182 143.486 273.598 143.64 272.954 143.64ZM272.954 142.422C273.374 142.422 273.748 142.324 274.074 142.128C274.401 141.932 274.658 141.666 274.844 141.33C275.031 140.985 275.124 140.593 275.124 140.154C275.124 139.725 275.026 139.342 274.83 139.006C274.644 138.67 274.387 138.409 274.06 138.222C273.743 138.026 273.374 137.928 272.954 137.928C272.534 137.928 272.161 138.026 271.834 138.222C271.508 138.409 271.251 138.67 271.064 139.006C270.878 139.342 270.784 139.725 270.784 140.154C270.784 140.593 270.878 140.985 271.064 141.33C271.251 141.666 271.508 141.932 271.834 142.128C272.161 142.324 272.534 142.422 272.954 142.422ZM282.55 143.5V139.622C282.55 139.118 282.391 138.703 282.074 138.376C281.757 138.049 281.346 137.886 280.842 137.886C280.506 137.886 280.207 137.961 279.946 138.11C279.685 138.259 279.479 138.465 279.33 138.726C279.181 138.987 279.106 139.286 279.106 139.622L278.588 139.328C278.588 138.824 278.7 138.376 278.924 137.984C279.148 137.592 279.461 137.284 279.862 137.06C280.263 136.827 280.716 136.71 281.22 136.71C281.724 136.71 282.167 136.836 282.55 137.088C282.942 137.34 283.25 137.671 283.474 138.082C283.698 138.483 283.81 138.913 283.81 139.37V143.5H282.55ZM277.846 143.5V136.85H279.106V143.5H277.846ZM287.63 143.64C287.256 143.64 286.902 143.593 286.566 143.5C286.239 143.397 285.936 143.257 285.656 143.08C285.376 142.893 285.133 142.674 284.928 142.422L285.74 141.61C285.982 141.909 286.262 142.133 286.58 142.282C286.897 142.422 287.252 142.492 287.644 142.492C288.036 142.492 288.339 142.427 288.554 142.296C288.768 142.156 288.876 141.965 288.876 141.722C288.876 141.479 288.787 141.293 288.61 141.162C288.442 141.022 288.222 140.91 287.952 140.826C287.681 140.733 287.392 140.644 287.084 140.56C286.785 140.467 286.5 140.35 286.23 140.21C285.959 140.07 285.735 139.879 285.558 139.636C285.39 139.393 285.306 139.071 285.306 138.67C285.306 138.269 285.404 137.923 285.6 137.634C285.796 137.335 286.066 137.107 286.412 136.948C286.766 136.789 287.191 136.71 287.686 136.71C288.208 136.71 288.67 136.803 289.072 136.99C289.482 137.167 289.818 137.438 290.08 137.802L289.268 138.614C289.081 138.371 288.848 138.185 288.568 138.054C288.297 137.923 287.989 137.858 287.644 137.858C287.28 137.858 287 137.923 286.804 138.054C286.617 138.175 286.524 138.348 286.524 138.572C286.524 138.796 286.608 138.969 286.776 139.09C286.944 139.211 287.163 139.314 287.434 139.398C287.714 139.482 288.003 139.571 288.302 139.664C288.6 139.748 288.885 139.865 289.156 140.014C289.426 140.163 289.646 140.364 289.814 140.616C289.991 140.868 290.08 141.199 290.08 141.61C290.08 142.235 289.856 142.73 289.408 143.094C288.969 143.458 288.376 143.64 287.63 143.64Z" fill="#F5F5F5"/>
<rect y="206" width="314" height="71" rx="35.5" fill="#141414"/>
<rect y="206" width="314" height="71" rx="35.5" fill="url(#paint10_linear_77_4340)"/>
<rect x="16" y="218" width="47" height="47" rx="23.5" fill="white" fill-opacity="0.08"/>
<path d="M39.5 250.5C44.4706 250.5 48.5 246.471 48.5 241.5C48.5 236.529 44.4706 232.5 39.5 232.5C34.5294 232.5 30.5 236.529 30.5 241.5C30.5 246.471 34.5294 250.5 39.5 250.5Z" stroke="url(#paint11_linear_77_4340)" stroke-linecap="round" stroke-linejoin="round"/>
<path d="M39.5 241.5V232.5" stroke="url(#paint12_linear_77_4340)" stroke-linecap="round" stroke-linejoin="round"/>
<path d="M47.2907 237L31.7095 246" stroke="url(#paint13_linear_77_4340)" stroke-linecap="round" stroke-linejoin="round"/>
<path d="M78.85 237.64C78.0847 237.64 77.4313 237.5 76.89 237.22C76.3487 236.94 75.868 236.534 75.448 236.002L76.344 235.106C76.652 235.535 77.0067 235.862 77.408 236.086C77.8093 236.301 78.304 236.408 78.892 236.408C79.4707 236.408 79.9327 236.282 80.278 236.03C80.6327 235.778 80.81 235.433 80.81 234.994C80.81 234.63 80.726 234.336 80.558 234.112C80.39 233.888 80.1613 233.706 79.872 233.566C79.592 233.417 79.284 233.286 78.948 233.174C78.612 233.053 78.276 232.927 77.94 232.796C77.604 232.656 77.296 232.488 77.016 232.292C76.736 232.087 76.5073 231.821 76.33 231.494C76.162 231.167 76.078 230.757 76.078 230.262C76.078 229.711 76.2087 229.245 76.47 228.862C76.7407 228.47 77.1047 228.171 77.562 227.966C78.0287 227.751 78.5513 227.644 79.13 227.644C79.7647 227.644 80.334 227.77 80.838 228.022C81.342 228.265 81.7527 228.587 82.07 228.988L81.174 229.884C80.8847 229.548 80.572 229.296 80.236 229.128C79.9093 228.96 79.5313 228.876 79.102 228.876C78.5793 228.876 78.164 228.993 77.856 229.226C77.548 229.45 77.394 229.767 77.394 230.178C77.394 230.505 77.478 230.771 77.646 230.976C77.8233 231.172 78.052 231.34 78.332 231.48C78.612 231.62 78.92 231.751 79.256 231.872C79.6013 231.984 79.942 232.11 80.278 232.25C80.614 232.39 80.922 232.567 81.202 232.782C81.482 232.997 81.706 233.277 81.874 233.622C82.0513 233.958 82.14 234.383 82.14 234.896C82.14 235.755 81.8413 236.427 81.244 236.912C80.656 237.397 79.858 237.64 78.85 237.64ZM88.3936 237.5V233.622C88.3936 233.118 88.235 232.703 87.9176 232.376C87.6003 232.049 87.1896 231.886 86.6856 231.886C86.3496 231.886 86.051 231.961 85.7896 232.11C85.5283 232.259 85.323 232.465 85.1736 232.726C85.0243 232.987 84.9496 233.286 84.9496 233.622L84.4316 233.328C84.4316 232.824 84.5436 232.376 84.7676 231.984C84.9916 231.592 85.3043 231.284 85.7056 231.06C86.107 230.827 86.5596 230.71 87.0636 230.71C87.5676 230.71 88.011 230.822 88.3936 231.046C88.7856 231.27 89.0936 231.583 89.3176 231.984C89.5416 232.385 89.6536 232.847 89.6536 233.37V237.5H88.3936ZM83.6896 237.5V227.504H84.9496V237.5H83.6896ZM94.3975 237.64C93.7442 237.64 93.1562 237.486 92.6335 237.178C92.1109 236.87 91.6955 236.455 91.3875 235.932C91.0795 235.4 90.9255 234.807 90.9255 234.154C90.9255 233.51 91.0795 232.931 91.3875 232.418C91.6955 231.895 92.1109 231.48 92.6335 231.172C93.1562 230.864 93.7442 230.71 94.3975 230.71C95.0415 230.71 95.6249 230.864 96.1475 231.172C96.6795 231.471 97.0995 231.881 97.4075 232.404C97.7155 232.927 97.8695 233.51 97.8695 234.154C97.8695 234.807 97.7155 235.4 97.4075 235.932C97.0995 236.455 96.6795 236.87 96.1475 237.178C95.6249 237.486 95.0415 237.64 94.3975 237.64ZM94.3975 236.422C94.8175 236.422 95.1909 236.324 95.5175 236.128C95.8442 235.932 96.1009 235.666 96.2875 235.33C96.4742 234.985 96.5675 234.593 96.5675 234.154C96.5675 233.725 96.4695 233.342 96.2735 233.006C96.0869 232.67 95.8302 232.409 95.5035 232.222C95.1862 232.026 94.8175 231.928 94.3975 231.928C93.9775 231.928 93.6042 232.026 93.2775 232.222C92.9509 232.409 92.6942 232.67 92.5075 233.006C92.3209 233.342 92.2275 233.725 92.2275 234.154C92.2275 234.593 92.3209 234.985 92.5075 235.33C92.6942 235.666 92.9509 235.932 93.2775 236.128C93.6042 236.324 93.9775 236.422 94.3975 236.422ZM102.789 237.64C102.285 237.64 101.828 237.537 101.417 237.332C101.016 237.117 100.694 236.823 100.451 236.45C100.209 236.077 100.073 235.652 100.045 235.176V233.174C100.073 232.689 100.209 232.264 100.451 231.9C100.703 231.527 101.03 231.237 101.431 231.032C101.842 230.817 102.295 230.71 102.789 230.71C103.396 230.71 103.942 230.864 104.427 231.172C104.922 231.48 105.309 231.895 105.589 232.418C105.869 232.941 106.009 233.529 106.009 234.182C106.009 234.835 105.869 235.423 105.589 235.946C105.309 236.469 104.922 236.884 104.427 237.192C103.942 237.491 103.396 237.64 102.789 237.64ZM102.579 236.45C102.999 236.45 103.368 236.352 103.685 236.156C104.003 235.96 104.255 235.694 104.441 235.358C104.628 235.013 104.721 234.616 104.721 234.168C104.721 233.729 104.628 233.337 104.441 232.992C104.255 232.647 104.003 232.381 103.685 232.194C103.368 231.998 103.004 231.9 102.593 231.9C102.173 231.9 101.805 231.998 101.487 232.194C101.17 232.381 100.923 232.647 100.745 232.992C100.568 233.337 100.479 233.734 100.479 234.182C100.479 234.621 100.563 235.013 100.731 235.358C100.909 235.694 101.156 235.96 101.473 236.156C101.8 236.352 102.169 236.45 102.579 236.45ZM99.2892 240.286V230.85H100.549V232.6L100.311 234.21L100.549 235.834V240.286H99.2892ZM110.574 237.5V227.784H111.498L111.89 229.31V237.5H110.574ZM117.294 237.5L111.33 229.534L111.498 227.784L117.476 235.736L117.294 237.5ZM117.294 237.5L116.902 236.058V227.784H118.218V237.5H117.294ZM123.327 237.64C122.674 237.64 122.086 237.486 121.563 237.178C121.041 236.87 120.625 236.455 120.317 235.932C120.009 235.4 119.855 234.807 119.855 234.154C119.855 233.51 120.009 232.931 120.317 232.418C120.625 231.895 121.041 231.48 121.563 231.172C122.086 230.864 122.674 230.71 123.327 230.71C123.971 230.71 124.555 230.864 125.077 231.172C125.609 231.471 126.029 231.881 126.337 232.404C126.645 232.927 126.799 233.51 126.799 234.154C126.799 234.807 126.645 235.4 126.337 235.932C126.029 236.455 125.609 236.87 125.077 237.178C124.555 237.486 123.971 237.64 123.327 237.64ZM123.327 236.422C123.747 236.422 124.121 236.324 124.447 236.128C124.774 235.932 125.031 235.666 125.217 235.33C125.404 234.985 125.497 234.593 125.497 234.154C125.497 233.725 125.399 233.342 125.203 233.006C125.017 232.67 124.76 232.409 124.433 232.222C124.116 232.026 123.747 231.928 123.327 231.928C122.907 231.928 122.534 232.026 122.207 232.222C121.881 232.409 121.624 232.67 121.437 233.006C121.251 233.342 121.157 233.725 121.157 234.154C121.157 234.593 121.251 234.985 121.437 235.33C121.624 235.666 121.881 235.932 122.207 236.128C122.534 236.324 122.907 236.422 123.327 236.422ZM129.932 237.5L127.3 230.85H128.616L130.52 236.03H130.1L131.99 230.85H132.718L134.608 236.03H134.188L136.092 230.85H137.408L134.79 237.5H134.048L132.13 232.474H132.592L130.66 237.5H129.932ZM138.133 239.04L139.001 237.374L139.449 237.262C139.402 237.365 139.341 237.449 139.267 237.514C139.201 237.579 139.117 237.612 139.015 237.612C138.819 237.612 138.637 237.533 138.469 237.374C138.31 237.206 138.231 237.001 138.231 236.758C138.231 236.487 138.319 236.263 138.497 236.086C138.674 235.899 138.898 235.806 139.169 235.806C139.411 235.806 139.626 235.899 139.813 236.086C139.999 236.263 140.093 236.487 140.093 236.758C140.093 236.861 140.069 236.987 140.023 237.136C139.985 237.276 139.906 237.458 139.785 237.682L138.861 239.432L138.133 239.04ZM145.936 233.72V232.572H148.582C148.946 232.572 149.268 232.497 149.548 232.348C149.838 232.199 150.062 231.989 150.22 231.718C150.388 231.447 150.472 231.125 150.472 230.752C150.472 230.379 150.388 230.057 150.22 229.786C150.062 229.515 149.838 229.305 149.548 229.156C149.268 229.007 148.946 228.932 148.582 228.932H145.936V227.784H148.666C149.264 227.784 149.796 227.905 150.262 228.148C150.738 228.391 151.112 228.736 151.382 229.184C151.662 229.623 151.802 230.145 151.802 230.752C151.802 231.349 151.662 231.872 151.382 232.32C151.112 232.759 150.738 233.104 150.262 233.356C149.796 233.599 149.264 233.72 148.666 233.72H145.936ZM145.054 237.5V227.784H146.37V237.5H145.054ZM155.766 237.64C155.159 237.64 154.608 237.491 154.114 237.192C153.619 236.884 153.227 236.469 152.938 235.946C152.658 235.423 152.518 234.835 152.518 234.182C152.518 233.529 152.658 232.941 152.938 232.418C153.227 231.895 153.614 231.48 154.1 231.172C154.594 230.864 155.15 230.71 155.766 230.71C156.27 230.71 156.718 230.817 157.11 231.032C157.511 231.237 157.833 231.527 158.076 231.9C158.318 232.264 158.454 232.689 158.482 233.174V235.176C158.454 235.652 158.318 236.077 158.076 236.45C157.842 236.823 157.525 237.117 157.124 237.332C156.732 237.537 156.279 237.64 155.766 237.64ZM155.976 236.45C156.601 236.45 157.105 236.24 157.488 235.82C157.87 235.391 158.062 234.845 158.062 234.182C158.062 233.725 157.973 233.328 157.796 232.992C157.628 232.647 157.385 232.381 157.068 232.194C156.75 231.998 156.382 231.9 155.962 231.9C155.542 231.9 155.168 231.998 154.842 232.194C154.524 232.39 154.272 232.661 154.086 233.006C153.908 233.342 153.82 233.729 153.82 234.168C153.82 234.616 153.908 235.013 154.086 235.358C154.272 235.694 154.529 235.96 154.856 236.156C155.182 236.352 155.556 236.45 155.976 236.45ZM157.978 237.5V235.708L158.216 234.084L157.978 232.474V230.85H159.252V237.5H157.978ZM163.27 237.556L160.386 230.85H161.786L163.928 236.1H163.48L165.734 230.85H167.134L164.026 237.556H163.27ZM161.366 240.286L163.326 236.268L164.026 237.556L162.766 240.286H161.366ZM171.414 237.5V227.784H172.73V237.5H171.414ZM172.31 237.5V236.296H177.518V237.5H172.31ZM181.455 237.64C180.848 237.64 180.298 237.491 179.803 237.192C179.308 236.884 178.916 236.469 178.627 235.946C178.347 235.423 178.207 234.835 178.207 234.182C178.207 233.529 178.347 232.941 178.627 232.418C178.916 231.895 179.304 231.48 179.789 231.172C180.284 230.864 180.839 230.71 181.455 230.71C181.959 230.71 182.407 230.817 182.799 231.032C183.2 231.237 183.522 231.527 183.765 231.9C184.008 232.264 184.143 232.689 184.171 233.174V235.176C184.143 235.652 184.008 236.077 183.765 236.45C183.532 236.823 183.214 237.117 182.813 237.332C182.421 237.537 181.968 237.64 181.455 237.64ZM181.665 236.45C182.29 236.45 182.794 236.24 183.177 235.82C183.56 235.391 183.751 234.845 183.751 234.182C183.751 233.725 183.662 233.328 183.485 232.992C183.317 232.647 183.074 232.381 182.757 232.194C182.44 231.998 182.071 231.9 181.651 231.9C181.231 231.9 180.858 231.998 180.531 232.194C180.214 232.39 179.962 232.661 179.775 233.006C179.598 233.342 179.509 233.729 179.509 234.168C179.509 234.616 179.598 235.013 179.775 235.358C179.962 235.694 180.218 235.96 180.545 236.156C180.872 236.352 181.245 236.45 181.665 236.45ZM183.667 237.5V235.708L183.905 234.084L183.667 232.474V230.85H184.941V237.5H183.667ZM187.77 237.5V228.064H189.03V237.5H187.77ZM186.132 231.998V230.85H190.668V231.998H186.132ZM194.777 237.64C194.115 237.64 193.517 237.491 192.985 237.192C192.453 236.884 192.033 236.469 191.725 235.946C191.417 235.423 191.263 234.831 191.263 234.168C191.263 233.515 191.413 232.927 191.711 232.404C192.019 231.881 192.43 231.471 192.943 231.172C193.466 230.864 194.049 230.71 194.693 230.71C195.309 230.71 195.851 230.85 196.317 231.13C196.793 231.41 197.162 231.797 197.423 232.292C197.694 232.787 197.829 233.347 197.829 233.972C197.829 234.065 197.825 234.168 197.815 234.28C197.806 234.383 197.787 234.504 197.759 234.644H192.145V233.594H197.087L196.625 234C196.625 233.552 196.546 233.174 196.387 232.866C196.229 232.549 196.005 232.306 195.715 232.138C195.426 231.961 195.076 231.872 194.665 231.872C194.236 231.872 193.858 231.965 193.531 232.152C193.205 232.339 192.953 232.6 192.775 232.936C192.598 233.272 192.509 233.669 192.509 234.126C192.509 234.593 192.603 235.003 192.789 235.358C192.976 235.703 193.242 235.974 193.587 236.17C193.933 236.357 194.329 236.45 194.777 236.45C195.151 236.45 195.491 236.385 195.799 236.254C196.117 236.123 196.387 235.927 196.611 235.666L197.423 236.492C197.106 236.865 196.714 237.15 196.247 237.346C195.79 237.542 195.3 237.64 194.777 237.64ZM199.203 237.5V230.85H200.463V237.5H199.203ZM200.463 233.706L199.987 233.496C199.987 232.647 200.183 231.97 200.575 231.466C200.967 230.962 201.532 230.71 202.269 230.71C202.605 230.71 202.909 230.771 203.179 230.892C203.45 231.004 203.702 231.195 203.935 231.466L203.109 232.32C202.969 232.171 202.815 232.063 202.647 231.998C202.479 231.933 202.283 231.9 202.059 231.9C201.593 231.9 201.21 232.049 200.911 232.348C200.613 232.647 200.463 233.099 200.463 233.706ZM204.058 239.04L204.926 237.374L205.374 237.262C205.328 237.365 205.267 237.449 205.192 237.514C205.127 237.579 205.043 237.612 204.94 237.612C204.744 237.612 204.562 237.533 204.394 237.374C204.236 237.206 204.156 237.001 204.156 236.758C204.156 236.487 204.245 236.263 204.422 236.086C204.6 235.899 204.824 235.806 205.094 235.806C205.337 235.806 205.552 235.899 205.738 236.086C205.925 236.263 206.018 236.487 206.018 236.758C206.018 236.861 205.995 236.987 205.948 237.136C205.911 237.276 205.832 237.458 205.71 237.682L204.786 239.432L204.058 239.04ZM215.39 237.64C214.69 237.64 214.041 237.514 213.444 237.262C212.847 237.001 212.324 236.641 211.876 236.184C211.437 235.727 211.097 235.195 210.854 234.588C210.611 233.981 210.49 233.333 210.49 232.642C210.49 231.942 210.611 231.289 210.854 230.682C211.097 230.075 211.437 229.548 211.876 229.1C212.324 228.643 212.842 228.288 213.43 228.036C214.027 227.775 214.676 227.644 215.376 227.644C216.141 227.644 216.813 227.775 217.392 228.036C217.971 228.297 218.484 228.652 218.932 229.1L218.022 230.01C217.714 229.665 217.336 229.394 216.888 229.198C216.449 229.002 215.945 228.904 215.376 228.904C214.863 228.904 214.391 228.997 213.962 229.184C213.533 229.361 213.159 229.618 212.842 229.954C212.525 230.29 212.277 230.687 212.1 231.144C211.932 231.601 211.848 232.101 211.848 232.642C211.848 233.183 211.932 233.683 212.1 234.14C212.277 234.597 212.525 234.994 212.842 235.33C213.159 235.666 213.533 235.927 213.962 236.114C214.391 236.291 214.863 236.38 215.376 236.38C215.983 236.38 216.51 236.282 216.958 236.086C217.406 235.881 217.784 235.605 218.092 235.26L219.002 236.156C218.554 236.623 218.027 236.987 217.42 237.248C216.823 237.509 216.146 237.64 215.39 237.64ZM223.2 237.64C222.547 237.64 221.959 237.486 221.436 237.178C220.914 236.87 220.498 236.455 220.19 235.932C219.882 235.4 219.728 234.807 219.728 234.154C219.728 233.51 219.882 232.931 220.19 232.418C220.498 231.895 220.914 231.48 221.436 231.172C221.959 230.864 222.547 230.71 223.2 230.71C223.844 230.71 224.428 230.864 224.95 231.172C225.482 231.471 225.902 231.881 226.21 232.404C226.518 232.927 226.672 233.51 226.672 234.154C226.672 234.807 226.518 235.4 226.21 235.932C225.902 236.455 225.482 236.87 224.95 237.178C224.428 237.486 223.844 237.64 223.2 237.64ZM223.2 236.422C223.62 236.422 223.994 236.324 224.32 236.128C224.647 235.932 224.904 235.666 225.09 235.33C225.277 234.985 225.37 234.593 225.37 234.154C225.37 233.725 225.272 233.342 225.076 233.006C224.89 232.67 224.633 232.409 224.306 232.222C223.989 232.026 223.62 231.928 223.2 231.928C222.78 231.928 222.407 232.026 222.08 232.222C221.754 232.409 221.497 232.67 221.31 233.006C221.124 233.342 221.03 233.725 221.03 234.154C221.03 234.593 221.124 234.985 221.31 235.33C221.497 235.666 221.754 235.932 222.08 236.128C222.407 236.324 222.78 236.422 223.2 236.422ZM232.796 237.5V233.622C232.796 233.118 232.637 232.703 232.32 232.376C232.003 232.049 231.592 231.886 231.088 231.886C230.752 231.886 230.453 231.961 230.192 232.11C229.931 232.259 229.725 232.465 229.576 232.726C229.427 232.987 229.352 233.286 229.352 233.622L228.834 233.328C228.834 232.824 228.946 232.376 229.17 231.984C229.394 231.592 229.707 231.284 230.108 231.06C230.509 230.827 230.962 230.71 231.466 230.71C231.97 230.71 232.413 230.836 232.796 231.088C233.188 231.34 233.496 231.671 233.72 232.082C233.944 232.483 234.056 232.913 234.056 233.37V237.5H232.796ZM228.092 237.5V230.85H229.352V237.5H228.092ZM238.044 237.5L234.992 230.85H236.392L238.842 236.464H238.03L240.494 230.85H241.838L238.786 237.5H238.044ZM245.733 237.64C245.07 237.64 244.473 237.491 243.941 237.192C243.409 236.884 242.989 236.469 242.681 235.946C242.373 235.423 242.219 234.831 242.219 234.168C242.219 233.515 242.368 232.927 242.667 232.404C242.975 231.881 243.385 231.471 243.899 231.172C244.421 230.864 245.005 230.71 245.649 230.71C246.265 230.71 246.806 230.85 247.273 231.13C247.749 231.41 248.117 231.797 248.379 232.292C248.649 232.787 248.785 233.347 248.785 233.972C248.785 234.065 248.78 234.168 248.771 234.28C248.761 234.383 248.743 234.504 248.715 234.644H243.101V233.594H248.043L247.581 234C247.581 233.552 247.501 233.174 247.343 232.866C247.184 232.549 246.96 232.306 246.671 232.138C246.381 231.961 246.031 231.872 245.621 231.872C245.191 231.872 244.813 231.965 244.487 232.152C244.16 232.339 243.908 232.6 243.731 232.936C243.553 233.272 243.465 233.669 243.465 234.126C243.465 234.593 243.558 235.003 243.745 235.358C243.931 235.703 244.197 235.974 244.543 236.17C244.888 236.357 245.285 236.45 245.733 236.45C246.106 236.45 246.447 236.385 246.755 236.254C247.072 236.123 247.343 235.927 247.567 235.666L248.379 236.492C248.061 236.865 247.669 237.15 247.203 237.346C246.745 237.542 246.255 237.64 245.733 237.64ZM250.158 237.5V230.85H251.418V237.5H250.158ZM251.418 233.706L250.942 233.496C250.942 232.647 251.138 231.97 251.53 231.466C251.922 230.962 252.487 230.71 253.224 230.71C253.56 230.71 253.864 230.771 254.134 230.892C254.405 231.004 254.657 231.195 254.89 231.466L254.064 232.32C253.924 232.171 253.77 232.063 253.602 231.998C253.434 231.933 253.238 231.9 253.014 231.9C252.548 231.9 252.165 232.049 251.866 232.348C251.568 232.647 251.418 233.099 251.418 233.706ZM256.772 237.5V228.064H258.032V237.5H256.772ZM255.134 231.998V230.85H259.67V231.998H255.134ZM264.839 237.5V228.064H266.099V237.5H264.839ZM263.201 231.998V230.85H267.737V231.998H263.201ZM271.804 237.64C271.15 237.64 270.562 237.486 270.04 237.178C269.517 236.87 269.102 236.455 268.794 235.932C268.486 235.4 268.332 234.807 268.332 234.154C268.332 233.51 268.486 232.931 268.794 232.418C269.102 231.895 269.517 231.48 270.04 231.172C270.562 230.864 271.15 230.71 271.804 230.71C272.448 230.71 273.031 230.864 273.554 231.172C274.086 231.471 274.506 231.881 274.814 232.404C275.122 232.927 275.276 233.51 275.276 234.154C275.276 234.807 275.122 235.4 274.814 235.932C274.506 236.455 274.086 236.87 273.554 237.178C273.031 237.486 272.448 237.64 271.804 237.64ZM271.804 236.422C272.224 236.422 272.597 236.324 272.924 236.128C273.25 235.932 273.507 235.666 273.694 235.33C273.88 234.985 273.974 234.593 273.974 234.154C273.974 233.725 273.876 233.342 273.68 233.006C273.493 232.67 273.236 232.409 272.91 232.222C272.592 232.026 272.224 231.928 271.804 231.928C271.384 231.928 271.01 232.026 270.684 232.222C270.357 232.409 270.1 232.67 269.914 233.006C269.727 233.342 269.634 233.725 269.634 234.154C269.634 234.593 269.727 234.985 269.914 235.33C270.1 235.666 270.357 235.932 270.684 236.128C271.01 236.324 271.384 236.422 271.804 236.422ZM76.148 255.5V245.784H77.464V255.5H76.148ZM77.044 255.5V254.296H82.616V255.5H77.044ZM77.044 251.104V249.956H82.154V251.104H77.044ZM77.044 246.988V245.784H82.546V246.988H77.044ZM84.4058 255.5V245.784H85.3298L89.4458 252.546H88.8158L92.9318 245.784H93.8558V255.5H92.5398V248.094L92.8478 248.178L89.5998 253.512H88.6758L85.4278 248.178L85.7218 248.094V255.5H84.4058ZM96.15 255.5V245.784H97.466V255.5H96.15Z" fill="#F5F5F5"/>
<defs>
<linearGradient id="paint0_linear_77_4340" x1="15.7" y1="27.5515" x2="389.047" y2="31.8934" gradientUnits="userSpaceOnUse">
<stop offset="0.442413" stop-color="#242424"/>
<stop offset="1" stop-color="#1D1D1D" stop-opacity="0"/>
</linearGradient>
<linearGradient id="paint1_linear_77_4340" x1="39.5" y1="28.75" x2="39.5" y2="42.25" gradientUnits="userSpaceOnUse">
<stop stop-color="white"/>
<stop offset="1" stop-color="white" stop-opacity="0"/>
</linearGradient>
<linearGradient id="paint2_linear_77_4340" x1="44.75" y1="39.25" x2="44.75" y2="40.25" gradientUnits="userSpaceOnUse">
<stop stop-color="white"/>
<stop offset="1" stop-color="white" stop-opacity="0"/>
</linearGradient>
<linearGradient id="paint3_linear_77_4340" x1="39.5" y1="39.25" x2="39.5" y2="40.25" gradientUnits="userSpaceOnUse">
<stop stop-color="white"/>
<stop offset="1" stop-color="white" stop-opacity="0"/>
</linearGradient>
<linearGradient id="paint4_linear_77_4340" x1="39.5" y1="32.584" x2="39.5" y2="33.584" gradientUnits="userSpaceOnUse">
<stop stop-color="white"/>
<stop offset="1" stop-color="white" stop-opacity="0"/>
</linearGradient>
<linearGradient id="paint5_linear_77_4340" x1="44.7" y1="130.551" x2="418.047" y2="134.893" gradientUnits="userSpaceOnUse">
<stop offset="0.442413" stop-color="#242424"/>
<stop offset="1" stop-color="#1D1D1D" stop-opacity="0"/>
</linearGradient>
<linearGradient id="paint6_linear_77_4340" x1="68.5" y1="146" x2="68.5" y2="147" gradientUnits="userSpaceOnUse">
<stop stop-color="white"/>
<stop offset="1" stop-color="white" stop-opacity="0"/>
</linearGradient>
<linearGradient id="paint7_linear_77_4340" x1="68.5" y1="134.75" x2="68.5" y2="146" gradientUnits="userSpaceOnUse">
<stop stop-color="white"/>
<stop offset="1" stop-color="white" stop-opacity="0"/>
</linearGradient>
<linearGradient id="paint8_linear_77_4340" x1="73.75" y1="130.25" x2="73.75" y2="146" gradientUnits="userSpaceOnUse">
<stop stop-color="white"/>
<stop offset="1" stop-color="white" stop-opacity="0"/>
</linearGradient>
<linearGradient id="paint9_linear_77_4340" x1="63.25" y1="139.25" x2="63.25" y2="146" gradientUnits="userSpaceOnUse">
<stop stop-color="white"/>
<stop offset="1" stop-color="white" stop-opacity="0"/>
</linearGradient>
<linearGradient id="paint10_linear_77_4340" x1="15.7" y1="233.551" x2="389.047" y2="237.893" gradientUnits="userSpaceOnUse">
<stop offset="0.442413" stop-color="#242424"/>
<stop offset="1" stop-color="#1D1D1D" stop-opacity="0"/>
</linearGradient>
<linearGradient id="paint11_linear_77_4340" x1="39.5" y1="232.5" x2="39.5" y2="250.5" gradientUnits="userSpaceOnUse">
<stop stop-color="white"/>
<stop offset="1" stop-color="white" stop-opacity="0"/>
</linearGradient>
<linearGradient id="paint12_linear_77_4340" x1="40" y1="232.5" x2="40" y2="241.5" gradientUnits="userSpaceOnUse">
<stop stop-color="white"/>
<stop offset="1" stop-color="white" stop-opacity="0"/>
</linearGradient>
<linearGradient id="paint13_linear_77_4340" x1="39.5001" y1="237" x2="39.5001" y2="246" gradientUnits="userSpaceOnUse">
<stop stop-color="white"/>
<stop offset="1" stop-color="white" stop-opacity="0"/>
</linearGradient>
</defs>
</svg>
