<svg width="160" height="245" viewBox="0 0 160 245" fill="none" xmlns="http://www.w3.org/2000/svg">
<g opacity="0.4">
<path d="M270.546 -25.5007C247.873 -11.9649 239.027 -28.2846 216.35 -14.7462C193.673 -1.2079 202.52 15.1118 179.847 28.6477C157.174 42.1835 148.324 25.8663 125.647 39.4046C102.97 52.943 111.821 69.2602 89.1442 82.7985C66.4675 96.3368 57.6209 80.0172 34.9482 93.553C12.2756 107.089 21.118 123.411 -1.55871 136.949C-24.2355 150.488 -33.082 134.168 -55.7588 147.706C-78.4355 161.245 -69.589 177.564 -92.2657 191.103" stroke="white" stroke-opacity="0.2" stroke-width="0.220057" stroke-miterlimit="10"/>
<path d="M244.03 -74.4129C221.357 -60.877 212.511 -77.1967 189.834 -63.6583C167.157 -50.12 176.004 -33.8003 153.331 -20.2644C130.658 -6.72855 121.808 -23.0458 99.1309 -9.50747C76.4541 4.03085 85.3048 20.3481 62.628 33.8864C39.9513 47.4248 31.1047 31.1051 8.43207 44.6409C-14.2406 58.1768 -5.39813 74.499 -28.0749 88.0373C-50.7516 101.576 -59.5982 85.2559 -82.2749 98.7943C-104.952 112.333 -96.1051 128.652 -118.782 142.191" stroke="white" stroke-opacity="0.2" stroke-width="0.220057" stroke-miterlimit="10"/>
<path d="M297.09 23.4678C274.417 37.0036 265.571 20.684 242.894 34.2223C220.217 47.7606 229.064 64.0803 206.391 77.6162C183.718 91.1521 174.868 74.8348 152.191 88.3731C129.514 101.911 138.365 118.229 115.688 131.767C93.0113 145.305 84.1647 128.986 61.4921 142.522C38.8194 156.057 47.6619 172.38 24.9851 185.918C2.30836 199.456 -6.53819 183.137 -29.2149 196.675C-51.8917 210.213 -43.0451 226.533 -65.7219 240.071" stroke="white" stroke-opacity="0.2" stroke-width="0.220057" stroke-miterlimit="10"/>
<path d="M336.867 96.846C314.195 110.382 305.348 94.0622 282.671 107.601C259.995 121.139 268.841 137.459 246.169 150.994C223.496 164.53 214.645 148.213 191.968 161.751C169.292 175.29 178.142 191.607 155.466 205.145C132.789 218.684 123.942 202.364 101.27 215.9C78.597 229.436 87.4395 245.758 64.7627 259.296C42.086 272.834 33.2394 256.515 10.5627 270.053C-12.1141 283.591 -3.26755 299.911 -25.9443 313.449" stroke="white" stroke-opacity="0.2" stroke-width="0.220057" stroke-miterlimit="10"/>
<path d="M230.747 -98.9153C208.075 -85.3794 199.228 -101.699 176.552 -88.1608C153.875 -74.6225 162.721 -58.3028 140.049 -44.7669C117.376 -31.231 108.525 -47.5482 85.8486 -34.0099C63.1719 -20.4716 72.0225 -4.15434 49.3458 9.38398C26.669 22.9223 17.8225 6.60262 -4.85019 20.1385C-27.5229 33.6744 -18.6804 49.9965 -41.3571 63.5348C-64.0339 77.0732 -72.8805 60.7535 -95.5572 74.2918C-118.234 87.8301 -109.387 104.15 -132.064 117.688" stroke="white" stroke-opacity="0.2" stroke-width="0.220057" stroke-miterlimit="10"/>
<path d="M283.817 -1.01613C261.144 12.5198 252.298 -3.79993 229.621 9.73839C206.944 23.2767 215.791 39.5964 193.118 53.1323C170.445 66.6682 161.595 50.3509 138.918 63.8893C116.241 77.4276 125.092 93.7448 102.415 107.283C79.7382 120.821 70.8917 104.502 48.219 118.038C25.5464 131.574 34.3888 147.896 11.7121 161.434C-10.9647 174.972 -19.8112 158.653 -42.488 172.191C-65.1647 185.729 -56.3182 202.049 -78.9949 215.587" stroke="white" stroke-opacity="0.2" stroke-width="0.220057" stroke-miterlimit="10"/>
<path d="M323.604 72.3807C300.931 85.9166 292.084 69.5969 269.408 83.1352C246.731 96.6735 255.577 112.993 232.905 126.529C210.232 140.065 201.381 123.748 178.705 137.286C156.028 150.824 164.879 167.142 142.202 180.68C119.525 194.218 110.679 177.899 88.0059 191.434C65.3333 204.97 74.1757 221.293 51.499 234.831C28.8222 248.369 19.9757 232.049 -2.7011 245.588C-25.3778 259.126 -16.5313 275.446 -39.208 288.984" stroke="white" stroke-opacity="0.2" stroke-width="0.220057" stroke-miterlimit="10"/>
<path d="M257.282 -49.9657C234.609 -36.4298 225.763 -52.7495 203.086 -39.2112C180.409 -25.6729 189.256 -9.35318 166.583 4.18271C143.911 17.7186 135.06 1.40135 112.383 14.9397C89.7065 28.478 98.5572 44.7952 75.8804 58.3336C53.2037 71.8719 44.3571 55.5522 21.6844 69.0881C-0.988214 82.624 7.85424 98.9461 -14.8225 112.484C-37.4993 126.023 -46.3458 109.703 -69.0226 123.241C-91.6993 136.78 -82.8528 153.099 -105.53 166.638" stroke="white" stroke-opacity="0.2" stroke-width="0.220057" stroke-miterlimit="10"/>
<path d="M310.342 47.915C287.669 61.4508 278.823 45.1312 256.146 58.6695C233.469 72.2078 242.316 88.5275 219.643 102.063C196.97 115.599 188.12 99.282 165.443 112.82C142.766 126.359 151.617 142.676 128.94 156.214C106.263 169.753 97.4169 153.433 74.7443 166.969C52.0716 180.505 60.9141 196.827 38.2373 210.365C15.5606 223.903 6.71403 207.584 -15.9627 221.122C-38.6395 234.66 -29.7929 250.98 -52.4697 264.518" stroke="white" stroke-opacity="0.2" stroke-width="0.220057" stroke-miterlimit="10"/>
<path d="M350.12 121.293C327.447 134.829 318.601 118.509 295.924 132.048C273.247 145.586 282.094 161.906 259.421 175.441C236.748 188.977 227.898 172.66 205.221 186.198C182.544 199.737 191.395 216.054 168.718 229.592C146.041 243.131 137.195 226.811 114.522 240.347C91.8495 253.883 100.692 270.205 78.0152 283.743C55.3384 297.282 46.4919 280.962 23.8151 294.5C1.13836 308.039 9.98491 324.358 -12.6918 337.897" stroke="white" stroke-opacity="0.2" stroke-width="0.220057" stroke-miterlimit="10"/>
<path d="M274.965 -17.3451C252.292 -3.80922 243.446 -20.1289 220.769 -6.59059C198.092 6.94774 206.939 23.2674 184.266 36.8033C161.594 50.3392 152.743 34.022 130.066 47.5603C107.389 61.0986 116.24 77.4158 93.5633 90.9542C70.8865 104.493 62.04 88.1728 39.3673 101.709C16.6947 115.245 25.5371 131.567 2.86038 145.105C-19.8164 158.643 -28.6629 142.324 -51.3397 155.862C-74.0164 169.4 -65.1699 185.72 -87.8466 199.258" stroke="white" stroke-opacity="0.2" stroke-width="0.220057" stroke-miterlimit="10"/>
<path d="M248.451 -66.2583C225.778 -52.7224 216.932 -69.0421 194.255 -55.5037C171.578 -41.9654 180.425 -25.6457 157.752 -12.1098C135.08 1.42605 126.229 -14.8912 103.552 -1.35287C80.8755 12.1855 89.7261 28.5027 67.0494 42.041C44.3726 55.5794 35.5261 39.2597 12.8534 52.7955C-9.81927 66.3314 -0.976811 82.6536 -23.6536 96.1919C-46.3303 109.73 -55.1769 93.4105 -77.8536 106.949C-100.53 120.487 -91.6838 136.807 -114.361 150.345" stroke="white" stroke-opacity="0.2" stroke-width="0.220057" stroke-miterlimit="10"/>
<path d="M301.49 31.5865C278.818 45.1224 269.971 28.8027 247.294 42.341C224.617 55.8793 233.464 72.199 210.791 85.7349C188.119 99.2708 179.268 82.9535 156.591 96.4919C133.915 110.03 142.765 126.347 120.088 139.886C97.4117 153.424 88.5652 137.104 65.8925 150.64C43.2198 164.176 52.0623 180.498 29.3855 194.037C6.70879 207.575 -2.13776 191.255 -24.8145 204.794C-47.4913 218.332 -38.6447 234.652 -61.3215 248.19" stroke="white" stroke-opacity="0.2" stroke-width="0.220057" stroke-miterlimit="10"/>
<path d="M341.286 105.001C318.614 118.537 309.767 102.217 287.09 115.756C264.414 129.294 273.26 145.614 250.588 159.15C227.915 172.686 219.064 156.368 196.388 169.907C173.711 183.445 182.561 199.762 159.885 213.301C137.208 226.839 128.361 210.519 105.689 224.055C83.0161 237.591 91.8586 253.913 69.1818 267.451C46.5051 280.99 37.6585 264.67 14.9818 278.208C-7.695 291.747 1.15155 308.066 -21.5252 321.605" stroke="white" stroke-opacity="0.2" stroke-width="0.220057" stroke-miterlimit="10"/>
<path d="M235.169 -90.7608C212.496 -77.2249 203.65 -93.5446 180.973 -80.0062C158.296 -66.4679 167.143 -50.1482 144.47 -36.6123C121.797 -23.0765 112.947 -39.3937 90.2699 -25.8554C67.5932 -12.317 76.4438 4.0002 53.7671 17.5385C31.0903 31.0769 22.2438 14.7572 -0.428873 28.293C-23.1015 41.8289 -14.2591 58.1511 -36.9358 71.6894C-59.6126 85.2277 -68.4591 68.908 -91.1359 82.4464C-113.813 95.9847 -104.966 112.304 -127.643 125.843" stroke="white" stroke-opacity="0.2" stroke-width="0.220057" stroke-miterlimit="10"/>
<path d="M288.238 7.13933C265.565 20.6752 256.719 4.35552 234.042 17.8939C211.365 31.4322 220.212 47.7519 197.539 61.2877C174.867 74.8236 166.016 58.5064 143.339 72.0447C120.662 85.583 129.513 101.9 106.836 115.439C84.1595 128.977 75.313 112.657 52.6403 126.193C29.9676 139.729 38.8101 156.051 16.1333 169.589C-6.54341 183.128 -15.39 166.808 -38.0667 180.346C-60.7435 193.885 -51.8969 210.204 -74.5737 223.743" stroke="white" stroke-opacity="0.2" stroke-width="0.220057" stroke-miterlimit="10"/>
<path d="M328.004 80.4987C305.332 94.0346 296.485 77.7149 273.808 91.2533C251.132 104.792 259.978 121.111 237.306 134.647C214.633 148.183 205.782 131.866 183.105 145.404C160.429 158.942 169.279 175.26 146.603 188.798C123.926 202.336 115.079 186.017 92.4066 199.553C69.734 213.088 78.5764 229.411 55.8997 242.949C33.2229 256.487 24.3764 240.168 1.69963 253.706C-20.9771 267.244 -12.1306 283.564 -34.8073 297.102" stroke="white" stroke-opacity="0.2" stroke-width="0.220057" stroke-miterlimit="10"/>
<path d="M261.694 -41.8293C239.022 -28.2934 230.175 -44.6131 207.498 -31.0748C184.822 -17.5365 193.668 -1.21676 170.995 12.3191C148.323 25.855 139.472 9.53776 116.795 23.0761C94.1187 36.6144 102.969 52.9317 80.2926 66.47C57.6158 80.0083 48.7693 63.6886 26.0966 77.2245C3.42394 90.7604 12.2664 107.083 -10.4104 120.621C-33.0871 134.159 -41.9337 117.839 -64.6104 131.378C-87.2872 144.916 -78.4406 161.236 -101.117 174.774" stroke="white" stroke-opacity="0.2" stroke-width="0.220057" stroke-miterlimit="10"/>
<path d="M314.752 56.0517C292.079 69.5875 283.233 53.2678 260.556 66.8062C237.879 80.3445 246.726 96.6642 224.053 110.2C201.38 123.736 192.53 107.419 169.853 120.957C147.176 134.495 156.027 150.813 133.35 164.351C110.673 177.889 101.827 161.57 79.1542 175.105C56.4816 188.641 65.324 204.963 42.6473 218.502C19.9705 232.04 11.124 215.72 -11.5528 229.259C-34.2295 242.797 -25.383 259.117 -48.0597 272.655" stroke="white" stroke-opacity="0.2" stroke-width="0.220057" stroke-miterlimit="10"/>
<path d="M354.55 129.467C331.878 143.003 323.031 126.683 300.354 140.222C277.677 153.76 286.524 170.08 263.851 183.615C241.179 197.151 232.328 180.834 209.651 194.372C186.975 207.911 195.825 224.228 173.148 237.766C150.472 251.305 141.625 234.985 118.953 248.521C96.2798 262.057 105.122 278.379 82.4456 291.917C59.7688 305.456 50.9222 289.136 28.2455 302.674C5.56875 316.212 14.4153 332.532 -8.26145 346.071" stroke="white" stroke-opacity="0.2" stroke-width="0.220057" stroke-miterlimit="10"/>
<path d="M221.896 -115.245C199.223 -101.709 190.377 -118.029 167.7 -104.49C145.023 -90.9519 153.87 -74.6322 131.197 -61.0963C108.524 -47.5604 99.6738 -63.8776 76.9971 -50.3393C54.3203 -36.801 63.1709 -20.4837 40.4942 -6.94542C17.8174 6.5929 8.9709 -9.72679 -13.7018 3.8091C-36.3744 17.345 -27.532 33.6671 -50.2087 47.2054C-72.8855 60.7438 -81.732 44.4241 -104.409 57.9624C-127.086 71.5007 -118.239 87.8204 -140.916 101.359" stroke="white" stroke-opacity="0.2" stroke-width="0.220057" stroke-miterlimit="10"/>
<path d="M274.965 -17.3451C252.292 -3.80922 243.446 -20.1289 220.769 -6.59059C198.092 6.94774 206.939 23.2674 184.266 36.8033C161.594 50.3392 152.743 34.022 130.066 47.5603C107.389 61.0986 116.24 77.4158 93.5633 90.9542C70.8865 104.493 62.04 88.1728 39.3673 101.709C16.6947 115.245 25.5371 131.567 2.86038 145.105C-19.8164 158.643 -28.6629 142.324 -51.3397 155.862C-74.0164 169.4 -65.1699 185.72 -87.8466 199.258" stroke="white" stroke-opacity="0.2" stroke-width="0.220057" stroke-miterlimit="10"/>
<path d="M248.451 -66.2583C225.778 -52.7224 216.932 -69.0421 194.255 -55.5037C171.578 -41.9654 180.425 -25.6457 157.752 -12.1098C135.08 1.42605 126.229 -14.8912 103.552 -1.35287C80.8755 12.1855 89.7261 28.5027 67.0494 42.041C44.3726 55.5794 35.5261 39.2597 12.8534 52.7955C-9.81927 66.3314 -0.976811 82.6536 -23.6536 96.1919C-46.3303 109.73 -55.1769 93.4105 -77.8536 106.949C-100.53 120.487 -91.6838 136.807 -114.361 150.345" stroke="white" stroke-opacity="0.2" stroke-width="0.220057" stroke-miterlimit="10"/>
<path d="M301.49 31.5865C278.818 45.1224 269.971 28.8027 247.294 42.341C224.617 55.8793 233.464 72.199 210.791 85.7349C188.119 99.2708 179.268 82.9535 156.591 96.4919C133.915 110.03 142.765 126.347 120.088 139.886C97.4117 153.424 88.5652 137.104 65.8925 150.64C43.2198 164.176 52.0623 180.498 29.3855 194.037C6.70879 207.575 -2.13776 191.255 -24.8145 204.794C-47.4913 218.332 -38.6447 234.652 -61.3215 248.19" stroke="white" stroke-opacity="0.2" stroke-width="0.220057" stroke-miterlimit="10"/>
<path d="M341.286 105.001C318.614 118.537 309.767 102.217 287.09 115.756C264.414 129.294 273.26 145.614 250.588 159.15C227.915 172.686 219.064 156.368 196.388 169.907C173.711 183.445 182.561 199.762 159.885 213.301C137.208 226.839 128.361 210.519 105.689 224.055C83.0161 237.591 91.8586 253.913 69.1818 267.451C46.5051 280.99 37.6585 264.67 14.9818 278.208C-7.695 291.747 1.15155 308.066 -21.5252 321.605" stroke="white" stroke-opacity="0.2" stroke-width="0.220057" stroke-miterlimit="10"/>
<path d="M235.169 -90.7608C212.496 -77.2249 203.65 -93.5446 180.973 -80.0062C158.296 -66.4679 167.143 -50.1482 144.47 -36.6123C121.797 -23.0765 112.947 -39.3937 90.2699 -25.8554C67.5932 -12.317 76.4438 4.0002 53.7671 17.5385C31.0903 31.0769 22.2438 14.7572 -0.428873 28.293C-23.1015 41.8289 -14.2591 58.1511 -36.9358 71.6894C-59.6126 85.2277 -68.4591 68.908 -91.1359 82.4464C-113.813 95.9847 -104.966 112.304 -127.643 125.843" stroke="white" stroke-opacity="0.2" stroke-width="0.220057" stroke-miterlimit="10"/>
<path d="M288.238 7.13933C265.565 20.6752 256.719 4.35552 234.042 17.8939C211.365 31.4322 220.212 47.7519 197.539 61.2877C174.867 74.8236 166.016 58.5064 143.339 72.0447C120.662 85.583 129.513 101.9 106.836 115.439C84.1595 128.977 75.313 112.657 52.6403 126.193C29.9676 139.729 38.8101 156.051 16.1333 169.589C-6.54341 183.128 -15.39 166.808 -38.0667 180.346C-60.7435 193.885 -51.8969 210.204 -74.5737 223.743" stroke="white" stroke-opacity="0.2" stroke-width="0.220057" stroke-miterlimit="10"/>
<path d="M328.004 80.4987C305.332 94.0346 296.485 77.7149 273.808 91.2533C251.132 104.792 259.978 121.111 237.306 134.647C214.633 148.183 205.782 131.866 183.105 145.404C160.429 158.942 169.279 175.26 146.603 188.798C123.926 202.336 115.079 186.017 92.4066 199.553C69.734 213.088 78.5764 229.411 55.8997 242.949C33.2229 256.487 24.3764 240.168 1.69963 253.706C-20.9771 267.244 -12.1306 283.564 -34.8073 297.102" stroke="white" stroke-opacity="0.2" stroke-width="0.220057" stroke-miterlimit="10"/>
<path d="M261.694 -41.8293C239.022 -28.2934 230.175 -44.6131 207.498 -31.0748C184.822 -17.5365 193.668 -1.21676 170.995 12.3191C148.323 25.855 139.472 9.53776 116.795 23.0761C94.1187 36.6144 102.969 52.9317 80.2926 66.47C57.6158 80.0083 48.7693 63.6886 26.0966 77.2245C3.42394 90.7604 12.2664 107.083 -10.4104 120.621C-33.0871 134.159 -41.9337 117.839 -64.6104 131.378C-87.2872 144.916 -78.4406 161.236 -101.117 174.774" stroke="white" stroke-opacity="0.2" stroke-width="0.220057" stroke-miterlimit="10"/>
<path d="M314.752 56.0517C292.079 69.5875 283.233 53.2678 260.556 66.8062C237.879 80.3445 246.726 96.6642 224.053 110.2C201.38 123.736 192.53 107.419 169.853 120.957C147.176 134.495 156.027 150.813 133.35 164.351C110.673 177.889 101.827 161.57 79.1542 175.105C56.4816 188.641 65.324 204.963 42.6473 218.502C19.9705 232.04 11.124 215.72 -11.5528 229.259C-34.2295 242.797 -25.383 259.117 -48.0597 272.655" stroke="white" stroke-opacity="0.2" stroke-width="0.220057" stroke-miterlimit="10"/>
<path d="M354.55 129.467C331.878 143.003 323.031 126.683 300.354 140.222C277.677 153.76 286.524 170.08 263.851 183.615C241.179 197.151 232.328 180.834 209.651 194.372C186.975 207.911 195.825 224.228 173.148 237.766C150.472 251.305 141.625 234.985 118.953 248.521C96.2798 262.057 105.122 278.379 82.4456 291.917C59.7688 305.456 50.9222 289.136 28.2455 302.674C5.56875 316.212 14.4153 332.532 -8.26145 346.071" stroke="white" stroke-opacity="0.2" stroke-width="0.220057" stroke-miterlimit="10"/>
<path d="M226.338 -107.052C203.665 -93.5166 194.818 -109.836 172.142 -96.2979C149.465 -82.7596 158.311 -66.4399 135.639 -52.904C112.966 -39.3681 104.116 -55.6854 81.4388 -42.1471C58.762 -28.6087 67.6126 -12.2915 44.9359 1.24684C22.2591 14.7852 13.4126 -1.53452 -9.26006 12.0014C-31.9327 25.5372 -23.0903 41.8594 -45.767 55.3977C-68.4438 68.936 -77.2903 52.6163 -99.9671 66.1547C-122.644 79.693 -113.797 96.0127 -136.474 109.551" stroke="white" stroke-opacity="0.2" stroke-width="0.220057" stroke-miterlimit="10"/>
<path d="M279.386 -9.19014C256.714 4.34575 247.867 -11.9739 225.19 1.56438C202.514 15.1027 211.36 31.4224 188.688 44.9583C166.015 58.4942 157.164 42.1769 134.487 55.7152C111.811 69.2536 120.661 85.5708 97.9846 99.1091C75.3079 112.647 66.4613 96.3278 43.7887 109.864C21.116 123.4 29.9585 139.722 7.28171 153.26C-15.395 166.798 -24.2416 150.479 -46.9183 164.017C-69.5951 177.555 -60.7485 193.875 -83.4253 207.413" stroke="white" stroke-opacity="0.2" stroke-width="0.220057" stroke-miterlimit="10"/>
<path d="M252.852 -58.1397C230.179 -44.6038 221.333 -60.9235 198.656 -47.3852C175.979 -33.8469 184.826 -17.5272 162.153 -3.99131C139.48 9.54457 130.63 -6.77267 107.953 6.76565C85.2762 20.304 94.1268 36.6212 71.4501 50.1595C48.7733 63.6979 39.9268 47.3782 17.2541 60.9141C-5.41855 74.4499 3.42391 90.7721 -19.2528 104.31C-41.9296 117.849 -50.7761 101.529 -73.4529 115.067C-96.1296 128.606 -87.2831 144.925 -109.96 158.464" stroke="white" stroke-opacity="0.2" stroke-width="0.220057" stroke-miterlimit="10"/>
<path d="M305.911 39.7414C283.239 53.2773 274.392 36.9576 251.716 50.4959C229.039 64.0343 237.885 80.3539 215.213 93.8898C192.54 107.426 183.689 91.1085 161.013 104.647C138.336 118.185 147.187 134.502 124.51 148.041C101.833 161.579 92.9865 145.259 70.3138 158.795C47.6411 172.331 56.4836 188.653 33.8069 202.192C11.1301 215.73 2.28355 199.41 -20.3932 212.949C-43.07 226.487 -34.2234 242.807 -56.9002 256.345" stroke="white" stroke-opacity="0.2" stroke-width="0.220057" stroke-miterlimit="10"/>
<path d="M345.699 113.138C323.026 126.674 314.179 110.354 291.503 123.892C268.826 137.431 277.672 153.75 255 167.286C232.327 180.822 223.476 164.505 200.8 178.043C178.123 191.581 186.974 207.899 164.297 221.437C141.62 234.975 132.774 218.656 110.101 232.191C87.4283 245.727 96.2707 262.049 73.594 275.588C50.9172 289.126 42.0707 272.806 19.3939 286.345C-3.28283 299.883 5.56372 316.203 -17.113 329.741" stroke="white" stroke-opacity="0.2" stroke-width="0.220057" stroke-miterlimit="10"/>
<path d="M239.599 -82.5868C216.927 -69.0509 208.08 -85.3706 185.403 -71.8323C162.727 -58.294 171.573 -41.9743 148.901 -28.4384C126.228 -14.9025 117.377 -31.2197 94.7005 -17.6814C72.0237 -4.1431 80.8743 12.1741 58.1976 25.7125C35.5208 39.2508 26.6743 22.9311 4.00163 36.467C-18.671 50.0029 -9.82857 66.325 -32.5053 79.8633C-55.1821 93.4017 -64.0286 77.082 -86.7054 90.6203C-109.382 104.159 -100.536 120.478 -123.212 134.017" stroke="white" stroke-opacity="0.2" stroke-width="0.220057" stroke-miterlimit="10"/>
<path d="M292.639 15.257C269.966 28.7929 261.12 12.4732 238.443 26.0115C215.766 39.5499 224.613 55.8695 201.94 69.4054C179.267 82.9413 170.417 66.6241 147.74 80.1624C125.063 93.7007 133.914 110.018 111.237 123.556C88.5603 137.095 79.7137 120.775 57.0411 134.311C34.3684 147.847 43.2109 164.169 20.5341 177.707C-2.14264 191.245 -10.9892 174.926 -33.6659 188.464C-56.3427 202.002 -47.4961 218.322 -70.1729 231.86" stroke="white" stroke-opacity="0.2" stroke-width="0.220057" stroke-miterlimit="10"/>
<path d="M332.426 88.6542C309.753 102.19 300.906 85.8704 278.23 99.4087C255.553 112.947 264.399 129.267 241.727 142.803C219.054 156.338 210.203 140.021 187.527 153.56C164.85 167.098 173.701 183.415 151.024 196.953C128.347 210.492 119.501 194.172 96.8278 207.708C74.1552 221.244 82.9976 237.566 60.3209 251.104C37.6441 264.643 28.7976 248.323 6.12083 261.861C-16.5559 275.4 -7.70937 291.719 -30.3861 305.258" stroke="white" stroke-opacity="0.2" stroke-width="0.220057" stroke-miterlimit="10"/>
<path d="M266.115 -33.6743C243.443 -20.1384 234.596 -36.4581 211.92 -22.9198C189.243 -9.38149 198.089 6.9382 175.417 20.4741C152.744 34.01 143.893 17.6927 121.217 31.231C98.5399 44.7694 107.391 61.0866 84.7138 74.6249C62.037 88.1633 53.1905 71.8436 30.5178 85.3795C7.84517 98.9153 16.6876 115.237 -5.98913 128.776C-28.6659 142.314 -37.5124 125.994 -60.1892 139.533C-82.8659 153.071 -74.0194 169.391 -96.6961 182.929" stroke="white" stroke-opacity="0.2" stroke-width="0.220057" stroke-miterlimit="10"/>
<path d="M319.173 64.2066C296.5 77.7425 287.654 61.4228 264.977 74.9611C242.3 88.4995 251.147 104.819 228.474 118.355C205.802 131.891 196.951 115.574 174.274 129.112C151.598 142.65 160.448 158.968 137.771 172.506C115.095 186.044 106.248 169.725 83.5754 183.26C60.9028 196.796 69.7452 213.118 47.0685 226.657C24.3917 240.195 15.5452 223.875 -7.13156 237.414C-29.8083 250.952 -20.9618 267.272 -43.6385 280.81" stroke="white" stroke-opacity="0.2" stroke-width="0.220057" stroke-miterlimit="10"/>
<path d="M358.96 137.604C336.287 151.14 327.441 134.82 304.764 148.358C282.087 161.897 290.934 178.216 268.261 191.752C245.589 205.288 236.738 188.971 214.061 202.509C191.385 216.047 200.235 232.365 177.558 245.903C154.882 259.441 146.035 243.122 123.362 256.658C100.69 270.193 109.532 286.516 86.8555 300.054C64.1787 313.592 55.3322 297.273 32.6554 310.811C9.97869 324.349 18.8252 340.669 -3.85151 354.207" stroke="white" stroke-opacity="0.2" stroke-width="0.220057" stroke-miterlimit="10"/>
<path d="M364.812 148.397C342.139 161.932 333.292 145.613 310.616 159.151C287.939 172.689 296.786 189.009 274.113 202.545C251.44 216.081 242.59 199.764 219.913 213.302C197.236 226.84 206.087 243.158 183.41 256.696C160.733 270.234 151.887 253.914 129.214 267.45C106.541 280.986 115.384 297.308 92.707 310.847C70.0303 324.385 61.1837 308.065 38.507 321.604C15.8302 335.142 24.6768 351.462 2.00002 365" stroke="white" stroke-opacity="0.2" stroke-width="0.220057" stroke-miterlimit="10"/>
<path d="M217.499 -123.348C194.827 -109.812 185.98 -126.132 163.303 -112.594C140.627 -99.0552 149.473 -82.7355 126.8 -69.1996C104.128 -55.6637 95.2771 -71.981 72.6004 -58.4427C49.9236 -44.9043 58.7743 -28.5871 36.0975 -15.0488C13.4208 -1.51043 4.57421 -17.8301 -18.0985 -4.29423C-40.7711 9.24165 -31.9287 25.5638 -54.6054 39.1021C-77.2822 52.6404 -86.1287 36.3207 -108.805 49.8591C-131.482 63.3974 -122.636 79.7171 -145.312 93.2554" stroke="white" stroke-opacity="0.2" stroke-width="0.220057" stroke-miterlimit="10"/>
<path d="M212.62 -132.342C189.946 -118.808 181.102 -135.129 158.424 -121.592C135.746 -108.055 144.591 -91.7345 121.917 -78.2004C99.2431 -64.6664 90.3948 -80.9849 67.717 -67.4484C45.0392 -53.9119 53.8874 -37.5933 31.2096 -24.0568C8.53174 -10.5203 -0.312408 -26.8413 -22.9861 -13.3072C-45.6599 0.226865 -36.8198 16.5503 -59.4977 30.0868C-82.1755 43.6233 -91.0197 27.3023 -113.697 40.8389C-136.375 54.3754 -127.531 70.6964 -150.209 84.2329" stroke="white" stroke-opacity="0.2" stroke-width="0.220057" stroke-miterlimit="10"/>
<path d="M221.896 -115.245C199.223 -101.709 190.377 -118.029 167.7 -104.49C145.023 -90.9519 153.87 -74.6322 131.197 -61.0963C108.524 -47.5604 99.6738 -63.8776 76.9971 -50.3393C54.3203 -36.801 63.1709 -20.4837 40.4942 -6.94542C17.8174 6.5929 8.9709 -9.72679 -13.7018 3.8091C-36.3744 17.345 -27.532 33.6671 -50.2087 47.2054C-72.8855 60.7438 -81.732 44.4241 -104.409 57.9624C-127.086 71.5007 -118.239 87.8204 -140.916 101.359" stroke="white" stroke-opacity="0.2" stroke-width="0.220057" stroke-miterlimit="10"/>
</g>
</svg>
