<svg width="20" height="20" viewBox="0 0 20 20" fill="none" xmlns="http://www.w3.org/2000/svg">
<path d="M8.125 10.9375V12.8125C8.125 13.5584 7.82868 14.2738 7.30124 14.8012C6.77379 15.3287 6.05842 15.625 5.3125 15.625C4.56658 15.625 3.85121 15.3287 3.32376 14.8012C2.79632 14.2738 2.5 13.5584 2.5 12.8125V10.9375" stroke="url(#paint0_linear_77_1608)" stroke-linecap="round" stroke-linejoin="round"/>
<path d="M17.5 10.9375V12.8125C17.5 13.5584 17.2037 14.2738 16.6762 14.8012C16.1488 15.3287 15.4334 15.625 14.6875 15.625C13.9416 15.625 13.2262 15.3287 12.6988 14.8012C12.1713 14.2738 11.875 13.5584 11.875 12.8125V10.9375" stroke="url(#paint1_linear_77_1608)" stroke-linecap="round" stroke-linejoin="round"/>
<path d="M15.625 3.75002C15.8715 3.74898 16.1158 3.79678 16.3438 3.89064C16.5717 3.9845 16.7788 4.12257 16.9531 4.29689C17.1275 4.4712 17.2655 4.67831 17.3594 4.90626C17.4533 5.13422 17.5011 5.3785 17.5 5.62502V10.9375H2.50002V5.62502C2.49898 5.3785 2.54678 5.13422 2.64064 4.90626C2.7345 4.67831 2.87257 4.4712 3.04689 4.29689C3.2212 4.12257 3.42831 3.9845 3.65626 3.89064C3.88422 3.79678 4.1285 3.74898 4.37502 3.75002" stroke="url(#paint2_linear_77_1608)" stroke-linecap="round" stroke-linejoin="round"/>
<path d="M13.125 10.9375L16.8281 14.6406" stroke="url(#paint3_linear_77_1608)" stroke-linecap="round" stroke-linejoin="round"/>
<path d="M3.75 10.9375L7.45313 14.6406" stroke="url(#paint4_linear_77_1608)" stroke-linecap="round" stroke-linejoin="round"/>
<defs>
<linearGradient id="paint0_linear_77_1608" x1="5.3125" y1="10.9375" x2="5.3125" y2="16.7856" gradientUnits="userSpaceOnUse">
<stop stop-color="white"/>
<stop offset="1" stop-color="white" stop-opacity="0"/>
</linearGradient>
<linearGradient id="paint1_linear_77_1608" x1="14.6875" y1="10.9375" x2="14.6875" y2="16.7856" gradientUnits="userSpaceOnUse">
<stop stop-color="white"/>
<stop offset="1" stop-color="white" stop-opacity="0"/>
</linearGradient>
<linearGradient id="paint2_linear_77_1608" x1="10" y1="3.75" x2="10" y2="12.7171" gradientUnits="userSpaceOnUse">
<stop stop-color="white"/>
<stop offset="1" stop-color="white" stop-opacity="0"/>
</linearGradient>
<linearGradient id="paint3_linear_77_1608" x1="14.9766" y1="10.9375" x2="14.9766" y2="15.5575" gradientUnits="userSpaceOnUse">
<stop stop-color="white"/>
<stop offset="1" stop-color="white" stop-opacity="0"/>
</linearGradient>
<linearGradient id="paint4_linear_77_1608" x1="5.60156" y1="10.9375" x2="5.60156" y2="15.5575" gradientUnits="userSpaceOnUse">
<stop stop-color="white"/>
<stop offset="1" stop-color="white" stop-opacity="0"/>
</linearGradient>
</defs>
</svg>
