<svg width="365" height="240" viewBox="0 0 365 240" fill="none" xmlns="http://www.w3.org/2000/svg">
<g clip-path="url(#clip0_77_1579)">
<g opacity="0.4">
<circle cx="45.2033" cy="45.2033" r="44.7033" transform="matrix(1 0 0 -1 137.297 43.3428)" stroke="url(#paint0_linear_77_1579)" stroke-opacity="0.2"/>
<circle cx="85.6484" cy="85.6484" r="85.1484" transform="matrix(1 0 0 -1 96.8516 83.7881)" stroke="url(#paint1_linear_77_1579)" stroke-opacity="0.2"/>
<circle cx="104.681" cy="104.681" r="104.181" transform="matrix(1 0 0 -1 77.8184 102.821)" stroke="url(#paint2_linear_77_1579)" stroke-opacity="0.2"/>
<circle cx="120.146" cy="120.146" r="119.646" transform="matrix(1 0 0 -1 62.3545 118.286)" stroke="url(#paint3_linear_77_1579)" stroke-opacity="0.2"/>
<circle cx="136.799" cy="136.799" r="136.299" transform="matrix(1 0 0 -1 45.7002 134.938)" stroke="url(#paint4_linear_77_1579)" stroke-opacity="0.2"/>
<circle cx="152.264" cy="152.264" r="151.764" transform="matrix(1 0 0 -1 30.2363 150.403)" stroke="url(#paint5_linear_77_1579)" stroke-opacity="0.2"/>
<circle cx="170.107" cy="170.107" r="169.607" transform="matrix(1 0 0 -1 12.3926 168.247)" stroke="url(#paint6_linear_77_1579)" stroke-opacity="0.2"/>
<circle cx="189.14" cy="189.14" r="188.64" transform="matrix(1 0 0 -1 -6.63965 187.28)" stroke="url(#paint7_linear_77_1579)" stroke-opacity="0.2"/>
<circle cx="203.415" cy="203.415" r="203.165" transform="matrix(1 0 0 -1 -20.9148 431.555)" stroke="url(#paint8_linear_77_1579)" stroke-opacity="0.2" stroke-width="0.5"/>
<circle cx="216.5" cy="216.5" r="216.25" transform="matrix(1 0 0 -1 -34 444.64)" stroke="url(#paint9_linear_77_1579)" stroke-opacity="0.2" stroke-width="0.5"/>
</g>
</g>
<defs>
<linearGradient id="paint0_linear_77_1579" x1="45.2033" y1="0" x2="45.2033" y2="90.4066" gradientUnits="userSpaceOnUse">
<stop stop-color="#D3D3D3"/>
<stop offset="1" stop-color="#EAB452" stop-opacity="0"/>
</linearGradient>
<linearGradient id="paint1_linear_77_1579" x1="85.6484" y1="0" x2="85.6484" y2="171.297" gradientUnits="userSpaceOnUse">
<stop stop-color="#D3D3D3"/>
<stop offset="1" stop-color="#EAB452" stop-opacity="0"/>
</linearGradient>
<linearGradient id="paint2_linear_77_1579" x1="104.681" y1="0" x2="104.681" y2="209.363" gradientUnits="userSpaceOnUse">
<stop stop-color="#D3D3D3"/>
<stop offset="1" stop-color="#EAB452" stop-opacity="0"/>
</linearGradient>
<linearGradient id="paint3_linear_77_1579" x1="120.146" y1="0" x2="120.146" y2="240.291" gradientUnits="userSpaceOnUse">
<stop stop-color="#D3D3D3"/>
<stop offset="1" stop-color="#EAB452" stop-opacity="0"/>
</linearGradient>
<linearGradient id="paint4_linear_77_1579" x1="136.799" y1="0" x2="136.799" y2="273.599" gradientUnits="userSpaceOnUse">
<stop stop-color="#D3D3D3"/>
<stop offset="1" stop-color="#EAB452" stop-opacity="0"/>
</linearGradient>
<linearGradient id="paint5_linear_77_1579" x1="152.264" y1="0" x2="152.264" y2="304.527" gradientUnits="userSpaceOnUse">
<stop stop-color="#D3D3D3"/>
<stop offset="1" stop-color="#EAB452" stop-opacity="0"/>
</linearGradient>
<linearGradient id="paint6_linear_77_1579" x1="170.107" y1="0" x2="170.107" y2="340.214" gradientUnits="userSpaceOnUse">
<stop stop-color="#D3D3D3"/>
<stop offset="1" stop-color="#EAB452" stop-opacity="0"/>
</linearGradient>
<linearGradient id="paint7_linear_77_1579" x1="189.14" y1="0" x2="189.14" y2="378.28" gradientUnits="userSpaceOnUse">
<stop stop-color="#D3D3D3"/>
<stop offset="1" stop-color="#EAB452" stop-opacity="0"/>
</linearGradient>
<linearGradient id="paint8_linear_77_1579" x1="203.415" y1="0" x2="203.415" y2="406.83" gradientUnits="userSpaceOnUse">
<stop stop-color="#D3D3D3"/>
<stop offset="1" stop-color="#EAB452" stop-opacity="0"/>
</linearGradient>
<linearGradient id="paint9_linear_77_1579" x1="216.5" y1="0" x2="216.5" y2="433" gradientUnits="userSpaceOnUse">
<stop stop-color="#D3D3D3"/>
<stop offset="1" stop-color="#EAB452" stop-opacity="0"/>
</linearGradient>
<clipPath id="clip0_77_1579">
<rect width="365" height="240" fill="white"/>
</clipPath>
</defs>
</svg>
