<svg width="20" height="20" viewBox="0 0 20 20" fill="none" xmlns="http://www.w3.org/2000/svg">
<path d="M16.3672 6.28157L13.7422 8.75032L16.2422 15.6253L14.3672 17.5003L10.6328 12.0316L8.74219 13.7503V15.6253L6.86719 17.5003L5.75781 14.2269L2.49219 13.1253L4.36719 11.2503H6.24219L8.11719 9.37532L2.49219 5.62532L4.36719 3.75032L11.2422 6.25032L13.7188 3.63314L13.6641 3.6722C14.0163 3.31996 14.494 3.12207 14.9922 3.12207C15.4903 3.12207 15.9681 3.31996 16.3203 3.6722C16.6726 4.02444 16.8704 4.50218 16.8704 5.00032C16.8704 5.49847 16.6726 5.97621 16.3203 6.32845L16.3672 6.28157Z" stroke="url(#paint0_linear_77_1596)" stroke-linecap="round" stroke-linejoin="round"/>
<defs>
<linearGradient id="paint0_linear_77_1596" x1="9.68131" y1="3.12207" x2="9.68131" y2="21.0603" gradientUnits="userSpaceOnUse">
<stop stop-color="white"/>
<stop offset="1" stop-color="white" stop-opacity="0"/>
</linearGradient>
</defs>
</svg>
