<svg width="20" height="20" viewBox="0 0 20 20" fill="none" xmlns="http://www.w3.org/2000/svg">
<path d="M1.82816 5.91421C1.74123 5.7789 1.71054 5.615 1.74265 5.45741C1.77475 5.29982 1.8671 5.16098 2.00003 5.07046C4.33267 3.3989 7.13031 2.5 10 2.5C12.8698 2.5 15.6674 3.3989 18 5.07046C18.133 5.16098 18.2253 5.29982 18.2574 5.45741C18.2895 5.615 18.2588 5.7789 18.1719 5.91421L10.5235 17.922C10.468 18.0108 10.3908 18.084 10.2993 18.1348C10.2077 18.1856 10.1047 18.2122 10 18.2122C9.89533 18.2122 9.79236 18.1856 9.70079 18.1348C9.60922 18.084 9.53207 18.0108 9.47659 17.922L1.82816 5.91421Z" stroke="url(#paint0_linear_77_1612)" stroke-linecap="round" stroke-linejoin="round"/>
<path d="M2.86719 7.547C4.87914 5.89933 7.39947 4.99902 10 4.99902C12.6005 4.99902 15.1209 5.89933 17.1328 7.547" stroke="url(#paint1_linear_77_1612)" stroke-linecap="round" stroke-linejoin="round"/>
<path d="M12.8359 14.2894C12.5084 14.1961 12.2072 14.0277 11.9563 13.7975C11.7053 13.5673 11.5116 13.2816 11.3905 12.9634C11.2694 12.6451 11.2243 12.3029 11.2588 11.9641C11.2933 11.6254 11.4063 11.2993 11.589 11.0119C11.7717 10.7245 12.019 10.4838 12.3112 10.3088C12.6033 10.1339 12.9323 10.0295 13.2719 10.0041C13.6115 9.97874 13.9523 10.033 14.2672 10.1625C14.5822 10.2921 14.8625 10.4933 15.0859 10.7503" stroke="url(#paint2_linear_77_1612)" stroke-linecap="round" stroke-linejoin="round"/>
<path d="M4.52344 10.1406C4.66838 9.77007 4.91165 9.44607 5.22706 9.2035C5.54246 8.96094 5.91805 8.80899 6.31339 8.76402C6.70874 8.71905 7.10886 8.78276 7.47068 8.94829C7.83251 9.11382 8.14233 9.37491 8.3668 9.70344C8.59127 10.032 8.72188 10.4155 8.74457 10.8128C8.76726 11.21 8.68117 11.6059 8.49558 11.9579C8.30998 12.3098 8.0319 12.6045 7.69128 12.8101C7.35066 13.0158 6.96039 13.1247 6.5625 13.125H6.42187" stroke="url(#paint3_linear_77_1612)" stroke-linecap="round" stroke-linejoin="round"/>
<defs>
<linearGradient id="paint0_linear_77_1612" x1="10" y1="2.5" x2="10" y2="22.1025" gradientUnits="userSpaceOnUse">
<stop stop-color="white"/>
<stop offset="1" stop-color="white" stop-opacity="0"/>
</linearGradient>
<linearGradient id="paint1_linear_77_1612" x1="10" y1="4.99902" x2="10" y2="8.17786" gradientUnits="userSpaceOnUse">
<stop stop-color="white"/>
<stop offset="1" stop-color="white" stop-opacity="0"/>
</linearGradient>
<linearGradient id="paint2_linear_77_1612" x1="13.1667" y1="9.99805" x2="13.1667" y2="15.3519" gradientUnits="userSpaceOnUse">
<stop stop-color="white"/>
<stop offset="1" stop-color="white" stop-opacity="0"/>
</linearGradient>
<linearGradient id="paint3_linear_77_1612" x1="6.63578" y1="8.75" x2="6.63578" y2="14.2082" gradientUnits="userSpaceOnUse">
<stop stop-color="white"/>
<stop offset="1" stop-color="white" stop-opacity="0"/>
</linearGradient>
</defs>
</svg>
