<svg width="111" height="12" viewBox="0 0 111 12" fill="none" xmlns="http://www.w3.org/2000/svg">
<g id="IndusInd_Bank_SVG_Logo 1" clip-path="url(#clip0_442_1059)">
<g id="g18">
<g id="g32">
<path id="path34" fill-rule="evenodd" clip-rule="evenodd" d="M14.4952 8.55977L13.8394 11.7041H10.9732C11.191 10.6633 11.4094 9.54721 11.657 8.48237C11.7075 8.25126 11.7637 8.01481 11.817 7.757C11.817 7.57446 11.8434 7.39298 11.8732 7.21097C11.9815 5.93904 11.0265 5.70419 10.1012 6.09436C9.55044 6.30199 9.30508 6.66441 9.03614 7.13358C8.78742 7.54937 8.70938 7.93741 8.59653 8.45675L7.88629 11.7041H5.0459L6.71061 3.96469C7.58535 3.93854 8.45729 3.91239 9.33371 3.88837C9.22592 4.38049 9.08892 4.84859 9.00695 5.34177C10.0737 4.12108 11.4335 3.49873 13.0213 3.93854C14.6046 4.35433 14.9348 5.86272 14.6849 7.31399C14.654 7.757 14.6046 8.14504 14.4952 8.55977Z" fill="white"/>
</g>
<g id="g36">
<path id="path38" fill-rule="evenodd" clip-rule="evenodd" d="M66.2969 0.461634H69.0834L66.5984 11.7286H64.0337C64.1409 11.3128 64.2487 10.8992 64.3879 10.4802C63.8669 10.9499 63.4323 11.3379 62.858 11.5994V9.91065C63.0764 9.86048 63.2976 9.78041 63.4862 9.67847C64.3088 9.18421 64.631 8.30139 64.631 7.41803L64.5783 6.97715C64.5249 6.56349 64.3352 6.19734 63.8405 5.99184C63.571 5.83438 63.1859 5.83438 62.858 5.88776V3.88726C63.0202 3.88726 63.1572 3.9385 63.2976 3.9385C64.0881 4.12051 64.768 4.61583 65.1554 5.36735L66.2969 0.461634ZM62.858 11.5994C62.6682 11.7035 62.452 11.7548 62.2011 11.8049C61.4414 11.9864 60.999 12.0393 60.2085 11.7548C59.2821 11.442 58.8194 10.8458 58.464 10.0409C57.6449 8.06867 58.5426 5.26434 60.5639 4.30305C61.2185 3.99027 62.0641 3.81093 62.858 3.88726V5.88776C62.6407 5.91391 62.3976 5.99184 62.2308 6.09432C61.766 6.38095 61.4644 6.79567 61.3022 7.28779C61.1135 7.77991 60.999 8.48233 61.1658 9.0006C61.2185 9.26107 61.3303 9.44575 61.4914 9.59894C61.8732 9.91065 62.3976 9.98804 62.858 9.91065" fill="white"/>
</g>
<g id="g40">
<path id="path42" fill-rule="evenodd" clip-rule="evenodd" d="M43.1404 4.07094L42.5677 5.73144C41.7772 5.52541 41.2006 5.41866 40.3837 5.36795C40.1355 5.36795 39.9491 5.3418 39.7588 5.39197C39.1816 5.52541 38.9351 6.01646 39.3736 6.38102C39.9176 6.89929 40.8749 7.02739 41.5571 7.44425C41.7238 7.54993 41.913 7.70526 42.1028 7.86058C42.6446 8.66494 42.5677 9.52215 41.9956 10.3548C41.0922 11.6246 39.3736 11.7548 37.8167 11.6508C36.97 11.5968 36.2592 11.4426 35.4114 11.2873L35.9336 9.417C36.97 9.67854 37.6269 9.91286 38.6038 9.80557C39.0446 9.78048 39.6762 9.80557 39.6762 9.23659C39.5645 8.82026 39.1563 8.55979 38.7167 8.37938C38.0643 8.09383 37.3535 7.91235 36.8353 7.4181C36.5304 7.00337 36.4467 6.69166 36.4467 6.17285C36.4467 5.65351 36.6146 5.29163 36.86 4.95269C38.2552 3.05948 41.1236 3.6039 43.1404 4.07094Z" fill="white"/>
</g>
<g id="g44">
<path id="path46" fill-rule="evenodd" clip-rule="evenodd" d="M26.9486 3.88734L29.8424 3.8361C29.6245 4.79738 29.4039 5.7576 29.1855 6.76853C29.053 7.41811 28.779 8.25129 28.971 8.89874C29.0816 9.26115 29.2118 9.39192 29.5706 9.49494C29.9805 9.62624 30.5026 9.54724 30.8294 9.31346C31.8097 8.63987 32.0831 7.52165 32.3285 6.4312L32.9292 3.8361H35.7432L33.9932 11.7041C33.1751 11.7287 32.3549 11.678 31.5082 11.7041C31.5896 11.2606 31.7013 10.6115 31.8097 10.1701C31.5082 10.4311 31.2645 10.7178 30.9361 10.9499C30.5279 11.2606 30.0344 11.4693 29.5167 11.5995C28.9148 11.7287 28.0957 11.7287 27.5219 11.4944C26.8925 11.2606 26.4298 10.7178 26.1834 10.1184C25.8566 9.31346 25.9914 8.7701 26.1295 7.93745C26.3468 6.58866 26.6494 5.21211 26.9486 3.88734Z" fill="white"/>
</g>
<g id="g48">
<path id="path50" fill-rule="evenodd" clip-rule="evenodd" d="M23.7244 0.461634H26.5109L23.9996 11.7286H21.4315C21.541 11.3128 21.6774 10.8992 21.7846 10.4802C21.2967 10.9499 20.833 11.3379 20.2855 11.5994V9.91065C20.5051 9.86048 20.7207 9.78041 20.9149 9.67847C21.7032 9.18421 22.0345 8.30139 22.0345 7.41803L22.003 6.97715C21.9503 6.56349 21.7318 6.19734 21.2451 5.99184C20.9655 5.83438 20.5848 5.83438 20.2855 5.88776V3.88726C20.4225 3.88726 20.555 3.9385 20.7207 3.9385C21.4865 4.12051 22.1687 4.61583 22.5785 5.36735L23.7244 0.461634ZM20.2855 11.5994C20.0683 11.7035 19.8482 11.7548 19.6264 11.8049C18.8668 11.9864 18.4047 12.0393 17.6119 11.7548C16.7063 11.442 16.215 10.8458 15.8585 10.0409C15.0646 8.06867 15.9747 5.26434 17.9651 4.30305C18.6197 3.99027 19.4928 3.81093 20.2855 3.88726V5.88776C20.0402 5.91391 19.8229 5.99184 19.6264 6.09432C19.1935 6.38095 18.8668 6.79567 18.7 7.28779C18.5114 7.77991 18.4047 8.48233 18.563 9.0006C18.6197 9.26107 18.7286 9.44575 18.9162 9.59894C19.303 9.91065 19.7909 9.98804 20.2855 9.91065" fill="white"/>
</g>
<g id="g52">
<path id="path54" fill-rule="evenodd" clip-rule="evenodd" d="M2.94392 0.461598H5.86516L3.43632 11.7035H0.487564" fill="white"/>
</g>
<g id="g56">
<path id="path58" fill-rule="evenodd" clip-rule="evenodd" d="M57.1254 8.55977L56.4398 11.7041H53.5461C53.7909 10.6633 54.0363 9.54721 54.2569 8.48237C54.3114 8.25126 54.3686 8.01481 54.4495 7.78422C54.4495 7.57446 54.4495 7.39298 54.4736 7.21097C54.614 5.93904 53.5966 5.70419 52.6983 6.09436C52.1795 6.32761 51.9342 6.66441 51.6624 7.13358C51.3913 7.54937 51.307 7.96463 51.2256 8.45675L50.4856 11.7041H47.7014L49.3133 3.96469C50.1841 3.93854 51.0645 3.93854 51.9342 3.88837C51.8264 4.38049 51.7147 4.84859 51.604 5.34177C52.6697 4.12108 54.0363 3.49873 55.6196 3.93854C57.2057 4.35433 57.5347 5.86272 57.3163 7.34121C57.2601 7.757 57.2057 8.14504 57.1254 8.55977Z" fill="white"/>
</g>
<g id="g60">
<path id="path62" fill-rule="evenodd" clip-rule="evenodd" d="M45.3796 0.461598H48.3295L45.9006 11.7035H42.9474" fill="white"/>
</g>
<g id="g64">
<path id="path66" fill-rule="evenodd" clip-rule="evenodd" d="M100.05 8.63978L99.369 11.8049H96.4742C96.6926 10.7417 96.9666 9.59893 97.1878 8.55972C97.2361 8.30085 97.2933 8.06867 97.35 7.80766C97.35 7.62565 97.3731 7.44418 97.4028 7.2595C97.5146 5.98757 96.5298 5.75752 95.5989 6.14395C95.0801 6.35479 94.837 6.7172 94.54 7.18531C94.2907 7.60056 94.2098 7.99127 94.1009 8.50848L93.3862 11.7809H90.5469L92.1886 3.99026C93.0572 3.96411 93.9617 3.93796 94.837 3.91234C94.7264 4.40499 94.6152 4.90031 94.508 5.36734C95.5472 4.14665 96.9666 3.52323 98.5246 3.93796C100.161 4.38044 100.461 5.91391 100.243 7.36785C100.213 7.80766 100.132 8.19677 100.05 8.63978Z" fill="white"/>
</g>
<g id="g68">
<path id="path70" fill-rule="evenodd" clip-rule="evenodd" d="M103.329 0.461751H106.195L104.719 7.15981L107.616 3.93861H110.837L107.454 7.49661L109.58 11.7549H106.521L104.64 7.62577L103.738 11.7549H100.926" fill="white"/>
</g>
<g id="g72">
<path id="path74" fill-rule="evenodd" clip-rule="evenodd" d="M90.0305 7.62571C89.7846 8.74232 89.5393 9.83277 89.3169 10.9243L89.2103 11.805H86.8342L87.0015 10.6115C86.5916 11.0001 86.152 11.338 85.6894 11.5728V10.2224C85.7141 10.1963 85.7674 10.1963 85.8208 10.1685C86.1256 10.0142 86.3452 9.9107 86.5063 9.75324C86.8898 9.36574 87.0829 8.7706 87.2412 8.27528H86.8342C86.4833 8.27528 86.0695 8.25126 85.6894 8.27528V6.9772C86.2604 6.92596 86.9167 6.94998 87.5697 6.94998C87.5697 6.27371 87.2979 5.75757 86.5608 5.60332C86.234 5.54994 85.9359 5.54994 85.6894 5.54994V3.93854C87.4647 3.73305 89.3489 4.01754 90.0042 5.54994C90.3292 6.32762 90.1423 6.82081 90.0305 7.62571ZM85.6894 11.5728C85.2515 11.781 84.7579 11.9123 84.2953 11.9614C83.2285 12.0644 82.1107 11.5995 81.6469 10.6633C81.3168 10.1434 81.4027 9.5739 81.5346 8.9777C81.675 8.40659 81.9495 8.09381 82.6536 7.62571C83.6659 7.15974 84.6541 7.00228 85.6894 6.9772V8.27528C85.2784 8.30144 84.8691 8.40659 84.5962 8.58913C84.0511 8.9777 83.8349 9.70467 84.4312 10.1434C84.7866 10.3767 85.2784 10.3548 85.6894 10.2224V11.5728ZM85.6894 5.54994C85.3042 5.54994 84.9752 5.57503 84.5423 5.68018C84.0511 5.78266 83.6957 5.93905 83.2285 6.14454L83.5564 4.32925C84.2156 4.175 84.9191 4.01754 85.6894 3.93854" fill="white"/>
</g>
<g id="g76">
<path id="path78" fill-rule="evenodd" clip-rule="evenodd" d="M76.0216 1.37058H77.5229C78.8367 1.37058 80.8563 1.55206 81.2336 3.006C81.3172 3.23978 81.3436 3.47143 81.3436 3.70468V3.73297C81.3436 4.58644 80.9102 5.34116 80.091 5.86264C79.5155 6.11991 79.0276 6.25068 78.4538 6.406C79.9254 6.63925 80.8849 7.60054 80.5823 9.13294C80.1415 11.2605 78.0417 11.5962 76.0216 11.7286V9.86044C76.1299 9.86044 76.2422 9.83269 76.3231 9.80547C78.0142 9.5466 78.3948 7.6774 76.788 7.34113C76.5381 7.28776 76.2967 7.25947 76.0216 7.28776V5.62512C76.3495 5.62512 76.7049 5.59897 77.003 5.54986C77.9064 5.34116 79.1051 4.4594 78.1214 3.47143C77.7116 3.05937 76.7313 3.10955 76.0216 3.16079V1.37058ZM73.2912 1.37058H76.0216V3.16079H75.7751L75.2002 5.59897C75.4472 5.59897 75.751 5.62512 76.0216 5.62512V7.28776C75.6387 7.28776 75.2288 7.34113 74.847 7.36782L74.2738 9.96186C74.7628 9.9357 75.4219 9.9357 76.0216 9.86044V11.7286C75.856 11.7547 75.6707 11.7547 75.4994 11.7809H71.078" fill="white"/>
</g>
</g>
</g>
<defs>
<clipPath id="clip0_442_1059">
<rect width="110.87" height="12" fill="white"/>
</clipPath>
</defs>
</svg>
