<svg width="160" height="250" viewBox="0 0 160 250" fill="none" xmlns="http://www.w3.org/2000/svg">
<g clip-path="url(#clip0_153_10441)">
<g opacity="0.4">
<path d="M226.525 -8.83851C203.852 4.69737 195.005 -11.6223 172.329 1.916C149.652 15.4543 158.498 31.774 135.826 45.3099C113.153 58.8458 104.302 42.5285 81.6257 56.0669C58.9489 69.6052 67.7996 85.9224 45.1228 99.4608C22.4461 112.999 13.5995 96.6794 -9.07314 110.215C-31.7458 123.751 -22.9033 140.073 -45.5801 153.612C-68.2568 167.15 -77.1034 150.83 -99.7801 164.369C-122.457 177.907 -113.61 194.227 -136.287 207.765" stroke="white" stroke-opacity="0.2" stroke-width="0.220057" stroke-miterlimit="10"/>
<path d="M200.008 -57.7506C177.336 -44.2147 168.489 -60.5344 145.812 -46.9961C123.136 -33.4578 131.982 -17.1381 109.31 -3.60221C86.6369 9.93368 77.7863 -6.38357 55.1095 7.15476C32.4328 20.6931 41.2834 37.0103 18.6067 50.5487C-4.07006 64.087 -12.9166 47.7673 -35.5893 61.3032C-58.2619 74.8391 -49.4195 91.1612 -72.0962 104.7C-94.773 118.238 -103.62 101.918 -126.296 115.456C-148.973 128.995 -140.126 145.315 -162.803 158.853" stroke="white" stroke-opacity="0.2" stroke-width="0.220057" stroke-miterlimit="10"/>
<path d="M253.068 40.1302C230.396 53.6661 221.549 37.3464 198.872 50.8848C176.196 64.4231 185.042 80.7428 162.369 94.2787C139.697 107.815 130.846 91.4973 108.169 105.036C85.4926 118.574 94.3433 134.891 71.6665 148.43C48.9898 161.968 40.1432 145.648 17.4705 159.184C-5.20212 172.72 3.64034 189.042 -19.0364 202.58C-41.7132 216.119 -50.5597 199.799 -73.2365 213.337C-95.9132 226.876 -87.0667 243.195 -109.743 256.734" stroke="white" stroke-opacity="0.2" stroke-width="0.220057" stroke-miterlimit="10"/>
<path d="M292.846 113.508C270.173 127.044 261.327 110.724 238.65 124.263C215.973 137.801 224.82 154.121 202.147 167.657C179.474 181.192 170.624 164.875 147.947 178.414C125.27 191.952 134.121 208.269 111.444 221.807C88.7673 235.346 79.9208 219.026 57.2481 232.562C34.5755 246.098 43.4179 262.42 20.7412 275.958C-1.93557 289.497 -10.7821 273.177 -33.4589 286.715C-56.1356 300.254 -47.2891 316.573 -69.9658 330.112" stroke="white" stroke-opacity="0.2" stroke-width="0.220057" stroke-miterlimit="10"/>
<path d="M186.726 -82.2526C164.054 -68.7167 155.207 -85.0364 132.53 -71.4981C109.853 -57.9597 118.7 -41.64 96.0274 -28.1042C73.3547 -14.5683 64.5041 -30.8855 41.8273 -17.3472C19.1506 -3.80887 28.0012 12.5084 5.32446 26.0467C-17.3523 39.585 -26.1988 23.2653 -48.8715 36.8012C-71.5442 50.3371 -62.7017 66.6592 -85.3785 80.1976C-108.055 93.7359 -116.902 77.4162 -139.579 90.9545C-162.255 104.493 -153.409 120.813 -176.085 134.351" stroke="white" stroke-opacity="0.2" stroke-width="0.220057" stroke-miterlimit="10"/>
<path d="M239.795 15.6468C217.123 29.1827 208.276 12.863 185.599 26.4014C162.923 39.9397 171.769 56.2594 149.096 69.7953C126.424 83.3311 117.573 67.0139 94.8964 80.5522C72.2197 94.0905 81.0703 110.408 58.3936 123.946C35.7168 137.484 26.8703 121.165 4.19759 134.701C-18.4751 148.237 -9.63261 164.559 -32.3094 178.097C-54.9861 191.635 -63.8327 175.316 -86.5094 188.854C-109.186 202.392 -100.34 218.712 -123.016 232.25" stroke="white" stroke-opacity="0.2" stroke-width="0.220057" stroke-miterlimit="10"/>
<path d="M279.582 89.0433C256.909 102.579 248.063 86.2595 225.386 99.7978C202.709 113.336 211.556 129.656 188.883 143.192C166.211 156.728 157.36 140.41 134.683 153.949C112.007 167.487 120.857 183.804 98.1804 197.343C75.5037 210.881 66.6571 194.561 43.9845 208.097C21.3118 221.633 30.1543 237.955 7.4775 251.493C-15.1992 265.032 -24.0458 248.712 -46.7225 262.25C-69.3993 275.789 -60.5528 292.108 -83.2295 305.647" stroke="white" stroke-opacity="0.2" stroke-width="0.220057" stroke-miterlimit="10"/>
<path d="M213.261 -33.3034C190.588 -19.7675 181.741 -36.0872 159.065 -22.5488C136.388 -9.01051 145.234 7.30917 122.562 20.8451C99.8891 34.3809 91.0385 18.0637 68.3617 31.602C45.685 45.1404 54.5356 61.4576 31.8589 74.9959C9.18213 88.5342 0.335584 72.2146 -22.3371 85.7504C-45.0097 99.2863 -36.1673 115.608 -58.844 129.147C-81.5208 142.685 -90.3673 126.365 -113.044 139.904C-135.721 153.442 -126.874 169.762 -149.551 183.3" stroke="white" stroke-opacity="0.2" stroke-width="0.220057" stroke-miterlimit="10"/>
<path d="M266.321 64.5775C243.648 78.1134 234.801 61.7937 212.125 75.332C189.448 88.8703 198.295 105.19 175.622 118.726C152.949 132.262 144.099 115.945 121.422 129.483C98.7451 143.021 107.596 159.338 84.9189 172.877C62.2422 186.415 53.3956 170.095 30.723 183.631C8.05032 197.167 16.8928 213.489 -5.78397 227.028C-28.4607 240.566 -37.3073 224.246 -59.984 237.785C-82.6608 251.323 -73.8142 267.643 -96.491 281.181" stroke="white" stroke-opacity="0.2" stroke-width="0.220057" stroke-miterlimit="10"/>
<path d="M306.099 137.955C283.426 151.491 274.579 135.172 251.903 148.71C229.226 162.248 238.072 178.568 215.4 192.104C192.727 205.64 183.876 189.322 161.2 202.861C138.523 216.399 147.374 232.716 124.697 246.255C102.02 259.793 93.1735 243.473 70.5008 257.009C47.8282 270.545 56.6706 286.867 33.9939 300.406C11.3171 313.944 2.47056 297.624 -20.2062 311.163C-42.8829 324.701 -34.0364 341.021 -56.7131 354.559" stroke="white" stroke-opacity="0.2" stroke-width="0.220057" stroke-miterlimit="10"/>
<path d="M230.944 -0.682266C208.271 12.8536 199.425 -3.46607 176.748 10.0723C154.071 23.6106 162.918 39.9303 140.245 53.4662C117.572 67.002 108.722 50.6848 86.0448 64.2231C63.3681 77.7614 72.2187 94.0787 49.542 107.617C26.8652 121.155 18.0187 104.836 -4.65397 118.372C-27.3266 131.907 -18.4842 148.23 -41.1609 161.768C-63.8377 175.306 -72.6842 158.987 -95.361 172.525C-118.038 186.063 -109.191 202.383 -131.868 215.921" stroke="white" stroke-opacity="0.2" stroke-width="0.220057" stroke-miterlimit="10"/>
<path d="M204.43 -49.5954C181.757 -36.0595 172.91 -52.3792 150.234 -38.8408C127.557 -25.3025 136.403 -8.98282 113.731 4.55307C91.0581 18.089 82.2074 1.77171 59.5307 15.31C36.8539 28.8484 45.7046 45.1656 23.0278 58.7039C0.351079 72.2423 -8.49547 55.9226 -31.1681 69.4585C-53.8408 82.9943 -44.9983 99.3165 -67.6751 112.855C-90.3518 126.393 -99.1984 110.073 -121.875 123.612C-144.552 137.15 -135.705 153.47 -158.382 167.008" stroke="white" stroke-opacity="0.2" stroke-width="0.220057" stroke-miterlimit="10"/>
<path d="M257.469 48.2494C234.796 61.7853 225.95 45.4656 203.273 59.0039C180.596 72.5422 189.443 88.8619 166.77 102.398C144.097 115.934 135.247 99.6164 112.57 113.155C89.8932 126.693 98.7439 143.01 76.0671 156.549C53.3904 170.087 44.5438 153.767 21.8712 167.303C-0.801484 180.839 8.04097 197.161 -14.6358 210.7C-37.3125 224.238 -46.1591 207.918 -68.8358 221.456C-91.5126 234.995 -82.666 251.315 -105.343 264.853" stroke="white" stroke-opacity="0.2" stroke-width="0.220057" stroke-miterlimit="10"/>
<path d="M297.265 121.663C274.592 135.199 265.746 118.88 243.069 132.418C220.392 145.956 229.239 162.276 206.566 175.812C183.894 189.348 175.043 173.03 152.366 186.569C129.689 200.107 138.54 216.424 115.863 229.963C93.1865 243.501 84.34 227.181 61.6673 240.717C38.9947 254.253 47.8371 270.575 25.1604 284.114C2.48362 297.652 -6.36294 281.332 -29.0397 294.871C-51.7164 308.409 -42.8699 324.729 -65.5466 338.267" stroke="white" stroke-opacity="0.2" stroke-width="0.220057" stroke-miterlimit="10"/>
<path d="M191.147 -74.0983C168.475 -60.5624 159.628 -76.8821 136.951 -63.3438C114.275 -49.8054 123.121 -33.4857 100.449 -19.9499C77.7759 -6.41398 68.9252 -22.7312 46.2485 -9.1929C23.5717 4.34543 32.4224 20.6627 9.7456 34.201C-12.9311 47.7393 -21.7777 31.4196 -44.4504 44.9555C-67.123 58.4914 -58.2806 74.8135 -80.9573 88.3519C-103.634 101.89 -112.481 85.5705 -135.157 99.1088C-157.834 112.647 -148.988 128.967 -171.664 142.505" stroke="white" stroke-opacity="0.2" stroke-width="0.220057" stroke-miterlimit="10"/>
<path d="M244.217 23.8021C221.544 37.338 212.697 21.0183 190.021 34.5566C167.344 48.095 176.191 64.4146 153.518 77.9505C130.845 91.4864 121.995 75.1692 99.3178 88.7075C76.641 102.246 85.4917 118.563 62.8149 132.101C40.1382 145.64 31.2916 129.32 8.61898 142.856C-14.0537 156.392 -5.21122 172.714 -27.888 186.252C-50.5647 199.791 -59.4113 183.471 -82.088 197.009C-104.765 210.548 -95.9182 226.867 -118.595 240.406" stroke="white" stroke-opacity="0.2" stroke-width="0.220057" stroke-miterlimit="10"/>
<path d="M283.983 97.1615C261.31 110.697 252.464 94.3777 229.787 107.916C207.11 121.454 215.957 137.774 193.284 151.31C170.612 164.846 161.761 148.529 139.084 162.067C116.407 175.605 125.258 191.922 102.581 205.461C79.9045 218.999 71.058 202.679 48.3853 216.215C25.7127 229.751 34.5551 246.073 11.8784 259.612C-10.7984 273.15 -19.6449 256.83 -42.3217 270.369C-64.9984 283.907 -56.1519 300.227 -78.8286 313.765" stroke="white" stroke-opacity="0.2" stroke-width="0.220057" stroke-miterlimit="10"/>
<path d="M217.673 -25.1666C195 -11.6308 186.154 -27.9504 163.477 -14.4121C140.8 -0.873793 149.647 15.4459 126.974 28.9818C104.301 42.5177 95.4508 26.2004 72.7741 39.7387C50.0973 53.2771 58.948 69.5943 36.2712 83.1326C13.5945 96.671 4.74794 80.3513 -17.9247 93.8872C-40.5974 107.423 -31.7549 123.745 -54.4317 137.284C-77.1084 150.822 -85.955 134.502 -108.632 148.04C-131.308 161.579 -122.462 177.898 -145.139 191.437" stroke="white" stroke-opacity="0.2" stroke-width="0.220057" stroke-miterlimit="10"/>
<path d="M270.731 72.7142C248.058 86.2501 239.211 69.9304 216.535 83.4687C193.858 97.0071 202.704 113.327 180.032 126.863C157.359 140.399 148.508 124.081 125.832 137.62C103.155 151.158 112.006 167.475 89.3289 181.014C66.6521 194.552 57.8056 178.232 35.1329 191.768C12.4602 205.304 21.3027 221.626 -1.37406 235.164C-24.0508 248.703 -32.8974 232.383 -55.5741 245.921C-78.2509 259.46 -69.4043 275.779 -92.0811 289.318" stroke="white" stroke-opacity="0.2" stroke-width="0.220057" stroke-miterlimit="10"/>
<path d="M310.529 146.129C287.856 159.665 279.009 143.345 256.333 156.884C233.656 170.422 242.503 186.742 219.83 200.278C197.157 213.814 188.307 197.496 165.63 211.035C142.953 224.573 151.804 240.89 129.127 254.429C106.45 267.967 97.6037 251.647 74.931 265.183C52.2583 278.719 61.1008 295.041 38.424 308.579C15.7473 322.118 6.90073 305.798 -15.776 319.336C-38.4528 332.875 -29.6062 349.194 -52.283 362.733" stroke="white" stroke-opacity="0.2" stroke-width="0.220057" stroke-miterlimit="10"/>
<path d="M177.875 -98.5817C155.202 -85.0458 146.355 -101.365 123.679 -87.8272C101.002 -74.2888 109.848 -57.9691 87.1758 -44.4333C64.5031 -30.8974 55.6525 -47.2146 32.9758 -33.6763C10.299 -20.138 19.1496 -3.82072 -3.5271 9.7176C-26.2039 23.2559 -35.0504 6.93624 -57.7231 20.4721C-80.3957 34.008 -71.5533 50.3301 -94.23 63.8685C-116.907 77.4068 -125.753 61.0871 -148.43 74.6254C-171.107 88.1638 -162.26 104.483 -184.937 118.022" stroke="white" stroke-opacity="0.2" stroke-width="0.220057" stroke-miterlimit="10"/>
<path d="M230.944 -0.682266C208.271 12.8536 199.425 -3.46607 176.748 10.0723C154.071 23.6106 162.918 39.9303 140.245 53.4662C117.572 67.002 108.722 50.6848 86.0448 64.2231C63.3681 77.7614 72.2187 94.0787 49.542 107.617C26.8652 121.155 18.0187 104.836 -4.65397 118.372C-27.3266 131.907 -18.4842 148.23 -41.1609 161.768C-63.8377 175.306 -72.6842 158.987 -95.361 172.525C-118.038 186.063 -109.191 202.383 -131.868 215.921" stroke="white" stroke-opacity="0.2" stroke-width="0.220057" stroke-miterlimit="10"/>
<path d="M204.43 -49.5954C181.757 -36.0595 172.91 -52.3792 150.234 -38.8408C127.557 -25.3025 136.403 -8.98282 113.731 4.55307C91.0581 18.089 82.2074 1.77171 59.5307 15.31C36.8539 28.8484 45.7046 45.1656 23.0278 58.7039C0.351079 72.2423 -8.49547 55.9226 -31.1681 69.4585C-53.8408 82.9943 -44.9983 99.3165 -67.6751 112.855C-90.3518 126.393 -99.1984 110.073 -121.875 123.612C-144.552 137.15 -135.705 153.47 -158.382 167.008" stroke="white" stroke-opacity="0.2" stroke-width="0.220057" stroke-miterlimit="10"/>
<path d="M257.469 48.2494C234.796 61.7853 225.95 45.4656 203.273 59.0039C180.596 72.5422 189.443 88.8619 166.77 102.398C144.097 115.934 135.247 99.6164 112.57 113.155C89.8932 126.693 98.7439 143.01 76.0671 156.549C53.3904 170.087 44.5438 153.767 21.8712 167.303C-0.801484 180.839 8.04097 197.161 -14.6358 210.7C-37.3125 224.238 -46.1591 207.918 -68.8358 221.456C-91.5126 234.995 -82.666 251.315 -105.343 264.853" stroke="white" stroke-opacity="0.2" stroke-width="0.220057" stroke-miterlimit="10"/>
<path d="M297.265 121.663C274.592 135.199 265.746 118.88 243.069 132.418C220.392 145.956 229.239 162.276 206.566 175.812C183.894 189.348 175.043 173.03 152.366 186.569C129.689 200.107 138.54 216.424 115.863 229.963C93.1865 243.501 84.34 227.181 61.6673 240.717C38.9947 254.253 47.8371 270.575 25.1604 284.114C2.48362 297.652 -6.36294 281.332 -29.0397 294.871C-51.7164 308.409 -42.8699 324.729 -65.5466 338.267" stroke="white" stroke-opacity="0.2" stroke-width="0.220057" stroke-miterlimit="10"/>
<path d="M191.147 -74.0983C168.475 -60.5624 159.628 -76.8821 136.951 -63.3438C114.275 -49.8054 123.121 -33.4857 100.449 -19.9499C77.7759 -6.41398 68.9252 -22.7312 46.2485 -9.1929C23.5717 4.34543 32.4224 20.6627 9.7456 34.201C-12.9311 47.7393 -21.7777 31.4196 -44.4504 44.9555C-67.123 58.4914 -58.2806 74.8135 -80.9573 88.3519C-103.634 101.89 -112.481 85.5705 -135.157 99.1088C-157.834 112.647 -148.988 128.967 -171.664 142.505" stroke="white" stroke-opacity="0.2" stroke-width="0.220057" stroke-miterlimit="10"/>
<path d="M244.217 23.8021C221.544 37.338 212.697 21.0183 190.021 34.5566C167.344 48.095 176.191 64.4146 153.518 77.9505C130.845 91.4864 121.995 75.1692 99.3178 88.7075C76.641 102.246 85.4917 118.563 62.8149 132.101C40.1382 145.64 31.2916 129.32 8.61898 142.856C-14.0537 156.392 -5.21122 172.714 -27.888 186.252C-50.5647 199.791 -59.4113 183.471 -82.088 197.009C-104.765 210.548 -95.9182 226.867 -118.595 240.406" stroke="white" stroke-opacity="0.2" stroke-width="0.220057" stroke-miterlimit="10"/>
<path d="M283.983 97.1615C261.31 110.697 252.464 94.3777 229.787 107.916C207.11 121.454 215.957 137.774 193.284 151.31C170.612 164.846 161.761 148.529 139.084 162.067C116.407 175.605 125.258 191.922 102.581 205.461C79.9045 218.999 71.058 202.679 48.3853 216.215C25.7127 229.751 34.5551 246.073 11.8784 259.612C-10.7984 273.15 -19.6449 256.83 -42.3217 270.369C-64.9984 283.907 -56.1519 300.227 -78.8286 313.765" stroke="white" stroke-opacity="0.2" stroke-width="0.220057" stroke-miterlimit="10"/>
<path d="M217.673 -25.1666C195 -11.6308 186.154 -27.9504 163.477 -14.4121C140.8 -0.873793 149.647 15.4459 126.974 28.9818C104.301 42.5177 95.4508 26.2004 72.7741 39.7387C50.0973 53.2771 58.948 69.5943 36.2712 83.1326C13.5945 96.671 4.74794 80.3513 -17.9247 93.8872C-40.5974 107.423 -31.7549 123.745 -54.4317 137.284C-77.1084 150.822 -85.955 134.502 -108.632 148.04C-131.308 161.579 -122.462 177.898 -145.139 191.437" stroke="white" stroke-opacity="0.2" stroke-width="0.220057" stroke-miterlimit="10"/>
<path d="M270.731 72.7142C248.058 86.2501 239.211 69.9304 216.535 83.4687C193.858 97.0071 202.704 113.327 180.032 126.863C157.359 140.399 148.508 124.081 125.832 137.62C103.155 151.158 112.006 167.475 89.3289 181.014C66.6521 194.552 57.8056 178.232 35.1329 191.768C12.4602 205.304 21.3027 221.626 -1.37406 235.164C-24.0508 248.703 -32.8974 232.383 -55.5741 245.921C-78.2509 259.46 -69.4043 275.779 -92.0811 289.318" stroke="white" stroke-opacity="0.2" stroke-width="0.220057" stroke-miterlimit="10"/>
<path d="M310.529 146.129C287.856 159.665 279.009 143.345 256.333 156.884C233.656 170.422 242.503 186.742 219.83 200.278C197.157 213.814 188.307 197.496 165.63 211.035C142.953 224.573 151.804 240.89 129.127 254.429C106.45 267.967 97.6037 251.647 74.931 265.183C52.2583 278.719 61.1008 295.041 38.424 308.579C15.7473 322.118 6.90073 305.798 -15.776 319.336C-38.4528 332.875 -29.6062 349.194 -52.283 362.733" stroke="white" stroke-opacity="0.2" stroke-width="0.220057" stroke-miterlimit="10"/>
<path d="M182.316 -90.3903C159.644 -76.8544 150.797 -93.1741 128.12 -79.6358C105.444 -66.0974 114.29 -49.7777 91.6175 -36.2419C68.9448 -22.706 60.0942 -39.0232 37.4174 -25.4849C14.7407 -11.9466 23.5913 4.37068 0.914548 17.909C-21.7622 31.4473 -30.6088 15.1276 -53.2814 28.6635C-75.9541 42.1994 -67.1116 58.5215 -89.7884 72.0599C-112.465 85.5982 -121.312 69.2785 -143.988 82.8168C-166.665 96.3552 -157.819 112.675 -180.495 126.213" stroke="white" stroke-opacity="0.2" stroke-width="0.220057" stroke-miterlimit="10"/>
<path d="M235.365 7.47203C212.692 21.0079 203.846 4.68823 181.169 18.2266C158.492 31.7649 167.339 48.0846 144.666 61.6204C121.993 75.1563 113.143 58.8391 90.466 72.3774C67.7892 85.9157 76.6399 102.233 53.9631 115.771C31.2864 129.31 22.4398 112.99 -0.232828 126.526C-22.9055 140.062 -14.063 156.384 -36.7398 169.922C-59.4165 183.461 -68.2631 167.141 -90.9398 180.679C-113.617 194.217 -104.77 210.537 -127.447 224.075" stroke="white" stroke-opacity="0.2" stroke-width="0.220057" stroke-miterlimit="10"/>
<path d="M208.83 -41.4772C186.158 -27.9413 177.311 -44.261 154.634 -30.7227C131.958 -17.1843 140.804 -0.864659 118.132 12.6712C95.459 26.2071 86.6083 9.88987 63.9316 23.4282C41.2548 36.9665 50.1055 53.2838 27.4287 66.8221C4.75198 80.3604 -4.09457 64.0407 -26.7672 77.5766C-49.4399 91.1125 -40.5974 107.435 -63.2742 120.973C-85.9509 134.511 -94.7975 118.192 -117.474 131.73C-140.151 145.268 -131.304 161.588 -153.981 175.126" stroke="white" stroke-opacity="0.2" stroke-width="0.220057" stroke-miterlimit="10"/>
<path d="M261.89 56.4037C239.217 69.9396 230.371 53.6199 207.694 67.1582C185.017 80.6965 193.864 97.0162 171.191 110.552C148.519 124.088 139.668 107.771 116.991 121.309C94.3144 134.847 103.165 151.165 80.4883 164.703C57.8115 178.241 48.965 161.922 26.2923 175.457C3.61966 188.993 12.4621 205.315 -10.2146 218.854C-32.8914 232.392 -41.7379 216.072 -64.4147 229.611C-87.0914 243.149 -78.2449 259.469 -100.922 273.007" stroke="white" stroke-opacity="0.2" stroke-width="0.220057" stroke-miterlimit="10"/>
<path d="M301.677 129.8C279.004 143.336 270.158 127.016 247.481 140.555C224.804 154.093 233.651 170.413 210.978 183.949C188.306 197.484 179.455 181.167 156.778 194.706C134.101 208.244 142.952 224.561 120.275 238.099C97.5986 251.638 88.7521 235.318 66.0794 248.854C43.4068 262.39 52.2492 278.712 29.5725 292.25C6.89573 305.789 -1.95083 289.469 -24.6276 303.007C-47.3043 316.546 -38.4578 332.865 -61.1345 346.404" stroke="white" stroke-opacity="0.2" stroke-width="0.220057" stroke-miterlimit="10"/>
<path d="M195.578 -65.9245C172.905 -52.3886 164.059 -68.7083 141.382 -55.1699C118.705 -41.6316 127.552 -25.3119 104.879 -11.776C82.2065 1.75985 73.3559 -14.5574 50.6791 -1.01907C28.0024 12.5193 36.853 28.8365 14.1763 42.3748C-8.50048 55.9132 -17.347 39.5935 -40.0197 53.1294C-62.6924 66.6652 -53.8499 82.9874 -76.5266 96.5257C-99.2034 110.064 -108.05 93.7443 -130.727 107.283C-153.403 120.821 -144.557 137.141 -167.234 150.679" stroke="white" stroke-opacity="0.2" stroke-width="0.220057" stroke-miterlimit="10"/>
<path d="M248.617 31.9193C225.945 45.4552 217.098 29.1355 194.421 42.6738C171.745 56.2121 180.591 72.5318 157.918 86.0677C135.246 99.6036 126.395 83.2864 103.718 96.8247C81.0417 110.363 89.8923 126.68 67.2156 140.219C44.5388 153.757 35.6923 137.437 13.0196 150.973C-9.65305 164.509 -0.810589 180.831 -23.4873 194.369C-46.1641 207.908 -55.0106 191.588 -77.6874 205.126C-100.364 218.665 -91.5176 234.984 -114.194 248.523" stroke="white" stroke-opacity="0.2" stroke-width="0.220057" stroke-miterlimit="10"/>
<path d="M288.404 105.317C265.732 118.853 256.885 102.533 234.208 116.071C211.531 129.61 220.378 145.929 197.705 159.465C175.033 173.001 166.182 156.684 143.505 170.222C120.829 183.76 129.679 200.078 107.002 213.616C84.3257 227.154 75.4791 210.835 52.8065 224.371C30.1338 237.906 38.9763 254.229 16.2995 267.767C-6.37722 281.305 -15.2238 264.986 -37.9005 278.524C-60.5773 292.062 -51.7307 308.382 -74.4075 321.92" stroke="white" stroke-opacity="0.2" stroke-width="0.220057" stroke-miterlimit="10"/>
<path d="M222.094 -17.0114C199.421 -3.47548 190.575 -19.7952 167.898 -6.25685C145.221 7.28148 154.068 23.6012 131.395 37.137C108.723 50.6729 99.872 34.3557 77.1952 47.894C54.5185 61.4323 63.3691 77.7496 40.6924 91.2879C18.0156 104.826 9.1691 88.5065 -13.5036 102.042C-36.1762 115.578 -27.3338 131.9 -50.0105 145.439C-72.6873 158.977 -81.5338 142.657 -104.211 156.196C-126.887 169.734 -118.041 186.054 -140.718 199.592" stroke="white" stroke-opacity="0.2" stroke-width="0.220057" stroke-miterlimit="10"/>
<path d="M275.152 80.8695C252.479 94.4054 243.633 78.0857 220.956 91.624C198.279 105.162 207.126 121.482 184.453 135.018C161.78 148.554 152.93 132.237 130.253 145.775C107.576 159.313 116.427 175.63 93.75 189.169C71.0732 202.707 62.2267 186.387 39.554 199.923C16.8814 213.459 25.7238 229.781 3.04708 243.32C-19.6297 256.858 -28.4762 240.538 -51.153 254.077C-73.8297 267.615 -64.9832 283.935 -87.6599 297.473" stroke="white" stroke-opacity="0.2" stroke-width="0.220057" stroke-miterlimit="10"/>
<path d="M314.939 154.266C292.266 167.802 283.42 151.482 260.743 165.02C238.066 178.559 246.913 194.879 224.24 208.414C201.567 221.95 192.717 205.633 170.04 219.171C147.363 232.71 156.214 249.027 133.537 262.565C110.86 276.104 102.014 259.784 79.3411 273.32C56.6685 286.856 65.5109 303.178 42.8342 316.716C20.1574 330.254 11.3109 313.935 -11.3659 327.473C-34.0426 341.011 -25.1961 357.331 -47.8728 370.869" stroke="white" stroke-opacity="0.2" stroke-width="0.220057" stroke-miterlimit="10"/>
<path d="M320.79 165.059C298.117 178.595 289.271 162.275 266.594 175.813C243.917 189.352 252.764 205.671 230.091 219.207C207.419 232.743 198.568 216.426 175.891 229.964C153.215 243.503 162.065 259.82 139.388 273.358C116.712 286.897 107.865 270.577 85.1925 284.113C62.5198 297.649 71.3623 313.971 48.6855 327.509C26.0088 341.047 17.1622 324.728 -5.51454 338.266C-28.1913 351.804 -19.3447 368.124 -42.0215 381.662" stroke="white" stroke-opacity="0.2" stroke-width="0.220057" stroke-miterlimit="10"/>
<path d="M173.478 -106.685C150.805 -93.1493 141.959 -109.469 119.282 -95.9307C96.6052 -82.3923 105.452 -66.0727 82.7791 -52.5368C60.1064 -39.0009 51.2558 -55.3181 28.579 -41.7798C5.90228 -28.2415 14.7529 -11.9242 -7.92383 1.61409C-30.6006 15.1524 -39.4471 -1.16728 -62.1198 12.3686C-84.7925 25.9045 -75.95 42.2266 -98.6267 55.7649C-121.303 69.3033 -130.15 52.9836 -152.827 66.5219C-175.504 80.0602 -166.657 96.3799 -189.334 109.918" stroke="white" stroke-opacity="0.2" stroke-width="0.220057" stroke-miterlimit="10"/>
<path d="M168.599 -115.679C145.925 -102.145 137.081 -118.466 114.403 -104.929C91.725 -91.3929 100.569 -75.0719 77.8954 -61.5378C55.2217 -48.0038 46.3734 -64.3223 23.6956 -50.7858C1.01775 -37.2493 9.86599 -20.9307 -12.8118 -7.39421C-35.4897 6.14231 -44.3338 -10.1787 -67.0076 3.35539C-89.6813 16.8895 -80.8412 33.2129 -103.519 46.7494C-126.197 60.2859 -135.041 43.9649 -157.719 57.5015C-180.397 71.038 -171.553 87.359 -194.23 100.895" stroke="white" stroke-opacity="0.2" stroke-width="0.220057" stroke-miterlimit="10"/>
<path d="M177.875 -98.5817C155.202 -85.0458 146.355 -101.365 123.679 -87.8272C101.002 -74.2888 109.848 -57.9691 87.1758 -44.4333C64.5031 -30.8974 55.6525 -47.2146 32.9758 -33.6763C10.299 -20.138 19.1496 -3.82072 -3.5271 9.7176C-26.2039 23.2559 -35.0504 6.93624 -57.7231 20.4721C-80.3957 34.008 -71.5533 50.3301 -94.23 63.8685C-116.907 77.4068 -125.753 61.0871 -148.43 74.6254C-171.107 88.1638 -162.26 104.483 -184.937 118.022" stroke="white" stroke-opacity="0.2" stroke-width="0.220057" stroke-miterlimit="10"/>
</g>
</g>
<defs>
<clipPath id="clip0_153_10441">
<rect width="160" height="250" fill="white"/>
</clipPath>
</defs>
</svg>
