<svg width="450" height="1245" viewBox="0 0 450 1245" fill="none" xmlns="http://www.w3.org/2000/svg">
<g clip-path="url(#clip0_180_10494)">
<g filter="url(#filter0_d_180_10494)">
<path d="M225 35C-93.6683 35 -352 354.463 -352 748.54C-352 941.496 -290.066 1116.56 -189.44 1245H639.44C740.066 1116.56 802 941.496 802 748.54C802 354.463 543.668 35 225 35Z" fill="white" fill-opacity="0.02" shape-rendering="crispEdges"/>
<path d="M-351.809 748.54C-351.809 354.529 -93.5268 35.1912 225 35.1912C543.527 35.1912 801.809 354.529 801.809 748.54C801.809 941.42 739.911 1116.42 639.347 1244.81H-189.347C-289.911 1116.42 -351.809 941.42 -351.809 748.54Z" stroke="url(#paint0_linear_180_10494)" stroke-width="0.382301" shape-rendering="crispEdges"/>
</g>
</g>
<defs>
<filter id="filter0_d_180_10494" x="-374.938" y="0.59292" width="1199.88" height="1255.88" filterUnits="userSpaceOnUse" color-interpolation-filters="sRGB">
<feFlood flood-opacity="0" result="BackgroundImageFix"/>
<feColorMatrix in="SourceAlpha" type="matrix" values="0 0 0 0 0 0 0 0 0 0 0 0 0 0 0 0 0 0 127 0" result="hardAlpha"/>
<feOffset dy="-11.469"/>
<feGaussianBlur stdDeviation="11.469"/>
<feComposite in2="hardAlpha" operator="out"/>
<feColorMatrix type="matrix" values="0 0 0 0 1 0 0 0 0 1 0 0 0 0 1 0 0 0 0.04 0"/>
<feBlend mode="normal" in2="BackgroundImageFix" result="effect1_dropShadow_180_10494"/>
<feBlend mode="normal" in="SourceGraphic" in2="effect1_dropShadow_180_10494" result="shape"/>
</filter>
<linearGradient id="paint0_linear_180_10494" x1="225" y1="35" x2="225" y2="132.201" gradientUnits="userSpaceOnUse">
<stop stop-color="white"/>
<stop offset="1" stop-color="white" stop-opacity="0"/>
</linearGradient>
<clipPath id="clip0_180_10494">
<rect width="450" height="1245" fill="white"/>
</clipPath>
</defs>
</svg>
